<svg width="48" height="48" viewBox="0 0 48 48" fill="none" xmlns="http://www.w3.org/2000/svg">
<g id="icon">
<path id="Rectangle 102" fill-rule="evenodd" clip-rule="evenodd" d="M0 15C0 6.71573 6.71573 0 15 0H33C41.2843 0 48 6.71573 48 15V33C48 41.2843 41.2843 48 33 48H15C6.71573 48 0 41.2843 0 33V15Z" fill="#342546"/>
<g id="hut">
<g id="Path 564">
<path fill-rule="evenodd" clip-rule="evenodd" d="M32.1974 31.9522H26.3503C25.9299 31.9522 25.586 31.6083 25.586 31.1879V27.5573C25.586 26.6401 24.8599 25.914 23.9427 25.914C23.0255 25.914 22.2994 26.6401 22.2994 27.5573V31.1879C22.2994 31.6083 21.9554 31.9522 21.535 31.9522H15.7643C15.344 31.9522 15 31.6083 15 31.1879V21.4045C15 20.7166 15.3439 20.0669 15.879 19.6847L23.5605 14.1433C23.828 13.9522 24.172 13.9522 24.4395 14.1433L32.121 19.6847C32.656 20.0669 33 20.7166 33 21.4045V31.2261C32.9618 31.6083 32.6178 31.9522 32.1975 31.9522L32.1974 31.9522ZM27.1164 30.4618H31.4731V21.4045C31.4731 21.2134 31.3584 21.0223 31.2056 20.9077L23.9826 15.672L16.7597 20.8694C16.6068 20.9841 16.4922 21.1752 16.4922 21.3663V30.4236H20.8489V27.5573C20.8489 25.8376 22.2629 24.4236 23.9826 24.4236C25.7024 24.4236 27.1164 25.8376 27.1164 27.5573V30.4618Z" fill="white"/>
<path d="M32.1974 31.9522L32.2615 31.8754L32.2336 31.8522H32.1974V31.9522ZM15.879 19.6847L15.9371 19.7661L15.9375 19.7658L15.879 19.6847ZM23.5605 14.1433L23.5024 14.0619L23.502 14.0622L23.5605 14.1433ZM24.4395 14.1433L24.498 14.0622L24.4976 14.0619L24.4395 14.1433ZM32.121 19.6847L32.0625 19.7658L32.0629 19.7661L32.121 19.6847ZM33 31.2261L33.1 31.2361V31.2261H33ZM32.1975 31.9522L32.1334 32.0291L32.1612 32.0522H32.1975V31.9522ZM27.1164 30.4618H27.0164V30.5618H27.1164V30.4618ZM31.4731 30.4618V30.5618H31.5731V30.4618H31.4731ZM31.2056 20.9077L31.2656 20.8277L31.2643 20.8267L31.2056 20.9077ZM23.9826 15.672L24.0413 15.591L23.9829 15.5486L23.9242 15.5908L23.9826 15.672ZM16.7597 20.8694L16.7013 20.7883L16.6997 20.7894L16.7597 20.8694ZM16.4922 30.4236H16.3922V30.5236H16.4922V30.4236ZM20.8489 30.4236V30.5236H20.9489V30.4236H20.8489ZM32.1974 31.8522H26.3503V32.0522H32.1974V31.8522ZM26.3503 31.8522C25.9852 31.8522 25.686 31.5531 25.686 31.1879H25.486C25.486 31.6635 25.8747 32.0522 26.3503 32.0522V31.8522ZM25.686 31.1879V27.5573H25.486V31.1879H25.686ZM25.686 27.5573C25.686 26.5849 24.9151 25.814 23.9427 25.814V26.014C24.8046 26.014 25.486 26.6954 25.486 27.5573H25.686ZM23.9427 25.814C22.9702 25.814 22.1994 26.5849 22.1994 27.5573H22.3994C22.3994 26.6954 23.0807 26.014 23.9427 26.014V25.814ZM22.1994 27.5573V31.1879H22.3994V27.5573H22.1994ZM22.1994 31.1879C22.1994 31.5531 21.9002 31.8522 21.535 31.8522V32.0522C22.0106 32.0522 22.3994 31.6635 22.3994 31.1879H22.1994ZM21.535 31.8522H15.7643V32.0522H21.535V31.8522ZM15.7643 31.8522C15.3992 31.8522 15.1 31.5531 15.1 31.1879H14.9C14.9 31.6635 15.2887 32.0522 15.7643 32.0522V31.8522ZM15.1 31.1879V21.4045H14.9V31.1879H15.1ZM15.1 21.4045C15.1 20.749 15.4282 20.1296 15.9371 19.7661L15.8209 19.6033C15.2597 20.0042 14.9 20.6841 14.9 21.4045H15.1ZM15.9375 19.7658L23.619 14.2244L23.502 14.0622L15.8205 19.6036L15.9375 19.7658ZM23.6186 14.2247C23.8514 14.0584 24.1486 14.0584 24.3814 14.2247L24.4976 14.0619C24.1953 13.846 23.8047 13.846 23.5024 14.0619L23.6186 14.2247ZM24.381 14.2244L32.0625 19.7658L32.1795 19.6036L24.498 14.0622L24.381 14.2244ZM32.0629 19.7661C32.5718 20.1296 32.9 20.749 32.9 21.4045H33.1C33.1 20.6841 32.7403 20.0042 32.1791 19.6033L32.0629 19.7661ZM32.9 21.4045V31.2261H33.1V21.4045H32.9ZM32.9005 31.2162C32.8671 31.55 32.5637 31.8522 32.1975 31.8522V32.0522C32.6719 32.0522 33.0564 31.6666 33.0995 31.2361L32.9005 31.2162ZM32.2615 31.8754L32.2615 31.8754L32.1334 32.0291L32.1334 32.0291L32.2615 31.8754ZM27.1164 30.5618H31.4731V30.3618H27.1164V30.5618ZM31.5731 30.4618V21.4045H31.3731V30.4618H31.5731ZM31.5731 21.4045C31.5731 21.1757 31.4382 20.9571 31.2656 20.8277L31.1456 20.9877C31.2787 21.0875 31.3731 21.2511 31.3731 21.4045H31.5731ZM31.2643 20.8267L24.0413 15.591L23.9239 15.753L31.1469 20.9886L31.2643 20.8267ZM23.9242 15.5908L16.7013 20.7883L16.8181 20.9506L24.041 15.7532L23.9242 15.5908ZM16.6997 20.7894C16.5271 20.9189 16.3922 21.1375 16.3922 21.3663H16.5922C16.5922 21.2128 16.6866 21.0493 16.8197 20.9494L16.6997 20.7894ZM16.3922 21.3663V30.4236H16.5922V21.3663H16.3922ZM16.4922 30.5236H20.8489V30.3236H16.4922V30.5236ZM20.9489 30.4236V27.5573H20.7489V30.4236H20.9489ZM20.9489 27.5573C20.9489 25.8928 22.3181 24.5236 23.9826 24.5236V24.3236C22.2077 24.3236 20.7489 25.7824 20.7489 27.5573H20.9489ZM23.9826 24.5236C25.6472 24.5236 27.0164 25.8928 27.0164 27.5573H27.2164C27.2164 25.7824 25.7576 24.3236 23.9826 24.3236V24.5236ZM27.0164 27.5573V30.4618H27.2164V27.5573H27.0164Z" fill="white"/>
</g>
</g>
</g>
</svg>
