<svg width="48" height="48" viewBox="0 0 48 48" fill="none" xmlns="http://www.w3.org/2000/svg">
<g id="icon">
<path id="Rectangle 102" fill-rule="evenodd" clip-rule="evenodd" d="M0 15C0 6.71573 6.71573 0 15 0H33C41.2843 0 48 6.71573 48 15V33C48 41.2843 41.2843 48 33 48H15C6.71573 48 0 41.2843 0 33V15Z" fill="#342546"/>
<g id="suitcase">
<g id="Path 565">
<path fill-rule="evenodd" clip-rule="evenodd" d="M31.949 32.3443H16.094C14.9257 32.3443 14.0078 31.4263 14.0078 30.2581V20.2444C14.0078 19.0761 14.9257 18.1582 16.094 18.1582H31.949C33.1173 18.1582 34.0352 19.0761 34.0352 20.2444V30.2581C34.0352 31.4263 33.1173 32.3443 31.949 32.3443ZM16.0955 18.9927C15.4279 18.9927 14.8438 19.5768 14.8438 20.2444V30.2581C14.8438 30.9257 15.4279 31.5098 16.0955 31.5098H31.9505C32.618 31.5098 33.2022 30.9257 33.2022 30.2581V20.2444C33.2022 19.5768 32.618 18.9927 31.9505 18.9927H16.0955Z" fill="white"/>
<path d="M31.949 31.9443H16.094V32.7443H31.949V31.9443ZM16.094 31.9443C15.1467 31.9443 14.4078 31.2054 14.4078 30.2581H13.6078C13.6078 31.6472 14.7048 32.7443 16.094 32.7443V31.9443ZM14.4078 30.2581V20.2444H13.6078V30.2581H14.4078ZM14.4078 20.2444C14.4078 19.297 15.1466 18.5582 16.094 18.5582V17.7582C14.7048 17.7582 13.6078 18.8552 13.6078 20.2444H14.4078ZM16.094 18.5582H31.949V17.7582H16.094V18.5582ZM31.949 18.5582C32.8964 18.5582 33.6352 19.297 33.6352 20.2444H34.4352C34.4352 18.8552 33.3382 17.7582 31.949 17.7582V18.5582ZM33.6352 20.2444V30.2581H34.4352V20.2444H33.6352ZM33.6352 30.2581C33.6352 31.2054 32.8964 31.9443 31.949 31.9443V32.7443C33.3382 32.7443 34.4352 31.6472 34.4352 30.2581H33.6352ZM16.0955 18.5927C15.207 18.5927 14.4437 19.3559 14.4437 20.2444H15.2437C15.2437 19.7977 15.6488 19.3927 16.0955 19.3927V18.5927ZM14.4437 20.2444V30.2581H15.2437V20.2444H14.4437ZM14.4437 30.2581C14.4437 31.1466 15.207 31.9098 16.0955 31.9098V31.1098C15.6488 31.1098 15.2437 30.7047 15.2437 30.2581H14.4437ZM16.0955 31.9098H31.9505V31.1098H16.0955V31.9098ZM31.9505 31.9098C32.839 31.9098 33.6022 31.1466 33.6022 30.2581H32.8022C32.8022 30.7047 32.3971 31.1098 31.9505 31.1098V31.9098ZM33.6022 30.2581V20.2444H32.8022V30.2581H33.6022ZM33.6022 20.2444C33.6022 19.3559 32.839 18.5927 31.9505 18.5927V19.3927C32.3971 19.3927 32.8022 19.7977 32.8022 20.2444H33.6022ZM31.9505 18.5927H16.0955V19.3927H31.9505V18.5927Z" fill="white"/>
</g>
<path id="Path 566" fill-rule="evenodd" clip-rule="evenodd" d="M26.9383 18.9932C26.6879 18.9932 26.521 18.8263 26.521 18.5759V16.907C26.521 16.6566 26.3541 16.4897 26.1038 16.4897H21.9314C21.6811 16.4897 21.5142 16.6566 21.5142 16.907V18.5759C21.5142 18.8263 21.3473 18.9932 21.0969 18.9932C20.8466 18.9932 20.6797 18.8263 20.6797 18.5759V16.907C20.6797 16.2394 21.2638 15.6553 21.9314 15.6553H26.1038C26.7713 15.6553 27.3555 16.2394 27.3555 16.907V18.5759C27.3555 18.8263 27.1886 18.9932 26.9382 18.9932H26.9383Z" fill="white" stroke="white" stroke-width="0.8"/>
<path id="Path 567" fill-rule="evenodd" clip-rule="evenodd" d="M24.0203 25.669C23.9368 25.669 23.9368 25.669 23.8534 25.669L14.2569 22.3311C14.09 22.2476 13.9231 21.9973 14.0066 21.747C14.09 21.5801 14.3404 21.4132 14.5907 21.4966L24.0203 24.8345L33.4498 21.4966C33.7002 21.4132 33.8671 21.4966 33.9505 21.747C34.034 21.9973 33.9505 22.1642 33.7002 22.2477L24.1037 25.5856C24.1037 25.669 24.1037 25.669 24.0203 25.669L24.0203 25.669Z" fill="white" stroke="white" stroke-width="0.8"/>
</g>
</g>
</svg>
