<svg xmlns="http://www.w3.org/2000/svg" width="21.962" height="18.124" viewBox="0 0 21.962 18.124"><defs><style>.a{fill:#eaeaea;}</style></defs><path class="a" d="M349.943,446.452a1.737,1.737,0,0,1-1.293-.554,1.849,1.849,0,0,1-.537-1.334V430.216a1.849,1.849,0,0,1,.537-1.334,1.737,1.737,0,0,1,1.293-.554h18.3a1.736,1.736,0,0,1,1.292.554,1.849,1.849,0,0,1,.537,1.334v14.348a1.849,1.849,0,0,1-.537,1.334,1.736,1.736,0,0,1-1.292.554Zm-.366-1.888a.366.366,0,0,0,.109.265.345.345,0,0,0,.257.113h18.3a.347.347,0,0,0,.257-.112.37.37,0,0,0,.109-.266V437.39H349.576Zm.109-14.613a.366.366,0,0,0-.109.265v2.643h19.033v-2.643a.366.366,0,0,0-.109-.265.342.342,0,0,0-.257-.113h-18.3A.345.345,0,0,0,349.685,429.951Zm5.745,13.479v-1.51h4.39v1.51Zm-4.39,0v-1.51h2.93v1.51Z" transform="translate(-348.112 -428.328)"/></svg>