<svg xmlns="http://www.w3.org/2000/svg" width="42" height="42" viewBox="0 0 42 42"><defs><style>.a{fill:#2597df;stroke:#fff;stroke-width:3px;}.b{fill:#fff;}.c{stroke:none;}.d{fill:none;}</style></defs><g transform="translate(-86 -303)"><g class="a" transform="translate(89 306)"><rect class="c" width="36" height="36" rx="15"/><rect class="d" x="-1.5" y="-1.5" width="39" height="39" rx="16.5"/></g><g transform="translate(97 290)"><path class="b" d="M137.018,157a5.018,5.018,0,1,0,5.018,5.018A5.023,5.023,0,0,0,137.018,157Zm0,8.43a3.412,3.412,0,1,1,3.412-3.412A3.416,3.416,0,0,1,137.018,165.43Z" transform="translate(-126.701 -126.701)"/><path class="b" d="M19.749,41.136a.8.8,0,0,0,.8-.8V31.1a3.215,3.215,0,0,0-3.211-3.211H16.122a.8.8,0,0,1-.76-.544l-.243-.714A2.408,2.408,0,0,0,12.839,25H7.71a2.415,2.415,0,0,0-2.265,1.59l-.278.77a.805.805,0,0,1-.755.53h-1.2A3.215,3.215,0,0,0,0,31.1v9.232a3.215,3.215,0,0,0,3.211,3.211H17.341a3.215,3.215,0,0,0,3.211-3.211.8.8,0,0,0-1.606,0,1.607,1.607,0,0,1-1.606,1.606H3.211a1.607,1.607,0,0,1-1.606-1.606V31.1A1.607,1.607,0,0,1,3.211,29.5h1.2a2.415,2.415,0,0,0,2.265-1.59l.278-.77a.805.805,0,0,1,.755-.53h5.129a.8.8,0,0,1,.76.544l.243.714a2.408,2.408,0,0,0,2.28,1.632h1.219A1.607,1.607,0,0,1,18.946,31.1v9.232A.8.8,0,0,0,19.749,41.136Z" transform="translate(0)"/></g></g></svg>