<svg xmlns="http://www.w3.org/2000/svg" width="235.05" height="160.981" viewBox="0 0 235.05 160.981"><defs><style>.a{fill:#e6eff9;}.a,.aa,.ab,.ac,.ad,.ae,.af,.ag,.ah,.b,.c,.d,.f,.g,.h,.i,.k,.l,.m,.n,.o,.p,.s,.t,.u,.v,.w,.x,.y,.z{fill-rule:evenodd;}.b{fill:#e3edf9;}.c{fill:#d5e6f6;}.d,.e{fill:#cfe2f4;}.f{fill:#a8d090;}.g{fill:#b9d9a1;}.h{fill:#9dc688;}.i{fill:#f5fbfe;}.j,.m{fill:#f8d4b0;}.k,.q{fill:#fff0e3;}.l{fill:#eb8729;}.n{fill:#fb6c23;}.o{fill:#e16c15;}.p,.r{fill:#edc09d;}.s{fill:#73a35e;}.t{fill:#fb9e63;}.u{fill:#403964;}.v{fill:#b8d3ef;}.w{fill:#a4a1b6;}.x{fill:#fff;}.y{fill:#1c215f;}.z{fill:#3863ad;}.aa{fill:#61649a;}.ab{fill:#6c86c2;}.ac{fill:#9ca1cb;}.ad{fill:#9392b2;}.ae{fill:#150b28;}.af{fill:#5a64a6;}.ag{fill:#d1d2e6;}.ah{fill:#9fb7df;}</style></defs><g transform="translate(-1562.663 -445.296)"><g transform="translate(1562.663 453.351)"><path class="a" d="M1797.447,550.516a54.233,54.233,0,0,1-4.847,16.991q-.277.6-.562,1.18l-.091.184a81.572,81.572,0,0,1-4.884,8.275c-.821,1.275-3.685,3.907-9.506,7.087q-.9.489-1.885,1c-11.865,6.053-34.1,13.691-72.422,17.849-30.907,3.355-88.773,2.906-118.322-6.754-8.118-2.654-17.421-14.561-17.421-14.561q-1.171-2.225-2.149-4.331c-.061-.125-.118-.253-.175-.377q-.491-1.069-.933-2.105l-.014-.039q-.313-.929-.561-1.816c-.1-.366-.193-.727-.279-1.083a25.668,25.668,0,0,1-.715-4.987q-.016-.4-.018-.791a21.4,21.4,0,0,1,.129-2.458q.093-.827.246-1.621c.01-.058.021-.119.033-.179.107-.536.234-1.065.378-1.583.042-.15.085-.3.129-.451q.218-.721.477-1.423c.006-.018.012-.033.018-.05.325-.874.7-1.723,1.1-2.556.6-1.232,1.267-2.427,1.98-3.614,1.014-1.691,2.11-3.363,3.18-5.083,3.621-5.817,6.954-12.186,5.949-21.823a41.008,41.008,0,0,0-1.1-6,64.9,64.9,0,0,1-1.388-6.848,50.209,50.209,0,0,1,2.494-25.443,46.53,46.53,0,0,1,2.075-4.65,49.813,49.813,0,0,1,11.172-14.328,59.785,59.785,0,0,1,13.11-8.859,66.4,66.4,0,0,1,6.911-2.991,69.239,69.239,0,0,1,9.721-2.778c21.148-4.41,44.016,1.091,55.43,18.574,15.054,23.054,37.974,26.584,47.947,23.715,2.09-.6,4.2-1.162,6.329-1.659,12.985-3.023,26.637-3.583,40.023,4.568l.017.01.007,0q1.726,1.053,3.444,2.3.62.451,1.24.93,1.18.911,2.358,1.926a69.053,69.053,0,0,1,7.694,7.839q.532.628,1.059,1.281v0c.172.209.341.42.511.635q.773.972,1.542,2c.436.584.87,1.176,1.306,1.785a56.6,56.6,0,0,1,3.759,6,50.348,50.348,0,0,1,2.675,5.771q.088.224.17.448c.033.086.064.171.1.255q.6,1.634,1.068,3.247.222.772.413,1.538c.25.988.459,1.968.636,2.939A45.331,45.331,0,0,1,1797.447,550.516Z" transform="translate(-1562.663 -452.045)"/><path class="b" d="M1741.146,572.636h0q.99-.5,1.885-1c1.467-.8,2.745-1.567,3.85-2.285a63.393,63.393,0,0,1-5.736,3.281Zm5.737-3.282.019-.012-.019.012Zm.036-.023,0,0,0,0Zm5.615-4.771,0-.006a81.572,81.572,0,0,0,4.884-8.275l.091-.184q.285-.58.562-1.18a54.224,54.224,0,0,0,4.847-16.991,46.4,46.4,0,0,0,.265-4.937,46.4,46.4,0,0,1-.265,4.937,54.233,54.233,0,0,1-4.847,16.991q-.277.6-.562,1.18l-.091.184a81.572,81.572,0,0,1-4.884,8.275l0,.006Zm8.89-44.031-.01-.036.01.036Zm-.569-1.83c-.156-.471-.323-.943-.5-1.418-.017-.045-.034-.092-.051-.138Q1760.6,517.923,1760.854,518.7Z" transform="translate(-1528.136 -439.453)"/><path class="c" d="M1691.931,574.759v-.27l-73.651.27h-6.319V527.068h6.307V516.451h12.584v9.012h3.844v2.359h9.335v-2.639H1634.7V523.76h9.335v-2.636H1634.7v-1.573h9.335v-2.637H1634.7v-1.507h9.335v-2.636H1634.7v-1.337h9.335V508.8h-8.5V507.63h.149V508.8h3.035V507.63h.15V508.8h4.3V507.63h.15V508.8h2.7V507.63h.15V508.8h1.11v15.558h4.248v-2.517l5.009.023v-4.078h1.009v-.807h.134v.807h4.641v-.808h.135v.808h.932v8.109h5.963v2.985h3.314v-1.733h3.076v-6.88h1.532v-3.209h.23v3.209h3.676v-6.016h.362v6.016h2.431v-.084h0v-.109h4.76v-1.6h-4.76v-.866h4.76V516h-4.76v-.481h0v-.474h4.756v-1.6h-4.756v-.724h0v-.191h4.76v-1.6h-4.756v-.467h0v-.4h4.76v-1.6h-4.031v-.9h.115v.9h5.367v-.9h.115v.9h.98v6.289l.688,0v0h0v-1.2h0v-.831h0v-1.2h0v-.826h0v-1.2h0v0h6.508v0h1.118l.174.1v6.863h4.756v9.012h3.844V508.8h.835V507.63h.149V508.8h3.036V507.63h.15V508.8h4.3V507.63h.149V508.8h2.7V507.63h.152V508.8h-8.49v2.636h9.6v1.423h-9.6v2.638h9.6V517h-9.6v2.638h9.6v1.572h-9.6v2.638h9.6v.508h4.245v-2.517l5.01.023v-4.078h1.009v-.807h.134v.807h4.64v-.808h.135v.808h.932v8.109h5.965v2.985h3.314v-1.733h3.074v-6.88h1.534v-3.209h.231v3.209h3.675v-6.016h.361v6.016h2.431v-.084h0v-.764h0v-.723h0v-1.2h0v-.767h0v-1.2h0v-.767h0v-1.2h0v-.831h0v-1.2h0v-1.055h0v-1.2h0v-.8h.725v-.9h.117v.9h5.365v-.9h.117v.9h.979v6.289l.679,0h0v1.34h4.8v-1.6h-4.8v-.915h4.8v-1.6h-4.8v-.462h.006v-.4h4.79v-1.6h-4.8v-.024h.006v0h6.507v0h1.117l.174.1v6.863h7.985v9.013h3.844v-6.585l.043.117c.018.047.035.093.051.138.176.475.343.946.5,1.418q.3.9.559,1.794l.01.036h0q.222.772.413,1.538c.25.988.459,1.968.636,2.939a44.591,44.591,0,0,1,.713,7.979,46.4,46.4,0,0,1-.265,4.937,54.233,54.233,0,0,1-4.847,16.991q-.277.6-.562,1.18l-.091.184a81.572,81.572,0,0,1-4.884,8.275l0,.006c-.615.951-2.361,2.651-5.612,4.769l0,0-.017.011-.019.012h0c-1.105.718-2.383,1.485-3.85,2.285q-.9.489-1.885,1h0l-74.2.271Zm73.683-29.825v1.6h4.8v-1.6Zm-73.561,0v1.6h5.455v-1.6Zm73.561-2.467v1.6h4.8v-1.6Zm-73.561,0v1.6h5.455v-1.6Zm73.561-2.558v1.6h4.8v-1.6Zm-73.561,0v1.6h5.455v-1.6Zm73.561-2.516V539h4.8v-1.6Zm-73.561,0V539h5.455v-1.6Zm73.561-2.466v1.6h4.8v-1.6Zm-73.561,0v1.6h5.455v-1.6Zm73.561-2.828v1.6h4.8v-1.6Zm-73.561,0v1.6h5.455v-1.6Zm65.593-.908v1.6h4.48v-1.6Zm-73.721,0v1.6h4.8v-1.6Zm81.69-1.56v1.6h4.8v-1.6Zm-73.561,0v1.6h5.455v-1.6Zm65.593-.906v1.6h4.48v-1.6Zm-73.721,0v1.6h4.8v-1.6Zm81.69-1.651v1.6h4.8v-1.6Zm-73.561,0v1.6h5.455v-1.6Zm19.29-1.8v2.638h9.6v-2.638Zm46.3.9v1.6h4.48v-1.6Zm-73.721,0v1.6h4.8v-1.6Zm81.69-1.61v1.6h4.8v-1.6Zm-73.561,0v1.6h5.455v-1.6Zm65.593-.907v1.6h4.48v-1.6Zm-73.721,0v1.6h4.8v-1.6Zm81.69-1.557v1.6h4.8v-1.6Zm-73.561,0v1.6h5.455v-1.6Zm65.593-.907v1.6h4.48v-1.6Zm-73.721,0v1.6h4.8v-1.6Zm81.69-1.666v1.6h4.8v-1.6Zm-73.561,0v1.6h5.455v-1.6Zm65.593-1.049v1.6h4.48v-1.6Zm7.969-1.417v1.6h4.8v-1.6Zm-73.561,0v1.6h5.455v-1.6ZM1757.646,516v1.6h4.48V516Zm-65.593-1.506v1.6h5.455v-1.6Zm65.593-1.05v1.6h4.48v-1.6Zm-65.593-1.466v1.6h5.455v-1.6Zm65.593-1.05v1.6h4.48v-1.6Zm-65.593-1.415v1.6h5.455v-1.6Zm65.593-1.05v1.6h4.48v-1.6Z" transform="translate(-1553.126 -441.305)"/><path class="d" d="M1704.835,511.234h-9.6V508.6h9.6Z" transform="translate(-1537.017 -441.106)"/><path class="d" d="M1704.835,514.635h-9.6V512h9.6Z" transform="translate(-1537.017 -440.448)"/><path class="d" d="M1704.835,518.107h-9.6V515.47h9.6Z" transform="translate(-1537.017 -439.776)"/><path class="d" d="M1704.835,521.635h-9.6V519h9.6Z" transform="translate(-1537.017 -439.094)"/><rect class="e" width="9.601" height="2.637" transform="translate(158.217 83.966)"/><rect class="e" width="4.48" height="1.601" transform="translate(204.52 67.161)"/><rect class="e" width="4.48" height="1.601" transform="translate(204.52 69.626)"/><rect class="e" width="4.48" height="1.601" transform="translate(204.52 72.143)"/><rect class="e" width="4.48" height="1.602" transform="translate(204.52 74.699)"/><rect class="e" width="4.48" height="1.601" transform="translate(204.52 77.167)"/><rect class="e" width="4.48" height="1.601" transform="translate(204.52 79.881)"/><rect class="e" width="4.48" height="1.601" transform="translate(204.52 82.347)"/><rect class="e" width="4.48" height="1.601" transform="translate(204.52 84.863)"/><rect class="e" width="4.48" height="1.601" transform="translate(204.52 87.42)"/><rect class="e" width="4.48" height="1.601" transform="translate(204.52 89.887)"/><path class="d" d="M1745.51,510.8h-4.8v-1.6h4.8Z" transform="translate(-1528.22 -440.989)"/><path class="d" d="M1745.51,512.867h-4.8v-1.6h4.8Z" transform="translate(-1528.22 -440.59)"/><path class="d" d="M1745.51,514.976h-4.8v-1.6h4.8Z" transform="translate(-1528.22 -440.182)"/><rect class="e" width="4.801" height="1.602" transform="translate(212.489 75.749)"/><rect class="e" width="4.801" height="1.602" transform="translate(212.489 78.216)"/><rect class="e" width="4.801" height="1.602" transform="translate(212.489 80.788)"/><rect class="e" width="4.801" height="1.602" transform="translate(212.489 83.253)"/><rect class="e" width="4.801" height="1.602" transform="translate(212.489 85.77)"/><rect class="e" width="4.801" height="1.602" transform="translate(212.489 88.327)"/><rect class="e" width="4.801" height="1.601" transform="translate(212.489 90.794)"/><rect class="e" width="4.801" height="1.601" transform="translate(212.489 93.623)"/><rect class="e" width="4.801" height="1.602" transform="translate(212.489 96.088)"/><rect class="e" width="4.801" height="1.602" transform="translate(212.489 98.605)"/><rect class="e" width="4.801" height="1.602" transform="translate(212.489 101.161)"/><rect class="e" width="4.801" height="1.602" transform="translate(212.489 103.628)"/><rect class="e" width="9.335" height="2.637" transform="translate(81.569 67.491)"/><rect class="e" width="9.335" height="2.637" transform="translate(81.569 71.464)"/><rect class="e" width="9.335" height="2.637" transform="translate(81.569 75.608)"/><rect class="e" width="9.335" height="2.637" transform="translate(81.569 79.818)"/><path class="d" d="M1640.346,524.967h-9.335v-2.638h9.335Z" transform="translate(-1549.441 -438.449)"/><path class="d" d="M1677.061,509.921h-4.8v-1.6h4.8Z" transform="translate(-1541.462 -441.159)"/><path class="d" d="M1677.061,511.987h-4.8v-1.6h4.8Z" transform="translate(-1541.462 -440.76)"/><path class="d" d="M1677.061,514.1h-4.8v-1.6h4.8Z" transform="translate(-1541.462 -440.352)"/><path class="d" d="M1677.061,516.238h-4.8v-1.6h4.8Z" transform="translate(-1541.462 -439.937)"/><path class="d" d="M1677.061,518.3h-4.8v-1.6h4.8Z" transform="translate(-1541.462 -439.537)"/><rect class="e" width="4.801" height="1.601" transform="translate(130.798 79.881)"/><rect class="e" width="4.801" height="1.601" transform="translate(130.798 82.347)"/><rect class="e" width="4.801" height="1.601" transform="translate(130.798 84.863)"/><rect class="e" width="4.801" height="1.601" transform="translate(130.798 87.42)"/><rect class="e" width="4.801" height="1.601" transform="translate(130.798 89.887)"/><rect class="e" width="5.456" height="1.602" transform="translate(138.927 68.211)"/><rect class="e" width="5.456" height="1.601" transform="translate(138.927 70.676)"/><rect class="e" width="5.456" height="1.601" transform="translate(138.927 73.193)"/><rect class="e" width="5.456" height="1.602" transform="translate(138.927 75.749)"/><rect class="e" width="5.456" height="1.602" transform="translate(138.927 78.216)"/><rect class="e" width="5.456" height="1.602" transform="translate(138.927 80.788)"/><rect class="e" width="5.456" height="1.602" transform="translate(138.927 83.253)"/><rect class="e" width="5.456" height="1.602" transform="translate(138.927 85.77)"/><rect class="e" width="5.456" height="1.602" transform="translate(138.927 88.327)"/><rect class="e" width="5.456" height="1.601" transform="translate(138.927 90.794)"/><rect class="e" width="5.456" height="1.601" transform="translate(138.927 93.623)"/><rect class="e" width="5.456" height="1.602" transform="translate(138.927 96.088)"/><rect class="e" width="5.456" height="1.602" transform="translate(138.927 98.605)"/><rect class="e" width="5.456" height="1.602" transform="translate(138.927 101.161)"/><rect class="e" width="5.456" height="1.602" transform="translate(138.927 103.628)"/><path class="f" d="M1739.272,541.937s-12.937-1.266-17.02,6.267-16.452-5.875-23.768-6.817-15.156,4.142-15.677,7.773-22.219-6.411-33.048,10.16l89.66-.279Z" transform="translate(-1545.814 -434.785)"/><path class="g" d="M1791.784,550.012a74.073,74.073,0,0,1-4.366,7.473l-.518.8c-.928,1.442-4.465,4.614-11.927,8.353-11.994,6.009-34.131,13.482-71.886,17.578-14.844,1.611-35.907,2.345-57.066,1.6q-1.14-.04-2.284-.086-.874-.034-1.749-.074-1.389-.061-2.775-.13-1.6-.082-3.19-.173-.875-.052-1.748-.106c-18.812-1.176-36.787-3.627-49.51-7.786-8.118-2.654-17.421-14.561-17.421-14.561q-1.872-3.557-3.258-6.813l-.014-.039q-.313-.929-.561-1.816a336.719,336.719,0,0,1,55.629,2.951C1653,561.7,1758.335,546.738,1791.784,550.012Z" transform="translate(-1562.499 -433.186)"/><path class="h" d="M1651.8,575.882s-1.511-6.435,8.063-6.743c18.329-.59,5.595-10.859,20.835-9.434s23.846-25.064,18.434-25.194-13.917-1.535-11.881-13.9,10.854-9.71,13.757-15.028,6.89-11.741,17.3-10.523,15.012,5.838,14.621,17.406-7.054,63.42-7.054,63.42Z" transform="translate(-1545.436 -443.754)"/><path class="i" d="M1642.281,498.224a6.01,6.01,0,0,1,5.859-3.133s6-5.875,12.39-.783c0,0,6.8-1.261,11.833,1.092a11.254,11.254,0,0,1,4.463,3.216Z" transform="translate(-1547.261 -444.271)"/><path class="i" d="M1623.586,485.491a7.224,7.224,0,0,1,7.014-3.592s7.181-6.738,14.838-.9c0,0,8.141-1.448,14.169,1.253,4.02,1.8,5.347,3.687,5.347,3.687Z" transform="translate(-1550.877 -446.905)"/><path class="h" d="M1659.2,560.541h-93.844c-.061-.125-.118-.253-.175-.377q-.491-1.069-.933-2.105l-.014-.039q-.313-.929-.561-1.816c-.1-.366-.193-.727-.279-1.083a25.649,25.649,0,0,1-.715-4.987q-.016-.4-.018-.791c0-.8.046-1.571.123-2.322q.093-.9.252-1.757c.01-.06.02-.119.033-.179q.147-.766.34-1.507c.039-.155.081-.307.123-.46q.215-.763.471-1.5l.05.01c11.309,2.161,22.961-4.354,36.91-1.557,17.374,3.484,22.993,16.336,28.588,14.407S1658.747,552.546,1659.2,560.541Z" transform="translate(-1562.663 -435.155)"/><rect class="j" width="43.102" height="60.435" transform="translate(156.876 71.75)"/><path class="k" d="M1764.585,526.034a45.331,45.331,0,0,1,.448,12.917,54.233,54.233,0,0,1-4.847,16.991q-.277.6-.562,1.18l-.091.184a81.572,81.572,0,0,1-4.884,8.275c-.821,1.275-3.685,3.907-9.506,7.087h-14.916V512.23l.456-.006,22.515-.306,6.328-.085a50.344,50.344,0,0,1,2.675,5.771q.088.224.17.448c.033.086.064.171.1.255q.605,1.634,1.067,3.247.224.772.414,1.538C1764.2,524.082,1764.408,525.062,1764.585,526.034Z" transform="translate(-1530.248 -440.48)"/><path class="l" d="M1744.081,491.147q1.726,1.053,3.444,2.3l-4.6,9.472-6.469,13.315-1.472,3.031-.456.936h-42.9l2.969-3.844.1-.124,19.189-25.109.115.107,12.933-.039,17.149-.052Z" transform="translate(-1537.716 -444.485)"/><path class="m" d="M1747.251,493.445q.62.451,1.24.93l-4.594,9.457-6.02,12.4,0,.006-.452.933v0l-1.473,3.031h-42.906l1.275-1.651h0l1.788-2.315,18.429-23.867.876-1.136,11.246-.035,17.15-.051Q1745.532,492.2,1747.251,493.445Z" transform="translate(-1537.441 -444.482)"/><path class="n" d="M1766.328,522.314l-32.24-.484h0l-.8-.012-1.21-1.615-.7-.936-2.273-3.031-17.9-23.867-.836-1.112-.1-.13,12.96,0h17.22l.017.01.007,0q1.726,1.053,3.444,2.3.62.451,1.24.93,1.18.911,2.358,1.926a69.053,69.053,0,0,1,7.694,7.839q.532.628,1.059,1.281v0c.172.209.341.42.511.635q.773.972,1.542,2c.436.584.87,1.176,1.306,1.785a56.6,56.6,0,0,1,3.759,6,50.344,50.344,0,0,1,2.675,5.771q.088.224.17.448C1766.266,522.145,1766.3,522.229,1766.328,522.314Z" transform="translate(-1534.109 -444.485)"/><path class="o" d="M1760.1,515.839a50.344,50.344,0,0,1,2.675,5.771l-35.485-30.478h9.872l.017.01.007,0q1.726,1.053,3.444,2.3.62.451,1.24.93,1.18.911,2.358,1.926a69.053,69.053,0,0,1,7.694,7.839q.532.628,1.059,1.281v0c.172.209.341.42.511.635q.773.972,1.542,2c.436.584.87,1.176,1.306,1.785A56.6,56.6,0,0,1,1760.1,515.839Z" transform="translate(-1530.817 -444.484)"/><path class="p" d="M1706.028,506.521h-.618a3.805,3.805,0,0,0-3.8,3.8v9.669h8.1V510.2A3.682,3.682,0,0,0,1706.028,506.521Z" transform="translate(-1535.785 -441.507)"/><path class="k" d="M1705.916,519.8v-8.834h3.6V519.8Zm-4.037-8.834h3.43V519.8h-3.43v-8.834Zm3.569-4.166h.618a3.448,3.448,0,0,1,3.444,3.445v.127h-7.633v0a3.574,3.574,0,0,1,3.569-3.568Zm.618-.471h-.618a4.045,4.045,0,0,0-4.041,4.04v9.9h8.576V510.241A3.921,3.921,0,0,0,1706.066,506.324Z" transform="translate(-1535.823 -441.545)"/><path class="p" d="M1716.567,506.521h-.618a3.806,3.806,0,0,0-3.8,3.8v9.669h8.1V510.2A3.682,3.682,0,0,0,1716.567,506.521Z" transform="translate(-1533.746 -441.507)"/><path class="k" d="M1716.455,519.8v-8.834h3.6V519.8Zm-4.036-8.834h3.429V519.8h-3.429v-8.834Zm3.568-4.166h.618a3.449,3.449,0,0,1,3.446,3.445v.127h-7.632v0a3.574,3.574,0,0,1,3.568-3.568Zm.618-.471h-.618a4.045,4.045,0,0,0-4.041,4.04v9.9h8.576V510.241A3.921,3.921,0,0,0,1716.605,506.324Z" transform="translate(-1533.785 -441.545)"/><path class="l" d="M1714.447,522.3,1704.392,543h-30.546l15.926-20.625Z" transform="translate(-1541.155 -438.456)"/><path class="m" d="M1715.214,522.3,1705.16,543h-30.546l15.925-20.625Z" transform="translate(-1541.006 -438.456)"/><path class="m" d="M1705.093,539.64v27.59l-30.479.059V539.64Z" transform="translate(-1541.006 -435.101)"/><rect class="q" width="25.81" height="27.59" transform="translate(164.086 104.539)"/><path class="n" d="M1731.306,544.207H1703.58l-16.389-21.849h8.259l18.991,0Z" transform="translate(-1538.573 -438.444)"/><path class="p" d="M1694.651,544.515v23.053h-12.84V544.726a6.525,6.525,0,0,1,6.527-6.526,6.315,6.315,0,0,1,6.313,6.315Z" transform="translate(-1539.614 -435.379)"/><path class="o" d="M1728.517,544.207h-1.809l-25.1-21.848,10.047,0Z" transform="translate(-1535.785 -438.444)"/><path class="k" d="M1688.151,538.877h0a5.546,5.546,0,0,0-5.547,5.546v22.1h10.917V544.243A5.366,5.366,0,0,0,1688.151,538.877Z" transform="translate(-1539.461 -435.248)"/><path class="m" d="M1692.675,544.188v.192h-9.438v-.037a4.8,4.8,0,0,1,4.8-4.8h0A4.64,4.64,0,0,1,1692.675,544.188Z" transform="translate(-1539.338 -435.118)"/><path class="p" d="M1683.468,544.215a4.583,4.583,0,0,1,1.471-3.212c.1-.09.2-.174.3-.254a4.584,4.584,0,0,1,2.828-.973,4.411,4.411,0,0,1,2.645.874c.106.079.206.161.305.249a4.433,4.433,0,0,1,1.494,3.315Zm4.6-4.832a5,5,0,0,0-4.992,4.992v.234h9.83v-.389A4.843,4.843,0,0,0,1688.065,539.383Z" transform="translate(-1539.37 -435.15)"/><path class="p" d="M1689.882,553.258a.337.337,0,1,1,.338.337A.338.338,0,0,1,1689.882,553.258Z" transform="translate(-1538.053 -432.531)"/><path class="p" d="M1690.861,540.55l-.126.169-2.479,3.316-.294.393h-.188l-.34-.393-2.775-3.211-.132-.153.3-.257.133.155,2.895,3.35,2.579-3.448.116-.157Z" transform="translate(-1539.089 -434.97)"/><rect class="r" width="12.089" height="0.898" transform="translate(142.831 109.955)"/><path class="p" d="M1683.379,564.273h9.139V545.735h-9.139v18.538Zm9.238.1h-9.337V545.636h9.337Z" transform="translate(-1539.33 -433.941)"/><path class="s" d="M1758.893,556.2l-.518.8c-.928,1.442-4.465,4.614-11.927,8.353h-35.482a8.83,8.83,0,0,1,4.455-6.725,12.132,12.132,0,0,1,1.277-.653c.135-.06.273-.119.414-.175q.36-.145.734-.276c.211-.073.425-.142.642-.208q.725-.218,1.5-.387a39.52,39.52,0,0,1,11.1-.458c5.467.418,7.961,2.713,15.122,2.319A57.524,57.524,0,0,0,1758.893,556.2Z" transform="translate(-1533.974 -431.898)"/><path class="s" d="M1718.1,560.619s-2.679-9.81-4.726-9.293S1718.1,560.619,1718.1,560.619Z" transform="translate(-1533.583 -432.844)"/><path class="s" d="M1719.391,560.9s-6.921-7.451-8.5-6.045S1719.391,560.9,1719.391,560.9Z" transform="translate(-1534.02 -432.191)"/><path class="s" d="M1718.946,562.947s.443-10.16-1.665-10.292S1718.946,562.947,1718.946,562.947Z" transform="translate(-1532.876 -432.583)"/><path class="h" d="M1705.9,565.73h-4.609c-.246-.21.172-.686.609-.717a2.713,2.713,0,0,1,.7.082c.063-.841.425-4.629,1.79-4.477,1.535.171,0,1.668-.433,2.554a21.144,21.144,0,0,0-.816,2.043c.125.026.254.052.387.078.2-.625.959-2.726,1.921-2.6,1.132.143.677.986-.124,1.486-.588.368-1.31.89-1.653,1.143a4.889,4.889,0,0,0,.9.072A1.943,1.943,0,0,1,1705.9,565.73Z" transform="translate(-1535.859 -431.043)"/><path class="h" d="M1643.332,565.146s-2.5-6.875-4.262-6.289S1643.332,565.146,1643.332,565.146Z" transform="translate(-1547.944 -431.39)"/><path class="h" d="M1642.513,564.646c-.214,0-4.209-4.146-4.475-3.06S1642.513,564.646,1642.513,564.646Z" transform="translate(-1548.084 -430.89)"/><path class="h" d="M1646.983,564.313a4.766,4.766,0,0,0-3.745-1.121c-2.092.4-2.986.827-4.3.529a1.944,1.944,0,0,0-1.985.592Z" transform="translate(-1548.292 -430.557)"/><path class="t" d="M1650.937,516.327c-.014.1-.231.285-.588.5l-.021-.06-.013-.016c-.013-.013-.013-.013-.013-.041-.051-.109-.129-.218-.193-.368l-.041-.042a2.268,2.268,0,0,0-.272-.339C1650.439,516.006,1650.969,516.1,1650.937,516.327Z" transform="translate(-1545.807 -439.681)"/><path class="a" d="M1610.122,485.327a3.025,3.025,0,0,0,2.49,1.013,2.21,2.21,0,0,0,1.852-1.223A8.074,8.074,0,0,0,1610.122,485.327Z" transform="translate(-1553.482 -445.688)"/><path class="h" d="M1629.718,581.265q-1.389-.061-2.775-.13c1.429-2.82,5.132-9.643,7.114-8.809C1635.938,573.118,1631.836,578.621,1629.718,581.265Z" transform="translate(-1550.228 -428.791)"/><path class="h" d="M1633.017,580.584q-1.14-.039-2.284-.086c.942-1.376,3.058-4.146,4.688-3.873C1636.867,576.868,1634.646,579.122,1633.017,580.584Z" transform="translate(-1549.495 -427.95)"/><path class="h" d="M1624.553,580.848q-.875-.052-1.748-.106c.024-1.664.236-7.427,2.028-7.874C1626.581,572.431,1625.1,578.739,1624.553,580.848Z" transform="translate(-1551.028 -428.677)"/></g><path class="h" d="M1637.163,567.351c-22,0-39.829-3.213-39.829-7.177,0-1.933,4.244-3.689,11.144-4.979,1.092,3.27,3.135,4.253,4.436,4.539a5.636,5.636,0,0,0,1.209.128c3.175,0,6.806-2.486,9.037-6.33.012-.02.026-.048.045-.082,4.344-.292,9.046-.453,13.957-.453,4.059,0,7.975.11,11.663.313,2.579,5.174,5.381,7.854,8.274,7.854l.14,0c2.589-.076,4.866-2.227,6.726-6.3,8,1.313,13.025,3.206,13.025,5.31C1676.992,564.138,1659.16,567.351,1637.163,567.351Z" transform="translate(6.707 20.834)"/><path class="u" d="M1696.118,490.5a15.368,15.368,0,0,1-3.525,6.566,30.235,30.235,0,0,1-5.829,5.113c-4.255,3.016-13.908,9.651-21.525,13.334.065.384.126.77.183,1.16l0,.008a127.675,127.675,0,0,1,.281,31.716c-.393,3.528-.913,6.889-1.54,9.951-.185.907-.381,1.79-.586,2.641-4.167,17.236-12.549,18.34-19.329-3.833a32.679,32.679,0,0,1-16.429-1.345c-3.794,3.678-7.054,10.382-7.366,10.921-3.854,6.645-12.508,9.3-13.5-1.21a29.956,29.956,0,0,1,0-3.845,47,47,0,0,1,2.116-11.015,39.767,39.767,0,0,0,1.707-8.889,41.587,41.587,0,0,0-.27-8.9q-.448-3.249-.705-6.6l8.686-8.384,4.325-4.173,10.211-9.857,36.4-16.411q1.19-.646,2.344-1.21c13.208-6.423,22.785-4.591,24.3,1.043a5.842,5.842,0,0,1,.155.794A7.417,7.417,0,0,1,1696.118,490.5Z" transform="translate(8.557 7.135)"/><path class="v" d="M1681.783,487.461c-.008-.113-.02-.226-.035-.337h0C1681.762,487.234,1681.774,487.347,1681.783,487.461Z" transform="translate(23.037 8.091)"/><path class="w" d="M1681.747,488.95c-.017-.092-.036-.181-.056-.272.029-.631.051-1.167.068-1.554h0c.014.111.026.223.035.337A7.232,7.232,0,0,1,1681.747,488.95Z" transform="translate(23.025 8.091)"/><path class="v" d="M1682.223,486.535a7.022,7.022,0,0,0-4.893-3.907A7.017,7.017,0,0,1,1682.223,486.535Z" transform="translate(22.182 7.222)"/><path class="w" d="M1661.4,488.346q-.041-1.031-.147-2.1c5.833-2.837,10.96-4.065,15-4.065a15.307,15.307,0,0,1,4.188.533,7.022,7.022,0,0,1,4.893,3.907,5.6,5.6,0,0,1,.223.665,3.8,3.8,0,0,0-1.475-.434c-1.611-1.594-4.292-2.518-7.791-2.518C1672.28,484.334,1667.192,485.547,1661.4,488.346Z" transform="translate(19.072 7.135)"/><path class="x" d="M1665.232,544.01l0,.008c-18.287,12.172-44.313,12.97-54.919-6.633a41.587,41.587,0,0,0-.27-8.9c-.013-.086-.023-.169-.033-.255q-.424-3.124-.672-6.342l13.011-12.557,18.846-3.438a35.109,35.109,0,0,1,7.405-1c5.553-.164,12.792,1.017,16.351,7.392l0,.008A127.675,127.675,0,0,1,1665.232,544.01Z" transform="translate(9.029 11.526)"/><path class="y" d="M1658.7,514.3c-.278-1.627-.6-3.209-.973-4.733a.99.99,0,0,0-.96-.754.939.939,0,0,0-.235.029.971.971,0,0,0-.459.255l-.258-.938a30.985,30.985,0,0,1-3.307,2.484,19.391,19.391,0,0,0-7.042-1.987,34.91,34.91,0,0,0,9.705-6.349,24.809,24.809,0,0,0,7.531-13.833q.886-.465,1.75-.884a25.153,25.153,0,0,1-4.376,15.9c10.108-2.98,17.335-7.961,21.087-13.48,2.167-3.189,4.2-3.93,5.619-3.93.12,0,.238.006.35.014a5.7,5.7,0,0,1,1.563,2.782c-.013.273-.028.564-.042.869h0a15.368,15.368,0,0,1-3.525,6.566,30.235,30.235,0,0,1-5.829,5.113C1675.219,504.322,1666.161,510.551,1658.7,514.3Z" transform="translate(16.019 7.89)"/><path class="z" d="M1681.773,487.251l0-.018a6.176,6.176,0,0,0-.153-.775c.118.067.182.112.182.112S1681.791,486.821,1681.773,487.251Z" transform="translate(23.011 7.963)"/><path class="y" d="M1685.918,487.4a5.824,5.824,0,0,0-.154-.775h0a6.176,6.176,0,0,1,.153.775Zm-25.737-1.172h0q.646-.335,1.281-.646v0C1661.039,485.794,1660.611,486.008,1660.181,486.231Z" transform="translate(18.864 7.794)"/><path class="aa" d="M1659.912,488.572q.208-1.148.321-2.342c.429-.223.858-.437,1.282-.643q.105,1.071.147,2.1Q1660.8,488.106,1659.912,488.572Z" transform="translate(18.813 7.794)"/><path class="ab" d="M1681.748,487.127h0l0-.019,0,.018Z" transform="translate(23.036 8.088)"/><path class="aa" d="M1681.944,488.877a5.7,5.7,0,0,0-1.563-2.782,3.781,3.781,0,0,1,1.475.434,5.824,5.824,0,0,1,.154.775l0,.019h0C1682,487.71,1681.973,488.246,1681.944,488.877Z" transform="translate(22.772 7.892)"/><path class="ac" d="M1610.83,528.092c-.273-2.023-.5-4.142-.667-6.3a1.129,1.129,0,0,0-.014-.112q.879-.19,1.8-.448a78.026,78.026,0,0,0,20.821-9.2q1.931-1.232,3.8-2.6l.25-.037A59.141,59.141,0,0,0,1652.3,505a19.391,19.391,0,0,1,7.042,1.987,49.142,49.142,0,0,1-17.731,6.65,75.461,75.461,0,0,1-27.051,13.667A27.981,27.981,0,0,1,1610.83,528.092Z" transform="translate(9.186 11.549)"/><path class="u" d="M1637.649,455.688c12.406-16.415,39.325-.388,21.949,19.809Z" transform="translate(14.506 0.698)"/><path class="z" d="M1660.406,457.355c-.078-.264-.163-.525-.255-.779l.06-.078C1660.283,456.775,1660.349,457.061,1660.406,457.355Z" transform="translate(18.859 2.167)"/><path class="y" d="M1658.188,472.371a39.055,39.055,0,0,0-6.535-9.779,11.7,11.7,0,0,0,9.434-5.092,12.622,12.622,0,0,1,1.233,3.083,20.87,20.87,0,0,1-4.132,11.789Zm4-14.145c-.039-.3-.086-.6-.142-.884-.078-.264-.162-.525-.255-.779-.03.038-.061.079-.092.121A12.489,12.489,0,0,1,1662.192,458.227Z" transform="translate(17.215 2.18)"/><path class="v" d="M1660.8,461.085l-.018-.113q.018-.379.017-.751C1660.808,460.505,1660.808,460.794,1660.8,461.085Z" transform="translate(18.981 2.887)"/><path class="w" d="M1664.958,463.1q-.091-.559-.228-1.1a16.2,16.2,0,0,0-.127-2.356,13.01,13.01,0,0,1,.372,2.7c0,.247,0,.5-.017.751Zm-1.461-4.179a14.911,14.911,0,0,0-13-7.269,15.535,15.535,0,0,0-9.285,3.083q-1-.444-2.022-.826a15.773,15.773,0,0,1,11.161-4.684c6.005,0,11.653,3.471,13.758,8.88C1663.938,458.337,1663.732,458.614,1663.5,458.92Z" transform="translate(14.805 0.76)"/><path class="ad" d="M1660.791,460.563a12.632,12.632,0,0,0-1.233-3.083c.235-.305.439-.582.616-.816a12.447,12.447,0,0,1,.489,1.543A16,16,0,0,1,1660.791,460.563Z" transform="translate(18.744 2.199)"/><path class="ae" d="M1659.758,476.646a.989.989,0,0,1-.748-1.633c4.893-5.687,6.558-11.57,4.69-16.566a13.346,13.346,0,0,0-10.778-8.242c-5.5-.8-10.722,1.473-14.325,6.239a.988.988,0,1,1-1.575-1.192c4.049-5.359,9.952-7.91,16.186-7a15.319,15.319,0,0,1,12.344,9.506c2.132,5.7.341,12.289-5.043,18.547A.988.988,0,0,1,1659.758,476.646Z" transform="translate(14.346 0.536)"/><path class="u" d="M1613.312,459.453c-18.569-13.825-35.407,14.052-13.492,25.2Z" transform="translate(5.182 2.01)"/><path class="y" d="M1598.884,482.161c-5.36-3-8.18-7.049-9.094-11.154a14.4,14.4,0,0,1,.491-4.374,12.77,12.77,0,0,0,8.036,3.165,11.2,11.2,0,0,0,4.678-1.051,39.391,39.391,0,0,0-4.111,13.414Zm-9.427-13.809a14.342,14.342,0,0,1,.126-2.369l.055.056A14.311,14.311,0,0,0,1589.457,468.352Z" transform="translate(5.182 4.002)"/><path class="v" d="M1589.818,471.093a14.074,14.074,0,0,1-.36-3.077,14.042,14.042,0,0,0,.332,2.605C1589.8,470.778,1589.8,470.935,1589.818,471.093Z" transform="translate(5.183 4.395)"/><path class="w" d="M1589.789,472.944a14.042,14.042,0,0,1-.332-2.605v-.057a14.059,14.059,0,0,0,.333,2.655v.007Zm.492-4.381c-.329-.282-.548-.5-.643-.594,1.042-6.5,6.466-11.961,13.467-11.961a16.55,16.55,0,0,1,9.137,3.008c-.434.369-.862.75-1.279,1.137a15.769,15.769,0,0,0-7.539-2.046A13.813,13.813,0,0,0,1590.281,468.563Z" transform="translate(5.183 2.072)"/><path class="ad" d="M1589.789,471a14.047,14.047,0,0,1-.333-2.655,14.311,14.311,0,0,1,.181-2.313c.1.1.314.313.643.594A14.4,14.4,0,0,0,1589.789,471Z" transform="translate(5.183 4.011)"/><path class="x" d="M1670.942,484.449c3.158,20.725-11.87,31.155-31.9,34.205s-37.483-2.432-40.639-23.159,10.524-40,30.557-43.05S1667.786,463.722,1670.942,484.449Z" transform="translate(6.826 1.304)"/><path class="ae" d="M1634.4,452.187a35.86,35.86,0,0,0-5.4.411c-19.927,3.035-33.585,22.28-30.445,42.9,1.479,9.71,6.162,16.572,13.919,20.4,6.788,3.349,15.975,4.264,26.569,2.652s19.091-5.224,24.575-10.44c6.268-5.96,8.7-13.906,7.217-23.616a38.256,38.256,0,0,0-14.614-24.832,35.859,35.859,0,0,0-21.821-7.471Zm-5.084,67.4a38.382,38.382,0,0,1-16.96-3.453c-7.839-3.866-12.57-10.795-14.062-20.6-3.163-20.765,10.594-40.145,30.666-43.2a35.979,35.979,0,0,1,27.423,7.11,38.523,38.523,0,0,1,14.715,25c1.492,9.8-.963,17.824-7.3,23.847-5.525,5.254-14.072,8.889-24.719,10.51A65.09,65.09,0,0,1,1629.314,519.586Z" transform="translate(6.805 1.282)"/><path class="ac" d="M1642.071,512.347q.576-.478,1.145-.97a22.478,22.478,0,0,0,3.1-3.617l.009-.011v0c2.105-3.135,2.47-5.941,1.621-8.129,11.6-3.967,19.923-11.383,21.185-23.088q.4,1.64.655,3.33c1.435,9.416-.907,17.11-6.96,22.868-4.768,4.535-11.9,7.831-20.754,9.62Zm-36.191-6.934c-3.511-3.731-5.75-8.681-6.682-14.8q-.213-1.389-.32-2.768c3.234,7.007,8.841,11.31,15.84,13.47-1.9.759-3.757,1.574-5.59,2.456Q1607.492,504.554,1605.88,505.413Z" transform="translate(7.006 6.042)"/><path class="ae" d="M1634.534,453.181a34.9,34.9,0,0,0-5.269.4c-19.462,2.963-32.8,21.772-29.728,41.926,1.433,9.416,5.959,16.064,13.451,19.758,6.631,3.27,15.644,4.16,26.063,2.573s18.756-5.119,24.114-10.214c6.053-5.757,8.395-13.451,6.96-22.868a37.4,37.4,0,0,0-14.287-24.281,35.012,35.012,0,0,0-21.3-7.3Zm-5.077,67.4a39.23,39.23,0,0,1-17.343-3.541c-8.1-4-12.993-11.14-14.53-21.233-3.233-21.231,10.845-41.049,31.384-44.177a36.825,36.825,0,0,1,28.069,7.276,39.364,39.364,0,0,1,15.042,25.555c1.537,10.093-1,18.368-7.551,24.6-5.652,5.375-14.36,9.088-25.181,10.736A65.9,65.9,0,0,1,1629.457,520.579Z" transform="translate(6.666 1.143)"/><path class="ae" d="M1599.979,485.8a.993.993,0,0,1-.448-.109c-6.954-3.537-10.931-9.246-10.908-15.664a15.42,15.42,0,0,1,8.356-13.689c5.226-2.615,11.454-1.71,17.082,2.482a.988.988,0,1,1-1.179,1.585c-5.083-3.786-10.417-4.6-15.018-2.3a13.428,13.428,0,0,0-7.266,11.927c-.011,3.318,1.251,9.534,9.829,13.9a.988.988,0,0,1-.449,1.869Z" transform="translate(5.022 1.852)"/><path class="x" d="M1620.851,456.554c0-11.378,11.354-9.179,7.526-1.66Z" transform="translate(11.256 0.646)"/><path class="ae" d="M1621,456.576h-.265c0-3.955,1.432-6.865,3.825-7.784a3.491,3.491,0,0,1,3.889.8c1.137,1.263,1.16,3.225.062,5.381l-.236-.121c1.046-2.054,1.037-3.906-.023-5.083a3.225,3.225,0,0,0-3.6-.734C1622.373,449.917,1621.006,452.735,1621,456.576Z" transform="translate(11.235 0.625)"/><path class="x" d="M1627.72,452.7c4.429-5.6,9.949.806,2.605,3.529Z" transform="translate(12.585 1.001)"/><path class="ae" d="M1630.39,456.373l-.093-.248c2.207-.819,3.513-2.118,3.494-3.475a2.04,2.04,0,0,0-1.444-1.887c-1.429-.486-3.113.277-4.508,2.04l-.206-.165c1.465-1.855,3.259-2.649,4.8-2.126a2.3,2.3,0,0,1,1.623,2.134C1634.076,454.119,1632.706,455.513,1630.39,456.373Z" transform="translate(12.568 0.978)"/><path class="ae" d="M1633.276,460.067a4.968,4.968,0,0,1-3.1-1.292.789.789,0,1,1,1.008-1.213c1.055.877,2.106,1.154,2.815.739a1.1,1.1,0,0,0,.537-1.161c-.16-.864-1.2-1.536-2.776-1.8a.789.789,0,0,1,.256-1.556c2.263.374,3.784,1.519,4.07,3.065a2.665,2.665,0,0,1-1.291,2.811A2.986,2.986,0,0,1,1633.276,460.067Z" transform="translate(13.006 1.64)"/><path class="ae" d="M1621,457.614h0a.912.912,0,0,1-.912-.912c0-4.29,1.618-7.472,4.326-8.512a4.26,4.26,0,0,1,4.746,1.01c1.346,1.494,1.412,3.832.178,6.256a.912.912,0,0,1-1.626-.828c.89-1.75.925-3.283.092-4.207a2.454,2.454,0,0,0-2.738-.527c-1.974.758-3.154,3.3-3.154,6.809A.913.913,0,0,1,1621,457.614Z" transform="translate(11.108 0.498)"/><path class="ae" d="M1630.473,457.287a.912.912,0,0,1-.316-1.768c2.219-.822,3-1.951,2.986-2.733a1.256,1.256,0,0,0-.915-1.16c-.852-.288-2.256.029-3.645,1.785a.912.912,0,1,1-1.431-1.131c1.68-2.124,3.8-3.015,5.663-2.381a3.074,3.074,0,0,1,2.153,2.862c.012.874-.371,3.058-4.176,4.468A.9.9,0,0,1,1630.473,457.287Z" transform="translate(12.437 0.852)"/><path class="ae" d="M1633.3,460.21a5.091,5.091,0,0,1-3.176-1.32.913.913,0,0,1,1.167-1.4c1.013.843,2.012,1.115,2.673.728a.97.97,0,0,0,.479-1.034c-.116-.625-.88-1.4-2.675-1.7a.912.912,0,1,1,.3-1.8c2.317.383,3.875,1.566,4.171,3.164a2.788,2.788,0,0,1-1.35,2.939A3.107,3.107,0,0,1,1633.3,460.21Z" transform="translate(12.986 1.62)"/><path class="u" d="M1622.363,481.7c-3.2,3.553-4.61,8.4-4.681,14.231a3.937,3.937,0,0,1-2.6,3.634c-7.718,2.823-15.177-4.856-12.736-15.1,3.247-13.265,16.609-13.888,20.469-7.329A3.892,3.892,0,0,1,1622.363,481.7Z" transform="translate(7.585 5.373)"/><path class="u" d="M1629.585,480.453c4.153,2.365,7.022,6.523,8.925,12.032a3.935,3.935,0,0,0,3.611,2.629c8.216.248,12.877-9.388,7.335-18.337-7.259-11.569-20.138-7.952-21.735-.512A3.894,3.894,0,0,0,1629.585,480.453Z" transform="translate(12.569 4.652)"/><path class="ae" d="M1629.665,485.513c.283,1.855-1.177,4.648-3.449,4.995s-4.5-1.887-4.781-3.741,1.485-2.632,3.757-2.978S1629.382,483.658,1629.665,485.513Z" transform="translate(11.363 7.42)"/><path class="ae" d="M1626.456,488.387l-.2,3.309a.294.294,0,0,1-.568.087l-1.18-3.1a1.011,1.011,0,1,1,1.889-.72A1.046,1.046,0,0,1,1626.456,488.387Z" transform="translate(11.95 8.128)"/><path class="ae" d="M1636.854,485.073a5.51,5.51,0,0,1-5.293-3.189.988.988,0,1,1,1.821-.766c.75,1.778,2.923,2.269,4.682,1.834,1.3-.321,2.641-1.234,2.5-2.834a.988.988,0,0,1,1.969-.168c.2,2.34-1.369,4.271-4,4.921A7.059,7.059,0,0,1,1636.854,485.073Z" transform="translate(13.313 6.529)"/><path class="ae" d="M1612.747,488.971a4.6,4.6,0,0,1-4.792-3.434.988.988,0,1,1,1.921-.459c.372,1.561,1.931,2,3.269,1.9,1.807-.142,3.715-1.291,3.865-3.215a.988.988,0,1,1,1.969.154c-.236,3.029-3.036,4.824-5.679,5.032C1613.114,488.963,1612.929,488.971,1612.747,488.971Z" transform="translate(8.756 7.265)"/><path class="u" d="M1643.875,508.406c10.938-10.514,2.719-18.833-8.385-15.955-14.107,3.017-24.737,6.914-35.606,13.9-9.262,6.113-3.744,22.64,14.908,17.411A74.934,74.934,0,0,0,1643.875,508.406Z" transform="translate(6.348 9.011)"/><path class="z" d="M1608.026,520.978c-7.775,0-12.018-4.619-12.507-9.482.021.217.05.432.087.647h0v.008c.791,4.614,5,8.824,12.42,8.825.377,0,.764-.012,1.159-.033C1608.791,520.966,1608.4,520.978,1608.026,520.978Z" transform="translate(6.356 12.806)"/><path class="af" d="M1629.107,511.309q1.931-1.232,3.8-2.6h0Q1631.04,510.079,1629.107,511.309Z" transform="translate(12.853 12.266)"/><path class="af" d="M1635.069,507.287c.385-.319.766-.642,1.147-.971a22.5,22.5,0,0,0,3.1-3.616,22.478,22.478,0,0,1-3.1,3.617q-.569.492-1.145.97Zm4.254-4.6v0Z" transform="translate(14.007 11.102)"/><path class="ae" d="M1632.293,509.125q1.683-1.233,3.313-2.584h0q-1.631,1.35-3.313,2.584Z" transform="translate(13.47 11.848)"/><path class="y" d="M1608.013,524.268c-7.423,0-11.629-4.212-12.42-8.825a9.785,9.785,0,0,0,2.164,4.634h0a9.572,9.572,0,0,1-.961-5.282,13.621,13.621,0,0,0,9.04,2.965,25.128,25.128,0,0,0,6.757-1.008,74.937,74.937,0,0,0,29.083-15.357,17.207,17.207,0,0,0,4.738-6.9,7.778,7.778,0,0,1,2.121,1.544,6.138,6.138,0,0,0-.493-.951c1.462,2.3,1.381,5.521-1.083,9.19v0l-.009.011a22.512,22.512,0,0,1-3.1,3.616c-.381.329-.761.653-1.147.971q-1.631,1.352-3.313,2.584-1.869,1.373-3.8,2.6a78.069,78.069,0,0,1-20.822,9.2q-.924.258-1.8.448a.986.986,0,0,0-.965-.8l-.08,0a.99.99,0,0,0-.909,1.062l.007.079q-.951.133-1.844.181c-.4.021-.781.033-1.159.033Zm-12.42-8.834h0Zm52.447-20.354,0-.006Z" transform="translate(6.37 9.516)"/><path class="v" d="M1595.527,512.519a9.343,9.343,0,0,1,1.637-6.313,9.334,9.334,0,0,0-1.684,5.192h0v.013A9.294,9.294,0,0,0,1595.527,512.519Z" transform="translate(6.348 11.783)"/><path class="x" d="M1612.151,498.294h0a122.759,122.759,0,0,1,20.113-5.892q.616-.159,1.219-.273-.6.115-1.219.273A122.759,122.759,0,0,0,1612.151,498.294Z" transform="translate(9.573 9.06)"/><path class="ag" d="M1607.467,499.751c1.833-.882,3.691-1.7,5.59-2.456h0C1611.158,498.054,1609.3,498.869,1607.467,499.751Z" transform="translate(8.667 10.059)"/><path class="x" d="M1637.745,493.127h0Zm-.017-.008,0,0,0,0Zm-.017-.01-.007,0,.007,0Zm-.009,0a10.042,10.042,0,0,0-2.387-.913,10.042,10.042,0,0,1,2.387.913Zm-2.389-.913-.017,0,.017,0Zm-.025-.007-.012,0,.012,0Zm-.024-.006h0Zm-.024,0h0Z" transform="translate(14.04 9.068)"/><path class="w" d="M1596.818,515.3a10.321,10.321,0,0,1-1.331-1.364c0,.079-.006.156-.007.234a9.334,9.334,0,0,1,1.684-5.192,10.035,10.035,0,0,1,2.719-2.622,91.633,91.633,0,0,1,9.9-5.557c1.833-.882,3.691-1.7,5.59-2.456a122.758,122.758,0,0,1,20.113-5.892q.616-.159,1.219-.273a16.723,16.723,0,0,1,3.109-.3,13.311,13.311,0,0,1,3.114.353h0l.017,0h.007l.012,0,.012,0,.008,0,.017,0h0a10.042,10.042,0,0,1,2.387.913h0l.007,0,.012.006,0,0,.014.007h0a7.15,7.15,0,0,1,2.622,2.4,6.639,6.639,0,0,0-1.371-1.544,9.7,9.7,0,0,1-.251.96,11.84,11.84,0,0,0-5.335-1.158,17.287,17.287,0,0,0-4.327.575c-14.107,3.016-24.734,6.914-35.605,13.9a9.526,9.526,0,0,0-4.351,6.985Zm-1.338-1.117v0Zm52.584-18.6,0,0Z" transform="translate(6.348 9.011)"/><path class="ah" d="M1595.615,512.334v0Zm0-.01c-.037-.215-.066-.43-.087-.647a9.294,9.294,0,0,1-.047-1.109,9.415,9.415,0,0,0,.134,1.756Zm-.134-1.769Z" transform="translate(6.348 12.624)"/><path class="ad" d="M1597.779,520.232a9.787,9.787,0,0,1-2.164-4.634v-.008h0a9.415,9.415,0,0,1-.134-1.756v-.013h0c0-.078,0-.155.007-.234a10.321,10.321,0,0,0,1.331,1.364,9.562,9.562,0,0,0,.961,5.282Zm50.779-24.043a7.776,7.776,0,0,0-2.121-1.544,9.7,9.7,0,0,0,.251-.96,6.639,6.639,0,0,1,1.371,1.544l0,.006,0,0A6.127,6.127,0,0,1,1648.557,496.189Z" transform="translate(6.348 9.361)"/><path class="ae" d="M1644.037,508.567h0Zm-4.086-15.534a16.247,16.247,0,0,0-4.05.535l-.042.011c-14.757,3.156-24.978,7.144-35.278,13.768a8.464,8.464,0,0,0-3.169,10.733c1.906,4.175,7.447,7.652,17.276,4.9a73.487,73.487,0,0,0,28.682-15.136c4.337-4.176,5.857-8.3,4.173-11.311-1.252-2.24-4.134-3.493-7.593-3.493Zm-31.758,32.882a16.879,16.879,0,0,1-5.74-.935,11.736,11.736,0,0,1-6.838-6.081,10.411,10.411,0,0,1,3.887-13.209c10.521-6.766,20.927-10.832,35.924-14.041,6.095-1.572,11.655,0,13.843,3.912,2.16,3.864.5,8.864-4.547,13.717-.012.012-.025.024-.038.035a75.4,75.4,0,0,1-29.459,15.562A26.18,26.18,0,0,1,1608.193,525.915Z" transform="translate(6.185 8.85)"/><path class="ae" d="M1655.943,516.665a.988.988,0,0,1-.432-1.877c7.655-3.7,17.5-10.5,21.384-13.252a29.454,29.454,0,0,0,5.643-4.938c3.512-4.2,4.4-8.176,2.382-10.646-3.01-3.676-12.329-3.987-24.319,2.53a.988.988,0,1,1-.944-1.736c5.964-3.241,11.712-5.095,16.622-5.36,4.606-.248,8.217.93,10.169,3.315,2.67,3.259,1.775,8.181-2.4,13.164a31.215,31.215,0,0,1-6.015,5.283c-3.92,2.78-13.88,9.653-21.667,13.418A.969.969,0,0,1,1655.943,516.665Z" transform="translate(17.853 6.975)"/><path class="ae" d="M1649.356,570.421c-4.333,0-8.461-6.014-11.946-17.412a.988.988,0,0,1,1.891-.576c3.071,10.042,6.824,16.012,10.059,16.014l.078,0c2.747-.081,5.471-4.614,7.286-12.123,3.16-13.195,4.4-34.6.655-49.967a.988.988,0,0,1,1.92-.468c3.819,15.675,2.561,37.469-.654,50.9-2.129,8.805-5.293,13.521-9.149,13.635Z" transform="translate(14.451 11.575)"/><path class="ae" d="M1612.433,566.572a5.639,5.639,0,0,1-1.209-.128c-1.661-.365-4.53-1.864-5.09-7.815a43.708,43.708,0,0,1,2.159-15.249,40.029,40.029,0,0,0,1.4-17.357c-.292-2.131-.532-4.37-.711-6.656a.988.988,0,0,1,1.97-.154c.175,2.246.411,4.447.7,6.54a42.032,42.032,0,0,1-1.474,18.219,41.722,41.722,0,0,0-2.074,14.5c.326,3.457,1.585,5.613,3.545,6.044,2.559.561,6.047-1.7,8.112-5.262.031-.054.1-.179.191-.363,2.56-4.907,5.03-8.532,7.342-10.772a.988.988,0,1,1,1.376,1.419c-2.16,2.093-4.5,5.548-6.966,10.268-.116.22-.195.37-.233.437C1619.239,564.086,1615.608,566.572,1612.433,566.572Z" transform="translate(8.397 14.123)"/><path class="ae" d="M1636.942,547.833h-.19c-5.319-.029-10.58-1.3-14.083-3.4a38.946,38.946,0,0,1-7.056-4.727.988.988,0,0,1,1.258-1.524,36.936,36.936,0,0,0,6.728,4.508l.061.033c5.595,3.372,18.718,5.33,29.116-1.171a.988.988,0,1,1,1.048,1.676A31.943,31.943,0,0,1,1636.942,547.833Z" transform="translate(10.174 17.925)"/><path class="y" d="M1612.139,560.132a3.856,3.856,0,0,1-.811-.085c-1.96-.431-3.219-2.586-3.545-6.044-.051-.761-.068-1.561-.05-2.393q2.037,2.726,4.021,2.728h.054q4.3-.081,8.362-12.944a35.3,35.3,0,0,0,3.956,2.376,17.7,17.7,0,0,0,1.823.949,48.729,48.729,0,0,0-6.319,9.7c-.1.184-.16.309-.191.363C1617.586,557.982,1614.586,560.132,1612.139,560.132Z" transform="translate(8.717 18.59)"/><path class="ae" d="M1612.289,560.579c-2.623,0-4.857-2.012-5.331-7.047a29.956,29.956,0,0,1,0-3.845q.469.763.933,1.386c-.018.832,0,1.631.05,2.393.326,3.457,1.585,5.613,3.545,6.044a3.858,3.858,0,0,0,.811.085c2.447,0,5.447-2.151,7.3-5.347.031-.054.1-.179.191-.363a48.734,48.734,0,0,1,6.319-9.7q.469.213.963.408c-3.466,3.77-6.328,9.647-6.619,10.153C1618.448,558.2,1615.139,560.579,1612.289,560.579Z" transform="translate(8.557 19.129)"/><path class="ae" d="M1624.9,545.29q-.494-.2-.963-.408a17.683,17.683,0,0,1-1.823-.949,35.288,35.288,0,0,1-3.956-2.376c.1-.325.2-.654.307-.991l.008-.006.209.154a10.069,10.069,0,0,1,3.04,1.76l.051.039.026.02.006,0,.017.013.042.031.016.012.031.024h0l.032.024.024.018.029.021.014.011.066.048.01.008.018.013.019.013.03.023.013.008.017.013h0l.013.01.017.012h0l.014.011.014.01h0l.049.037h0l.008.007.007,0,.009.007,0,0,.012.008h0a4.1,4.1,0,0,0,1.482.821h.035a.111.111,0,0,0,.045-.007l1.721.8Q1625.252,544.9,1624.9,545.29Z" transform="translate(10.734 18.428)"/><path class="y" d="M1648.993,560.815c-3.12,0-6.723-5.554-9.73-14.956a31.529,31.529,0,0,0,4.541-1.284v0c1.363,6.013,3.6,8.5,6.116,8.5,2.084,0,4.356-1.71,6.473-4.546-.013.05-.025.1-.038.153-1.815,7.509-4.539,12.042-7.286,12.123Z" transform="translate(14.818 19.205)"/><path class="ae" d="M1649.152,561.593c-3.46,0-7.275-4.949-10.708-15.757q.485-.084.977-.185c3.007,9.4,6.61,14.955,9.73,14.956l.078,0c2.747-.081,5.471-4.614,7.286-12.123.013-.05.025-.1.038-.153.513-.689,1.017-1.444,1.508-2.256-.185.907-.381,1.79-.586,2.641C1655.465,557.032,1652.472,561.592,1649.152,561.593Z" transform="translate(14.66 19.413)"/><path class="ae" d="M1638.475,546.188q-.1-.306-.193-.617c1.727-.414,3.8-.958,3.93-1,.066-.024.692-.329,1.523-.735h0a7.479,7.479,0,0,1,.259.887,31.531,31.531,0,0,1-4.541,1.284Q1638.96,546.1,1638.475,546.188Z" transform="translate(14.628 19.061)"/><path class="ac" d="M1636.62,545.981c-5.534,0-10.476-1.37-13.383-3.122l-.061-.033a35.685,35.685,0,0,1-5.732-3.708l.022-.021a6.407,6.407,0,0,1,4.489-1.826,6.505,6.505,0,0,1,2.046.331,40,40,0,0,0,12.513,1.919,48.419,48.419,0,0,0,9.045-.87,5.973,5.973,0,0,1,1.13-.107,6.066,6.066,0,0,1,5.388,3.317,28.3,28.3,0,0,1-9.956,3.66,1.123,1.123,0,0,0-.15.025A32.607,32.607,0,0,1,1636.62,545.981Z" transform="translate(10.597 17.792)"/><path class="ae" d="M1637.995,544.207a1.1,1.1,0,0,1,.15-.025Z" transform="translate(14.573 19.129)"/><path class="ae" d="M1636.639,546.679a31.11,31.11,0,0,1-10.744-1.821c-.008.01-.02.018-.027.026h0l-1.721-.8h0a.111.111,0,0,1-.045.007h-.035a4.089,4.089,0,0,1-1.482-.821h0l-.012-.008,0,0-.01-.007-.007,0-.008-.007h0l-.049-.037h0l-.014-.01-.014-.011h0l-.017-.012-.013-.01h0l-.017-.013-.013-.008-.03-.023-.019-.013-.018-.013-.01-.008-.066-.048-.014-.011-.029-.021-.024-.018-.032-.024h0l-.031-.024-.015-.012-.042-.031-.017-.013-.006,0-.026-.02-.051-.039a10.067,10.067,0,0,0-3.04-1.76l-.209-.154-1.875-1.384.714-.695a35.681,35.681,0,0,0,5.732,3.708l.061.033c2.907,1.752,7.849,3.122,13.383,3.122a32.609,32.609,0,0,0,5.35-.437l.15-.025a28.3,28.3,0,0,0,9.956-3.66,6.125,6.125,0,0,1,.378.925s-1.5.745-3.024,1.5c-.578.285-1.159.573-1.665.82h0c-.831.406-1.457.711-1.523.735-.131.045-2.2.59-3.93,1h0c-.033-.111-.07-.223-.1-.338A33.859,33.859,0,0,1,1636.639,546.679Z" transform="translate(10.481 18.091)"/><path class="ae" d="M1625.565,544.547l-1.721-.8h0l1.721.8Zm-1.766-.792,0,0h0Zm-.023,0h0Zm0,0h0Zm0,0h0Zm0,0a4.1,4.1,0,0,1-1.482-.821,4.088,4.088,0,0,0,1.482.821Zm-1.483-.821-.012-.008.012.008Zm-.016-.011-.009-.007.009.007Zm-.017-.012-.008-.007.008.007Zm-.012-.008-.049-.037.049.037Zm-.051-.038-.014-.01.014.01Zm-.029-.02Zm-.017-.012-.013-.01.013.01Zm-.013-.01-.017-.013.017.013Zm-.03-.021-.03-.023.03.023Zm-.048-.036-.019-.013.018.013Zm-.029-.021-.066-.048.066.048Zm-.08-.058-.029-.021.029.021Zm-.051-.039-.033-.024.032.024Zm-.035-.025-.031-.024.031.024Zm-.047-.036-.042-.031.042.031Zm-.058-.044-.006,0,.006,0Zm-.032-.025-.051-.039a10.069,10.069,0,0,0-3.04-1.76l-.209-.154.209.154a10.069,10.069,0,0,1,3.04,1.76Z" transform="translate(10.785 18.428)"/><path class="n" d="M1711.857,465.867a7.012,7.012,0,1,1,7.011-7.013,7.013,7.013,0,0,1-7.011,7.013Zm0-20.571c-7.692,0-13.926,6.54-13.926,14.608s13.926,23.937,13.926,23.937,13.925-15.869,13.925-23.937S1719.548,445.3,1711.857,445.3Z" transform="translate(26.167 0)"/></g></svg>