<svg xmlns="http://www.w3.org/2000/svg" width="290" height="191.763" viewBox="0 0 290 191.763"><defs><style>.a{fill:#ffeee6;}.a,.aa,.ab,.ac,.ad,.ae,.af,.ag,.ah,.ai,.aj,.ak,.al,.am,.an,.ao,.ap,.aq,.b,.c,.d,.e,.g,.i,.j,.l,.n,.o,.p,.q,.r,.s,.t,.u,.v,.w,.x,.y,.z{fill-rule:evenodd;}.b{fill:#040505;}.c{fill:#ffcfa3;}.d{fill:#fff;}.e{fill:#e3f5fd;}.f,.i{fill:#428d63;}.g{fill:#b0dac4;}.h{fill:#6eba92;}.j{fill:#387651;}.k{fill:#006862;}.l{fill:#da151e;}.m,.n{fill:#288481;}.o{fill:#549c71;}.p{fill:#82c2a0;}.q{fill:#27613e;}.r{fill:#a7cec7;}.s{fill:#2f764c;}.t{fill:#00574c;}.u{fill:#403964;}.v{fill:#1c215f;}.w{fill:#a4a1b6;}.x{fill:#150b28;}.y{fill:#0078c1;}.z{fill:#87d4f0;}.aa{fill:#9392b2;}.ab{fill:#9ca1cb;}.ac{fill:#e50034;}.ad{fill:#61649a;}.ae{fill:#60041d;}.af{fill:#fed9c9;}.ag{fill:#fbb08d;}.ah{fill:#feded0;}.ai{fill:#fcc2a7;}.aj{fill:#ffdfc2;}.ak{fill:#ffc798;}.al{fill:#ffd327;}.am{fill:#ffefde;}.an{fill:#feceb0;}.ao{fill:#ffc722;}.ap{fill:#fc9213;}.aq{fill:#ffb000;}</style></defs><g transform="translate(-1558.943 -622.912)"><path class="a" d="M1847.768,755.45c.292-23.63-6.994-40.077-26.1-50.141s-35.882-16.774-43.611-26.692-25.527-25.818-38.069-25.818-22.317,3.354-29.9-2.334-46.948-29.211-70.723-27.462-50.071,5.928-66.845,32.766-12.262,72.292,1.741,98.985c35.131,66.969,59.572,67.96,144.054,50.062,26.948-2.29,49.766-8.258,68.878-4.743C1815.8,805.333,1845.987,783.958,1847.768,755.45Z" transform="translate(1.167)"/><path class="b" d="M1621.991,726.989a.27.27,0,0,0,.172-.116.276.276,0,0,0-.075-.383c-.233-.156-5.721-3.774-10.538-2.73h0a.277.277,0,0,0,.118.541h0c4.586-1,10.057,2.611,10.112,2.648A.269.269,0,0,0,1621.991,726.989Z" transform="translate(21.942 42.162)"/><path class="b" d="M1618.4,726.852a.278.278,0,0,0,.172-.118.275.275,0,0,0-.078-.383,12.18,12.18,0,0,0-7.141-1.432.277.277,0,1,0,.034.553,11.83,11.83,0,0,1,6.8,1.339A.275.275,0,0,0,1618.4,726.852Z" transform="translate(21.844 42.713)"/><path class="c" d="M1719.63,713a1.2,1.2,0,0,1-1.179-1.437c.028-.143.735-3.49,5.161-5.8,2.216-1.155,3.4-2.632,3.341-4.154a2.961,2.961,0,0,0-1.666-2.538,2.613,2.613,0,0,0-1.017-.216c-1.951,0-3.275,2.358-3.339,2.476a1.2,1.2,0,0,1-2.107-1.145c.8-1.471,2.792-3.739,5.434-3.739a4.994,4.994,0,0,1,1.964.416,5.393,5.393,0,0,1,3.126,4.65c.058,1.45-.467,4.207-4.628,6.376-3.346,1.744-3.9,4.051-3.919,4.149A1.19,1.19,0,0,1,1719.63,713Z" transform="translate(66.802 30.804)"/><path class="c" d="M1718.611,711.468a1.421,1.421,0,0,1-.5-2.75,1.383,1.383,0,0,1,.5-.092,1.421,1.421,0,0,1,0,2.842Z" transform="translate(66.282 35.902)"/><path class="c" d="M1684.663,643.271a.889.889,0,0,1-.16-.016.814.814,0,0,1-.636-.955,6.269,6.269,0,0,1,3.479-3.907c1.5-.779,2.3-1.774,2.255-2.8a2,2,0,0,0-1.124-1.711,1.758,1.758,0,0,0-.687-.145c-1.314,0-2.207,1.59-2.25,1.669a.808.808,0,0,1-1.42-.772,4.6,4.6,0,0,1,3.663-2.521,3.365,3.365,0,0,1,1.324.281,3.636,3.636,0,0,1,2.108,3.136c.04.978-.315,2.836-3.121,4.3a4.748,4.748,0,0,0-2.642,2.8A.8.8,0,0,1,1684.663,643.271Z" transform="translate(52.319 3.853)"/><path class="c" d="M1683.974,642.234a.958.958,0,0,1-.338-1.854.944.944,0,0,1,.338-.062.958.958,0,0,1,.339,1.854A.943.943,0,0,1,1683.974,642.234Z" transform="translate(51.969 7.29)"/><path class="c" d="M1572.364,692.379a1.722,1.722,0,0,1-1.795-.715c-.115-.169-2.8-4.23-.712-11.019,1.046-3.4.738-6.074-.867-7.537a4.29,4.29,0,0,0-3.726-1.007,3.023,3.023,0,0,0-.51.158c-3.564,1.47-2.128,6.46-2.064,6.671a1.71,1.71,0,0,1-1.144,2.123l-.123.031a1.7,1.7,0,0,1-2-1.166c-.856-2.812-1.115-8.692,4.031-10.813a6.555,6.555,0,0,1,1.064-.333,7.789,7.789,0,0,1,6.769,1.816c1.527,1.391,3.793,4.677,1.83,11.061-1.578,5.132.207,8,.285,8.116a1.708,1.708,0,0,1-1.04,2.615Z" transform="translate(0 19.138)"/><path class="c" d="M1569.226,700.879a2.024,2.024,0,1,1,1.627-.822A2.009,2.009,0,0,1,1569.226,700.879Z" transform="translate(3.461 30.963)"/><path class="c" d="M1755.482,692.182a1.117,1.117,0,0,1-.864-.417,1.1,1.1,0,0,1-.241-.566c-.017-.133-.37-3.292,2.86-6.619,1.618-1.667,2.233-3.314,1.735-4.641a2.75,2.75,0,0,0-2.211-1.754c-.075-.006-.148-.01-.22-.01-2.327,0-2.938,3.138-2.964,3.275a1.116,1.116,0,0,1-1.1.912,1.21,1.21,0,0,1-.2-.017,1.112,1.112,0,0,1-.9-1.29c.324-1.815,1.808-5.109,5.129-5.109.139,0,.281.006.427.017a5.015,5.015,0,0,1,4.115,3.192c.475,1.263.816,3.846-2.222,6.975-2.443,2.516-2.257,4.713-2.247,4.806a1.108,1.108,0,0,1-.968,1.236A.919.919,0,0,1,1755.482,692.182Z" transform="translate(80.599 22.214)"/><path class="c" d="M1754.39,690.706a1.32,1.32,0,1,1,.83-.294A1.322,1.322,0,0,1,1754.39,690.706Z" transform="translate(81.311 27.29)"/><path class="c" d="M1714.093,665.825a.925.925,0,0,1-.421-.1.916.916,0,0,1-.366-.345c-.057-.094-1.361-2.336-.044-5.883.658-1.776.576-3.211-.233-4.036a2.294,2.294,0,0,0-1.627-.675,1.812,1.812,0,0,0-.6.1c-1.941.673-1.329,3.371-1.3,3.485a.912.912,0,0,1-.672,1.1.934.934,0,0,1-.214.024.908.908,0,0,1-.881-.692c-.37-1.522-.329-4.658,2.473-5.63a3.618,3.618,0,0,1,1.183-.194,4.175,4.175,0,0,1,2.938,1.222c.771.786,1.876,2.6.639,5.939-1,2.682-.132,4.261-.1,4.328a.906.906,0,0,1-.778,1.369Z" transform="translate(62.253 12.589)"/><path class="c" d="M1713.068,664.659a1.078,1.078,0,0,1-.958-1.569,1.078,1.078,0,1,1,.958,1.569Z" transform="translate(64.105 16.584)"/><path class="c" d="M1578.206,640.589a1.136,1.136,0,0,1-.491-.114,1.12,1.12,0,0,1-.46-.41c-.071-.113-1.735-2.822-.227-7.208.755-2.2.612-3.95-.4-4.939a2.821,2.821,0,0,0-1.948-.78,2.311,2.311,0,0,0-.8.135c-2.358.883-1.528,4.17-1.493,4.311a1.114,1.114,0,0,1-.792,1.359,1.061,1.061,0,0,1-.287.038,1.111,1.111,0,0,1-1.074-.824c-.5-1.854-.54-5.7,2.865-6.971a4.455,4.455,0,0,1,1.561-.274,5.117,5.117,0,0,1,3.52,1.41c.966.941,2.375,3.134.956,7.26-1.141,3.314-.037,5.224.011,5.3a1.109,1.109,0,0,1-.35,1.531A1.1,1.1,0,0,1,1578.206,640.589Z" transform="translate(4.626 0.838)"/><path class="c" d="M1576.464,633.68a1.321,1.321,0,1,1,1.19-.746A1.312,1.312,0,0,1,1576.464,633.68Z" transform="translate(6.786 3.404)"/><path class="d" d="M1677.713,662.309c-.942,19.025-20.107,33.536-42.807,32.414s-40.34-17.456-39.4-36.48,20.105-33.536,42.805-32.414S1678.654,643.285,1677.713,662.309Z" transform="translate(15.301 1.196)"/><path class="e" d="M1663.318,662.1c.36,1.8-1.087,3.605-3.232,4.035s-4.179-.678-4.539-2.477,1.087-3.605,3.232-4.035S1662.958,660.3,1663.318,662.1Z" transform="translate(40.44 15.339)"/><g transform="translate(1622.068 631.888)"><rect class="f" width="20.147" height="42.507" transform="matrix(0.858, -0.514, 0.514, 0.858, 14.156, 13.176)"/><path class="g" d="M1635.412,645.607a7.38,7.38,0,1,1-10.125-2.536A7.38,7.38,0,0,1,1635.412,645.607Z" transform="translate(-1595.781 -623.884)"/><rect class="h" width="20.146" height="42.508" transform="translate(14.952 10.58) rotate(-30.943)"/><path class="g" d="M1636.631,644.876a7.38,7.38,0,1,1-10.125-2.536A7.382,7.382,0,0,1,1636.631,644.876Z" transform="translate(-1595.271 -624.19)"/><path class="g" d="M1628.4,644.744a9.3,9.3,0,0,1,9.476-.05l-7.833-13.065-13.984,8.384,7.832,13.065A9.293,9.293,0,0,1,1628.4,644.744Z" transform="translate(-1598.146 -628.236)"/><path class="g" d="M1634.288,654.569a9.293,9.293,0,0,1-9.477.051l6.813,11.364,13.986-8.384-6.813-11.364A9.291,9.291,0,0,1,1634.288,654.569Z" transform="translate(-1594.479 -622.118)"/><path class="i" d="M1613.41,639.29l.8-2.6,2.024,3.376Z" transform="translate(-1599.254 -626.115)"/><path class="i" d="M1642.6,655.089l-.8,2.595-2.737-.477Z" transform="translate(-1588.509 -618.41)"/><path class="j" d="M1628.814,668.043l.8-2.595,17.279-10.359-.8,2.595Z" transform="translate(-1592.801 -618.41)"/><rect class="k" width="20.147" height="2.644" transform="matrix(0.858, -0.514, 0.514, 0.858, 25.454, 28.1)"/><path class="l" d="M1621.758,649.043l-1.3,1.746,1.287,2.146,1.376-1.625Z" transform="translate(-1596.303 -620.943)"/><rect class="f" width="20.671" height="43.612" transform="matrix(0.534, -0.845, 0.845, 0.534, 0.631, 34.663)"/><path class="g" d="M1626.538,651.238a7.572,7.572,0,1,1-10.446,2.355A7.572,7.572,0,0,1,1626.538,651.238Z" transform="translate(-1598.622 -620.514)"/><rect class="h" width="20.671" height="43.612" transform="matrix(0.534, -0.845, 0.845, 0.534, 0.161, 31.919)"/><path class="g" d="M1627.317,650.005a7.572,7.572,0,1,1-10.447,2.355A7.573,7.573,0,0,1,1627.317,650.005Z" transform="translate(-1598.295 -621.031)"/><path class="g" d="M1619.336,654.351a9.533,9.533,0,0,1,8.658-4.424l-13.211-8.35-8.937,14.142,13.211,8.35A9.533,9.533,0,0,1,1619.336,654.351Z" transform="translate(-1602.422 -624.07)"/><path class="g" d="M1629.273,660.63a9.536,9.536,0,0,1-8.658,4.424l11.491,7.262,8.939-14.142-11.493-7.262A9.532,9.532,0,0,1,1629.273,660.63Z" transform="translate(-1596.236 -620.16)"/><path class="i" d="M1604.017,654.479l-.471-2.745,3.414,2.157Z" transform="translate(-1603.385 -619.815)"/><path class="i" d="M1637.979,655.84l.47,2.745-2.728.827Z" transform="translate(-1589.908 -618.095)"/><path class="j" d="M1630,676.058l-.47-2.744,11.043-17.474.47,2.745Z" transform="translate(-1592.502 -618.095)"/><rect class="m" width="20.67" height="2.713" transform="matrix(0.534, -0.845, 0.845, 0.534, 17.877, 43.115)"/><path class="n" d="M1616.147,659.625l-.388,2.2,2.17,1.372.51-2.125Z" transform="translate(-1598.27 -616.51)"/><path class="o" d="M1640.722,660.39l-.4-2.306-.349-.22,1.578-.945,2.331,1.572-3.164,1.9ZM1632,652.826l-1.886-1.192a7.348,7.348,0,0,0,1.9-1.152l1.639,1.105a9.391,9.391,0,0,1-1.593,1.2Z" transform="translate(-1592.255 -620.34)"/><path class="p" d="M1631.929,652.813l-6.132-3.875,2.118-1.27,5.914,3.993a7.34,7.34,0,0,1-1.9,1.152Z" transform="translate(-1594.065 -621.518)"/><path class="p" d="M1639.421,657.538l-7.973-5.038.06-.034a9.457,9.457,0,0,0,1.593-1.2l7.9,5.331Z" transform="translate(-1591.699 -620.013)"/><path class="q" d="M1636.474,661.093l1.661-2.628-.075-.44,3.164-1.9,1.662,1.122Z" transform="translate(-1589.594 -617.975)"/><path class="r" d="M1613.479,638.472l-.116-.2.148.1Z" transform="translate(-1599.274 -625.456)"/><path class="s" d="M1620.173,645.951l-3.785-2.392-2.86-5,.632.175,2.829,1.91Z" transform="translate(-1599.204 -625.335)"/><path class="o" d="M1625.839,649.564l-1.884-1.192a9.317,9.317,0,0,1,.6-2.55l1.637,1.105a7.425,7.425,0,0,0-.352,2.636Zm-3.083-1.949-3.605-2.279-3.184-5.309,3.762,2.54Z" transform="translate(-1598.183 -624.719)"/><path class="p" d="M1624.5,648.519l-1.572-.993a7.422,7.422,0,0,1,.352-2.636l3.422,2.308Z" transform="translate(-1595.271 -622.682)"/><path class="p" d="M1622.845,647.622l-1.2-.758-3.028-5.048,4.825,3.256A9.314,9.314,0,0,0,1622.845,647.622Z" transform="translate(-1597.073 -623.97)"/><path class="s" d="M1614.195,638.823l-.632-.175-.118-.206.032-.1Z" transform="translate(-1599.239 -625.426)"/><path class="t" d="M1626.536,649.419l-2.5-1.582,2.2-1.32,2.419,1.633Z" transform="translate(-1594.804 -622)"/><path class="o" d="M1646.431,661.6l-30.887-19.52,3.785,2.392,3.605,2.279,1.2.757,1.885,1.191,1.572.993,2.5,1.582,6.132,3.876,1.885,1.191,7.973,5.039Z" transform="translate(-1598.36 -623.858)"/><path class="q" d="M1636.474,661.213l1.66-2.628-1.66,2.628Zm1.66-2.628-.47-2.745Z" transform="translate(-1589.593 -618.096)"/><path class="b" d="M1644.184,677.98a.149.149,0,0,1-.064-.023.163.163,0,0,1-.051-.223L1651.8,665.5l-.448-2.613-36.67-23.174-10.957,17.337a.161.161,0,0,1-.221.051.163.163,0,0,1-.051-.223l11.13-17.611,37.063,23.424.494,2.876-7.8,12.344A.158.158,0,0,1,1644.184,677.98Z" transform="translate(-1603.433 -625.039)"/><path class="b" d="M1633.688,664.237a.2.2,0,0,1-.062-.024.162.162,0,0,1-.05-.221l5.176-8.19a.161.161,0,0,1,.221-.051.159.159,0,0,1,.05.223l-5.175,8.19A.164.164,0,0,1,1633.688,664.237Z" transform="translate(-1590.817 -618.143)"/><path class="b" d="M1611.292,643.475a.161.161,0,0,1,.037-.321l2.923.254a.164.164,0,0,1,.148.174.162.162,0,0,1-.175.146l-2.923-.253Z" transform="translate(-1600.199 -623.409)"/><path class="b" d="M1611.524,644.109a.161.161,0,0,1,.037-.321l2.923.254a.165.165,0,0,1,.148.175.162.162,0,0,1-.174.146l-2.924-.254Z" transform="translate(-1600.102 -623.144)"/><path class="b" d="M1626.261,637.124a.161.161,0,0,1,.037-.319l2.924.253a.164.164,0,0,1,.146.175.162.162,0,0,1-.175.148l-2.923-.254Z" transform="translate(-1593.929 -626.069)"/><path class="b" d="M1626.493,637.759a.161.161,0,0,1,.037-.321l2.924.254a.162.162,0,0,1-.028.322l-2.923-.254Z" transform="translate(-1593.832 -625.804)"/><path class="b" d="M1653.37,666.076a.16.16,0,0,1-.115-.075l-21.774-36.32-17.087,10.244-.756,2.467,2.989,4.987a.161.161,0,1,1-.277.166l-3.063-5.111.834-2.723.053-.031,17.418-10.443,21.938,36.6a.16.16,0,0,1-.054.221A.149.149,0,0,1,1653.37,666.076Z" transform="translate(-1599.305 -629.238)"/></g><path class="d" d="M1566.777,666.325c4.928-.335,21.813-1.3,33.394.234a1.606,1.606,0,0,0,1.376-2.7,4.9,4.9,0,0,0-3.4-1.243s.436-10.8-7.723-11.388c-9.357-.678-9.31,9.922-9.31,9.922s-4.307-3.969-7.294,1.19c0,0-5.34-2.98-7.926,2.713A.9.9,0,0,0,1566.777,666.325Z" transform="translate(2.877 11.847)"/><path class="d" d="M1611.95,680.934a157.236,157.236,0,0,0-20.165.055,5.355,5.355,0,0,1-5.816-5.426,8.186,8.186,0,0,1,1.7-4.518c4.637-6.583,12.695-.295,12.618,3.046,0,0,1.629-5.033,6.576-4.15s3.2,8.2,3.2,8.2a3.988,3.988,0,0,1,2.7.42A1.3,1.3,0,0,1,1611.95,680.934Z" transform="translate(11.32 18.953)"/><path class="d" d="M1731.993,707.474c5.734-.061,19.711-.01,28.031,1.728a1.336,1.336,0,0,0,1.35-2.1,4.474,4.474,0,0,0-3.31-1.517s2.115-7.693-5.378-8.868c-7.7-1.209-8.284,6.978-8.284,6.978s-4.275-4.561-6.781.629c0,0-4.66-2.372-6.981.1A1.818,1.818,0,0,0,1731.993,707.474Z" transform="translate(71.71 30.861)"/><g transform="translate(1615.377 694.862)"><path class="c" d="M1693.251,750.254c-52.209,0-94.534-5.658-94.534-12.641,0-2.006,3.495-3.9,9.715-5.587,2.157,3.437,7.2,6.24,15.519,6.24h19.333q1.19.475,2.442.861a39.363,39.363,0,0,0,11.616,1.626,63.773,63.773,0,0,0,16.75-2.449c2.475,1.436,6.145,2.277,10.768,2.432h74.283c9.4,0,15.931-2.347,18.392-6.61a7.679,7.679,0,0,0,.814-2.022c6.044,1.664,9.434,3.534,9.434,5.509C1787.784,744.6,1745.459,750.254,1693.251,750.254Z" transform="translate(-1598.717 -649.159)"/><path class="u" d="M1656.231,741.213h-35.086c-20.972,0-20.972-18.658,0-18.658h22.18Z" transform="translate(-1595.911 -653.126)"/><path class="v" d="M1635.955,736.979h-15.182c-8.438,0-13.36-3.191-14.468-6.752,2.606,1.541,6.342,2.544,11.208,2.544h13A28.158,28.158,0,0,0,1635.955,736.979Z" transform="translate(-1595.539 -649.913)"/><path class="w" d="M1606.338,733.008a5.164,5.164,0,0,1-.2-1.426c0-4.129,5.051-8.307,14.708-8.307h1.971c.138.363.277.721.422,1.076h-1.206C1612.05,724.351,1606.818,728.579,1606.338,733.008Z" transform="translate(-1595.609 -652.825)"/><path class="d" d="M1739.1,756.537c-.478.014-.966.02-1.465.02h-74.248c-.651-.02-1.28-.058-1.886-.107-21.751-1.764-12.361-20.583,26.929-19.228l-35.847-24.382a74.739,74.739,0,0,1,7.267-6.561,67.231,67.231,0,0,1,28.2-13.353c12.038-2.422,23.726-.854,32.7,4.7,10.47,6.469,17.255,18.356,16.618,35.644a33.779,33.779,0,0,1,4.474.9,29.483,29.483,0,0,1,3.347,1.129C1759.554,741.148,1761.671,755.928,1739.1,756.537Z" transform="translate(-1577.213 -665.998)"/><path class="x" d="M1684.459,737.355c-12.062,0-19.857,1.975-24.4,3.733-5.951,2.3-9.61,5.517-9.789,8.608-.2,3.516,4.126,6.063,11.3,6.645.674.052,1.288.086,1.877.1h74.243c.537,0,1.014-.006,1.46-.02h0c9.714-.261,15.792-3.2,16.677-8.072.85-4.675-3.526-9.963-10.64-12.859a29.66,29.66,0,0,0-3.329-1.122,33.607,33.607,0,0,0-4.454-.9l-.142-.018.006-.143c.588-15.941-5.287-28.55-16.543-35.505-8.838-5.471-20.413-7.133-32.591-4.682A67.166,67.166,0,0,0,1660,706.448a75.333,75.333,0,0,0-7.121,6.415l36.142,24.582-.543-.018q-2.081-.072-4.015-.071Zm53.226,19.406h-74.248c-.6-.018-1.219-.054-1.9-.108-7.361-.6-11.8-3.27-11.586-6.975.186-3.218,3.92-6.539,9.989-8.883,5-1.93,13.891-4.125,28-3.7l-35.555-24.183.131-.133a75.471,75.471,0,0,1,7.281-6.576,67.489,67.489,0,0,1,28.268-13.381c12.256-2.466,23.91-.789,32.818,4.722,11.321,7,17.248,19.65,16.694,35.643a33.8,33.8,0,0,1,4.354.884,30.1,30.1,0,0,1,3.365,1.135c7.253,2.953,11.706,8.384,10.829,13.207-.914,5.027-7.1,8.063-16.977,8.329h0C1738.706,756.754,1738.225,756.761,1737.685,756.761Z" transform="translate(-1577.259 -666.045)"/><path class="x" d="M1656.532,742.534h-35.086c-11.507,0-16.75-5.365-16.75-10.349s5.243-10.349,16.75-10.349h22.179a1.021,1.021,0,0,1,0,2.042h-22.179c-9.656,0-14.708,4.178-14.708,8.307s5.051,8.309,14.708,8.309h35.086a1.02,1.02,0,0,1,0,2.04Z" transform="translate(-1596.212 -653.427)"/><path class="u" d="M1701.144,732.63c-1.4,5.378-4.942,13.9-10.362,18.848l-14.112-7.047s-13.872-7.286-13.478-10.38c.34-2.677-4.315-22.146-6.23-28.1q2.395-1.892,4.872-3.532a65.938,65.938,0,0,1,23.329-9.821,10.884,10.884,0,0,1,2.4.685C1693.622,695.564,1708.486,704.406,1701.144,732.63Z" transform="translate(-1574.321 -665.673)"/><path class="d" d="M1710.582,700.221a41.041,41.041,0,0,0-22.868-6.419,53.346,53.346,0,0,0-6.96.464,22.3,22.3,0,0,0-2.177-.956l-.156-.058a52.95,52.95,0,0,1,8.536-.708c8.662,0,16.6,2.273,22.868,6.622C1710.061,699.479,1710.315,699.833,1710.582,700.221Z" transform="translate(-1565.332 -665.696)"/><path class="w" d="M1672.823,696.42c-.136-.219-.275-.434-.414-.648.194-.282.382-.562.56-.843a59.817,59.817,0,0,1,5.924-1.512q1.028-.207,2.047-.373l.156.058a22.293,22.293,0,0,1,2.177.956q-1.911.251-3.839.638A60.812,60.812,0,0,0,1672.823,696.42Z" transform="translate(-1567.851 -665.487)"/><path class="v" d="M1687.18,735.8a4.792,4.792,0,0,1-.846-.074c-1.409-.248-3.019-.5-4.745-.718a5.638,5.638,0,0,0-1.795-.451,1.02,1.02,0,0,0-.983-1.012q-2.154-.079-4.244-.079l-.773,0c5.717-8.127,6.859-17.73,3.391-28.567a46.839,46.839,0,0,0-2.728-6.705c11.727,5.975,17.31,17.107,17.526,32.746A4.807,4.807,0,0,1,1687.18,735.8Z" transform="translate(-1567.271 -663.33)"/><path class="u" d="M1711.957,711.995l-3.734-5.765-4.184-6.452c4.082-2.648,7.76-2.526,10.157-.975C1718.113,701.332,1718.625,707.674,1711.957,711.995Z" transform="translate(-1554.603 -663.537)"/><path class="w" d="M1705.767,700.312c-.187-.208-.379-.416-.572-.621a9.868,9.868,0,0,1,4.592-1.273,7,7,0,0,1,.918.06,5.745,5.745,0,0,1,3.115,1.383c-.013.122-.03.244-.054.366a7.2,7.2,0,0,0-3.652-.942A10.457,10.457,0,0,0,1705.767,700.312Z" transform="translate(-1554.118 -663.236)"/><path class="x" d="M1736.93,734.6h-.038a1.019,1.019,0,0,1-.982-1.057c.5-13.651-3.691-24.66-12.13-31.835-8.893-7.56-22-10.285-35.971-7.476a66.288,66.288,0,0,0-27.769,13.153,74.178,74.178,0,0,0-7.169,6.471,1.019,1.019,0,0,1-1.462-1.422,76.322,76.322,0,0,1,7.365-6.652,68.365,68.365,0,0,1,28.633-13.552c14.583-2.933,28.322-.045,37.693,7.923,8.933,7.594,13.376,19.166,12.848,33.464A1.02,1.02,0,0,1,1736.93,734.6Z" transform="translate(-1576.767 -666.299)"/><path class="u" d="M1652.813,685.163c12.23-24.074,44.282-3.682,27.165,19.33Z" transform="translate(-1576.059 -673.321)"/><path class="y" d="M1674.063,680.645l0,0,0,0Zm-.006-.01c-.147-.261-.3-.519-.463-.772h0C1673.755,680.116,1673.91,680.374,1674.057,680.635Z" transform="translate(-1567.354 -671.008)"/><path class="v" d="M1673.99,701.292a45.837,45.837,0,0,0-5.36-6.74,16.709,16.709,0,0,0,7.067-13.387,16.623,16.623,0,0,1,2.12,3.75,16.546,16.546,0,0,0-2.143-5.051h0c.16.253.315.511.463.772l0,.007,0,0C1679.195,686.068,1679.381,693.5,1673.99,701.292Z" transform="translate(-1569.434 -671.008)"/><path class="z" d="M1653.156,684.246h0c3.889-7,9.543-9.905,15-9.905a15.96,15.96,0,0,1,5.317.924,15.952,15.952,0,0,0-5.317-.924c-5.453,0-11.108,2.9-15,9.905Zm20.344-8.97-.007,0,.007,0Zm-.016-.006-.013,0Z" transform="translate(-1575.915 -673.321)"/><path class="w" d="M1655.049,684.743c-.626-.18-1.258-.346-1.893-.5,3.889-7,9.545-9.905,15-9.905a15.988,15.988,0,0,1,5.317.924h0l.013,0,.009,0,.007,0a17.122,17.122,0,0,1,8.656,6.9q.037.649.023,1.3a16.806,16.806,0,0,0-13.27-6.781C1663.966,676.7,1658.859,679.084,1655.049,684.743Z" transform="translate(-1575.915 -673.321)"/><path class="aa" d="M1675.737,684.914a16.638,16.638,0,0,0-2.12-3.749q.013-.651-.023-1.3A16.552,16.552,0,0,1,1675.737,684.914Z" transform="translate(-1567.354 -671.008)"/><path class="u" d="M1635.854,688.851c-20.4-12.632-42.94,16.135-15.536,30.791Z" transform="translate(-1594.983 -668.553)"/><path class="z" d="M1608.588,696.175l.006-.01-.006.01Zm.007-.016a18.066,18.066,0,0,1,16.375-10.434h0A18.068,18.068,0,0,0,1608.595,696.159Z" transform="translate(-1594.582 -668.553)"/><path class="w" d="M1608.845,708.316a15,15,0,0,1,.143-12.141l.006-.01v-.006a18.068,18.068,0,0,1,16.375-10.434h.1a19.552,19.552,0,0,1,9.437,2.57q-.86.724-1.684,1.494a18.919,18.919,0,0,0-6.991-1.362C1615.369,688.427,1606.615,698.212,1608.845,708.316Z" transform="translate(-1594.983 -668.553)"/><path class="d" d="M1618.688,738.405c7.452,23.292,28.562,26.4,51.075,19.193s37.9-21.982,30.447-45.273-31.741-36.336-54.253-29.132S1611.238,715.113,1618.688,738.405Z" transform="translate(-1591.268 -670.443)"/><path class="x" d="M1618.888,738.4c3.49,10.91,10.148,17.951,19.786,20.93,8.435,2.605,19.186,1.969,31.09-1.839s21.026-9.53,26.383-16.55c6.12-8.018,7.453-17.617,3.963-28.528-7.414-23.171-31.663-36.195-54.056-29.03a41.647,41.647,0,0,0-24.777,21.493,44.62,44.62,0,0,0-2.389,33.523Zm31.056,22.818a38.425,38.425,0,0,1-11.362-1.591c-9.742-3.008-16.469-10.118-19.993-21.132A44.931,44.931,0,0,1,1621,704.74a41.964,41.964,0,0,1,24.965-21.653c22.558-7.218,46.984,5.9,54.45,29.234,3.523,11.015,2.174,20.708-4.013,28.814-5.4,7.069-14.573,12.828-26.538,16.656A66.024,66.024,0,0,1,1649.944,761.221Z" transform="translate(-1591.317 -670.488)"/><path class="ab" d="M1646.605,757.952a37.321,37.321,0,0,1-11.019-1.538,26.983,26.983,0,0,1-11.224-6.65,38.316,38.316,0,0,0,11.361,1.6,65.958,65.958,0,0,0,19.854-3.434c22.51-7.2,37.9-21.981,30.446-45.274a45.376,45.376,0,0,0-9.469-16.56,43.958,43.958,0,0,1,19.394,24.488c3.4,10.626,2.111,19.959-3.828,27.74l-.2.254a73.063,73.063,0,0,0-18.563,2.726c-6.149,1.862-10.6,4.583-12.526,7.663a5.532,5.532,0,0,0-.43,5.7,6.183,6.183,0,0,0,.927,1.294A60.313,60.313,0,0,1,1646.605,757.952Z" transform="translate(-1587.975 -668.396)"/><path class="x" d="M1619.964,738.394c3.4,10.626,9.867,17.479,19.218,20.368,8.268,2.554,18.838,1.918,30.572-1.836s20.711-9.373,25.961-16.25c5.939-7.781,7.228-17.114,3.828-27.74-7.269-22.719-31.033-35.491-52.971-28.472a40.8,40.8,0,0,0-24.267,21.053,43.764,43.764,0,0,0-2.341,32.878Zm30.233,23.943a39.369,39.369,0,0,1-11.616-1.626c-10.027-3.1-16.945-10.4-20.559-21.7a45.786,45.786,0,0,1,2.455-34.4,42.818,42.818,0,0,1,25.474-22.094c23.012-7.361,47.925,6,55.535,29.793,3.615,11.3,2.219,21.259-4.149,29.6-5.5,7.209-14.826,13.073-26.96,16.955A66.917,66.917,0,0,1,1650.2,762.337Z" transform="translate(-1591.572 -670.743)"/><path class="x" d="M1680.28,705.814a1.02,1.02,0,0,1-.819-1.629c6.743-9.065,4.82-16.269,3.075-19.756a15.8,15.8,0,0,0-13.895-8.767h-.044c-6.036,0-11.209,3.642-14.573,10.264A1.02,1.02,0,1,1,1652.2,685c3.675-7.236,9.649-11.381,16.393-11.381h.048a17.853,17.853,0,0,1,15.714,9.9c3.329,6.647,2.14,14.624-3.262,21.886A1.015,1.015,0,0,1,1680.28,705.814Z" transform="translate(-1576.36 -673.622)"/><path class="x" d="M1620.619,720.968a1.026,1.026,0,0,1-.481-.121c-8.447-4.518-13.145-10.888-13.224-17.937a17.735,17.735,0,0,1,9.357-15.422c6.358-3.59,13.8-3.3,20.422.8a1.02,1.02,0,0,1-1.074,1.735c-5.968-3.7-12.655-3.973-18.343-.759a15.694,15.694,0,0,0-8.322,13.62c.071,6.271,4.386,12.011,12.145,16.161a1.021,1.021,0,0,1-.481,1.921Z" transform="translate(-1595.284 -668.859)"/><path class="d" d="M1644.632,685.6c-5.9-11.886-16.623-3.7-8.723,2.169Z" transform="translate(-1584.312 -671.153)"/><path class="x" d="M1635.863,687.943c-2.267-1.683-3.261-3.744-2.727-5.656a4.074,4.074,0,0,1,3.649-2.859c2.978-.28,5.982,2.019,8.035,6.151l-.281.139c-1.992-4.011-4.88-6.246-7.726-5.976a3.761,3.761,0,0,0-3.375,2.629c-.5,1.779.455,3.719,2.612,5.321Z" transform="translate(-1584.36 -671.199)"/><path class="d" d="M1635.9,684.458c-7.534-3.556-9.978,6-.894,5.038Z" transform="translate(-1585.964 -669.417)"/><path class="x" d="M1633.854,689.767c-2.253,0-3.915-.736-4.549-2.059a2.686,2.686,0,0,1,.59-3.075c1.338-1.346,3.627-1.447,6.121-.27l-.134.284c-2.369-1.118-4.525-1.04-5.765.207a2.378,2.378,0,0,0-.531,2.717c.685,1.426,2.723,2.106,5.453,1.818l.033.312A11.815,11.815,0,0,1,1633.854,689.767Z" transform="translate(-1586.011 -669.465)"/><path class="d" d="M1632.158,687.749c-5.86,4.224.489,9.119,3.133,3.137Z" transform="translate(-1585.719 -667.705)"/><path class="x" d="M1632.044,693.865c-.06,0-.12,0-.18-.006a2.355,2.355,0,0,1-2.127-1.715c-.41-1.44.478-3.117,2.375-4.485l.184.255c-1.786,1.287-2.63,2.836-2.257,4.145a2.045,2.045,0,0,0,1.846,1.487c1.287.085,2.526-.915,3.307-2.686l.286.126C1634.677,692.8,1633.4,693.865,1632.044,693.865Z" transform="translate(-1585.765 -667.743)"/><path class="x" d="M1636.209,689.093a1.023,1.023,0,0,1-.608-.2c-2.531-1.882-3.669-4.342-3.043-6.582a4.925,4.925,0,0,1,4.4-3.485c3.346-.318,6.673,2.159,8.891,6.625a1.02,1.02,0,1,1-1.827.908c-1.828-3.679-4.4-5.732-6.872-5.5a2.9,2.9,0,0,0-2.625,2c-.4,1.416.441,3.018,2.3,4.394a1.021,1.021,0,0,1-.61,1.84Z" transform="translate(-1584.613 -671.454)"/><path class="x" d="M1634.05,690.891c-3.618,0-4.877-1.74-5.267-2.555a3.539,3.539,0,0,1,.755-4.055c1.608-1.617,4.262-1.782,7.1-.441a1.02,1.02,0,0,1-.871,1.844c-2.384-1.125-4.034-.719-4.785.036a1.508,1.508,0,0,0-.363,1.735c.4.836,1.813,1.625,4.583,1.331a1.02,1.02,0,1,1,.214,2.029A12.9,12.9,0,0,1,1634.05,690.891Z" transform="translate(-1586.266 -669.72)"/><path class="x" d="M1632.3,694.993c-.082,0-.163,0-.246-.009a3.21,3.21,0,0,1-2.9-2.34c-.513-1.8.5-3.832,2.7-5.423a1.021,1.021,0,0,1,1.194,1.657c-1.741,1.253-2.14,2.479-1.933,3.205a1.188,1.188,0,0,0,1.076.864c.909.062,1.829-.749,2.459-2.174a1.02,1.02,0,0,1,1.866.824C1635.578,693.741,1634.013,694.991,1632.3,694.993Z" transform="translate(-1586.02 -668.006)"/><path class="x" d="M1640.278,715.954c.667,2.084,3.641,4.247,6.195,3.429s3.72-4.3,3.055-6.389-2.916-1.979-5.47-1.162S1639.611,713.87,1640.278,715.954Z" transform="translate(-1581.365 -657.845)"/><path class="x" d="M1655.582,725.722c-.441,1.764-2.307,3.295-4.792,4.238a8.289,8.289,0,0,1-5.542.433,3.393,3.393,0,0,1-2.093-2.035c-.975-2.577.985-5.708,4.38-6.995s6.938-.24,7.913,2.34A3.343,3.343,0,0,1,1655.582,725.722Z" transform="translate(-1580.208 -653.855)"/><path class="ac" d="M1654.891,724.46c-.441,1.764-2.307,3.295-4.792,4.238a8.288,8.288,0,0,1-5.542.433,6.967,6.967,0,0,1,4.54-4.753A7.349,7.349,0,0,1,1654.891,724.46Z" transform="translate(-1579.516 -652.593)"/><path class="x" d="M1645.6,716.042l.637,4.41a.307.307,0,0,1-.258.348.311.311,0,0,1-.316-.163l-2.039-3.961a1.052,1.052,0,1,1,1.977-.633Z" transform="translate(-1579.956 -656.232)"/><path class="u" d="M1646.322,710.613c5.183,2.055,9.176,6.389,12.273,12.441a4.59,4.59,0,0,0,4.6,2.449c9.527-1.056,13.339-12.946,5.478-22.378-10.273-12.177-24.558-5.9-25.188,2.957A4.538,4.538,0,0,0,1646.322,710.613Z" transform="translate(-1579.97 -664.1)"/><path class="u" d="M1645.122,711.589c-3.026,4.681-3.763,10.528-2.771,17.253a4.589,4.589,0,0,1-2.325,4.664c-8.371,4.672-18.377-2.8-17.451-15.043,1.3-15.877,16.575-19.054,22.228-12.211A4.539,4.539,0,0,1,1645.122,711.589Z" transform="translate(-1588.749 -661.381)"/><path class="x" d="M1654.675,712.112a5.246,5.246,0,0,1-3.665-1.539.942.942,0,1,1,1.3-1.363,3.3,3.3,0,0,0,4.335.379,2.958,2.958,0,0,0,1.023-3.759.942.942,0,0,1,1.71-.792,4.836,4.836,0,0,1-1.636,6.083A5.307,5.307,0,0,1,1654.675,712.112Z" transform="translate(-1576.936 -660.692)"/><path class="x" d="M1632.5,719.364a5.3,5.3,0,0,1-4.343-2.178.942.942,0,0,1,1.525-1.105,3.629,3.629,0,0,0,4.261,1.132,3.372,3.372,0,0,0,2.333-3.488.941.941,0,1,1,1.876-.162,5.232,5.232,0,0,1-3.55,5.414A6.028,6.028,0,0,1,1632.5,719.364Z" transform="translate(-1586.463 -657.253)"/><path class="x" d="M1650.76,722.133a7.258,7.258,0,0,0-2.563.487,6.672,6.672,0,0,0-3.324,2.6,3.458,3.458,0,0,0-.461,3.079,2.556,2.556,0,0,0,2.133,1.6,9.675,9.675,0,0,0,7.718-2.923,2.556,2.556,0,0,0,.533-2.615h0a3.454,3.454,0,0,0-2.387-2,5.8,5.8,0,0,0-1.65-.231Zm-3.3,9.888a7.328,7.328,0,0,1-1.269-.106,4.584,4.584,0,0,1-3.688-2.892,5.442,5.442,0,0,1,.638-4.885,9.134,9.134,0,0,1,9.846-3.73,5.442,5.442,0,0,1,3.716,3.235h0a4.585,4.585,0,0,1-.847,4.61,10.178,10.178,0,0,1-4.4,2.963A11.449,11.449,0,0,1,1647.462,732.021Z" transform="translate(-1580.51 -654.157)"/><path class="u" d="M1694.5,727.231q6.2,13.862-14.634,15.945h-16.471c-24.191-.813-15.3-20.82,25.325-19.326A5.734,5.734,0,0,1,1694.5,727.231Z" transform="translate(-1577.213 -652.617)"/><path class="w" d="M1650.834,736.782a3.836,3.836,0,0,1,.667-2.809c1.641-2.622,5.792-5.1,11.387-6.792a75.117,75.117,0,0,1,21.31-2.69q2.056,0,4.178.078h.04a1.052,1.052,0,0,0,.3-.043,2.046,2.046,0,0,1-1.881,1.239h-.036c-.641-.01-1.276-.016-1.9-.016C1664.309,725.75,1652.886,731.526,1650.834,736.782Z" transform="translate(-1576.912 -652.316)"/><path class="u" d="M1714.963,744.409h-4.474s-14.161-11.406,0-23.282c.122-.1.24-.2.353-.3C1735.012,721.469,1744.5,744.409,1714.963,744.409Z" transform="translate(-1554.537 -653.851)"/><path class="w" d="M1723.5,726.684a30.679,30.679,0,0,0-15.861-4.563c.21-.2.426-.393.649-.59l.067,0a31.421,31.421,0,0,1,14.447,3.238A9.116,9.116,0,0,1,1723.5,726.684Z" transform="translate(-1553.096 -653.555)"/><path class="x" d="M1737.939,745.734h-74.283c-7.152-.24-12.022-2.123-13.713-5.3a5.532,5.532,0,0,1,.43-5.7c1.928-3.08,6.376-5.8,12.526-7.663,7.052-2.135,16.1-3.068,26.155-2.7a1.02,1.02,0,1,1-.075,2.039c-9.837-.362-18.649.542-25.488,2.612-5.6,1.694-9.746,4.17-11.388,6.792a3.494,3.494,0,0,0-.359,3.661c1.3,2.433,5.766,4.01,11.965,4.221h74.23c8.514,0,14.574-2.039,16.625-5.592a6.41,6.41,0,0,0-.365-6.584c-2.7-4.671-10.369-9.384-21.431-9.384a1.02,1.02,0,0,1,0-2.04c11.876,0,20.207,5.226,23.2,10.4,1.722,2.984,1.852,6.047.365,8.624C1753.869,743.387,1747.337,745.734,1737.939,745.734Z" transform="translate(-1577.513 -654.157)"/><path class="x" d="M1712.26,713.31a1.02,1.02,0,0,1-.556-1.876c4.952-3.209,5.441-7.394,3.8-9.923a5.526,5.526,0,0,0-4.015-2.437,9.936,9.936,0,0,0-6.6,1.856,1.021,1.021,0,0,1-1.111-1.713c5.856-3.8,11.191-2.277,13.434,1.183a7.535,7.535,0,0,1,.829,6.354,11.925,11.925,0,0,1-5.232,6.392A1.011,1.011,0,0,1,1712.26,713.31Z" transform="translate(-1554.904 -663.832)"/><path class="ab" d="M1710.127,730.064c-1.507-.146-2.911-.26-4.089-.345a2.231,2.231,0,0,1-1.877-3.144c5.857-12.747.329-23.664-3.073-28.62a26.62,26.62,0,0,1,11.124,14.217.941.941,0,0,0,.061.159,45.869,45.869,0,0,1,2.738,17.233,38.763,38.763,0,0,0-3.917-.2A1.018,1.018,0,0,0,1710.127,730.064Z" transform="translate(-1555.838 -663.43)"/><path class="ab" d="M1706.419,702.44a33.4,33.4,0,0,0-5.108-4.173c-.267-.389-.521-.742-.756-1.056q1.309.907,2.52,1.935.858.73,1.659,1.514a1.094,1.094,0,0,0,.1.1Q1705.658,701.571,1706.419,702.44Z" transform="translate(-1556.062 -663.742)"/><path class="x" d="M1716.685,730.536c-.337-.044-.674-.084-1.019-.118a45.872,45.872,0,0,0-2.738-17.233,1.228,1.228,0,0,0,.063.112,1.02,1.02,0,0,0,1.212.4,47.445,47.445,0,0,1,2.483,16.838Zm-3.818-17.51a33.341,33.341,0,0,0-6.017-10.044q-.76-.868-1.585-1.681a1.025,1.025,0,0,0,1.219.081l.177-.114a32.91,32.91,0,0,1,3,3.634h0l.451,2.077,3.18,4.908h0a1.019,1.019,0,0,0-.426,1.139Zm-7.7-11.823q-.8-.783-1.659-1.514-1.211-1.028-2.52-1.935a21.977,21.977,0,0,0-1.463-1.788l.515-.05a33.467,33.467,0,0,1,5.15,3.9,1.022,1.022,0,0,0-.024,1.382Z" transform="translate(-1556.493 -664.284)"/><path class="x" d="M1717.807,722.333a81.84,81.84,0,0,0-10.348-1.542,1.018,1.018,0,0,1,.966-.7,38.763,38.763,0,0,1,3.917.2c.345.034.682.074,1.019.118q-.011.509-.029,1.024A33.759,33.759,0,0,1,1717.807,722.333Z" transform="translate(-1553.17 -654.157)"/><path class="x" d="M1712.259,712.61a1.023,1.023,0,0,1-.858-.465,1.236,1.236,0,0,1-.062-.112.941.941,0,0,1-.061-.159,1.018,1.018,0,0,1,.426-1.139h0l.555.857h0c.122.316.239.636.353.958a1.02,1.02,0,0,1-.353.064Zm-7.919-12.218a1.023,1.023,0,0,1-.666-.244,1.109,1.109,0,0,1-.1-.1,1.021,1.021,0,0,1,.024-1.382q.758.7,1.471,1.447l-.177.114A1.02,1.02,0,0,1,1704.341,700.392Z" transform="translate(-1554.904 -663.131)"/><path class="v" d="M1713.518,741.512c7.175-3.068,8.784-11.315,7.516-16.349,4.909,3.219,7.334,7.6,6.3,11.351C1725.249,739.4,1720.326,741.172,1713.518,741.512Z" transform="translate(-1550.632 -652.034)"/><path class="ad" d="M1725.325,737.078c1.03-3.747-1.395-8.131-6.3-11.351a9.116,9.116,0,0,0-.7-1.913,16.945,16.945,0,0,1,6.984,6.146,6.411,6.411,0,0,1,.365,6.583Q1725.513,736.817,1725.325,737.078Z" transform="translate(-1548.62 -652.598)"/><path class="x" d="M1712.3,743.721h-1.761a14.944,14.944,0,0,0,4.221-1.08c6.809-.341,11.731-2.113,13.82-5q.187-.262.345-.534a6.411,6.411,0,0,0-.365-6.583,16.947,16.947,0,0,0-6.984-6.146,4.291,4.291,0,0,0-1.686-1.894l-.033-.017C1734.522,728.437,1736.419,743.721,1712.3,743.721Z" transform="translate(-1551.878 -653.163)"/><path class="ab" d="M1720.394,738.577h-44.968q5.172-1.281,7.635-3.744c.558-.511,1.1-1.06,1.615-1.637q1.741.3,3.593.7a87.634,87.634,0,0,0,9.516.568c3.923,0,8.093-.356,10.451-1.633a3.854,3.854,0,0,1,1.849-.515C1713.1,732.313,1715.323,736.557,1720.394,738.577Z" transform="translate(-1566.587 -649.039)"/><path class="v" d="M1680.807,734.589a7.815,7.815,0,0,0,1.3-1.693c.106.018.211.036.319.055C1681.9,733.529,1681.365,734.078,1680.807,734.589Z" transform="translate(-1564.333 -648.795)"/><path class="v" d="M1682.433,738.657h-22.644c-.37-.013-.735-.031-1.091-.053,1.964-2.015,7.778-6.481,20.685-6.481a71.329,71.329,0,0,1,11.98,1.1,7.818,7.818,0,0,1-1.3,1.693Q1687.607,737.375,1682.433,738.657Z" transform="translate(-1573.594 -649.118)"/><path class="x" d="M1732.423,737.764h-72.41c-.651-.02-1.28-.058-1.886-.107l-.006,0a7.173,7.173,0,0,1,.817-.964c.356.021.721.04,1.091.053h67.611A14.862,14.862,0,0,0,1732.423,737.764Z" transform="translate(-1573.835 -647.205)"/><path class="ae" d="M1713.25,737.435c-.478.014-.966.02-1.466.02C1712.346,737.429,1712.831,737.422,1713.25,737.435Z" transform="translate(-1551.358 -646.896)"/><path class="x" d="M1711.786,737.659l-.007-.315c.546-.026,1.044-.033,1.477-.02v.314C1712.807,737.652,1712.327,737.659,1711.786,737.659Z" transform="translate(-1551.36 -646.943)"/><path class="v" d="M1710.829,709.577a35.953,35.953,0,0,0-2.973-5.612c.081.006.16.01.24.01,2.115,0,4.146-2.12,4.554-4.282.088.051.175.1.26.159a6.315,6.315,0,0,1,.68.505l.016.024C1715.123,702.724,1714.814,706.485,1710.829,709.577Z" transform="translate(-1553.003 -662.702)"/><path class="ad" d="M1712.174,700.465a6.316,6.316,0,0,0-.68-.505c-.084-.055-.172-.108-.26-.159.024-.122.041-.244.054-.366A5.269,5.269,0,0,1,1712.174,700.465Z" transform="translate(-1551.588 -662.81)"/><path class="x" d="M1710.468,709.122a34.776,34.776,0,0,0-3.8-6.873,3.234,3.234,0,0,0,1.683.646,35.953,35.953,0,0,1,2.973,5.612Q1710.923,708.819,1710.468,709.122Z" transform="translate(-1553.5 -661.631)"/><path class="x" d="M1709.734,711.668q-.187-.487-.387-.966.455-.3.857-.616c3.987-3.092,4.295-6.853,2.776-9.2l-.016-.024a5.269,5.269,0,0,0-.885-1.03,3.571,3.571,0,0,0-.108-1.358C1715.889,701.006,1716.4,707.349,1709.734,711.668Z" transform="translate(-1552.379 -663.211)"/><path class="x" d="M1710.3,709.233l-3.18-4.908-.451-2.077h0a34.789,34.789,0,0,1,3.8,6.873Z" transform="translate(-1553.5 -661.632)"/><path class="x" d="M1709.783,708.061l-.555-.857.169-.111q.2.479.387.966Z" transform="translate(-1552.429 -659.602)"/></g><g transform="translate(1732.151 679.796)"><path class="af" d="M1696.769,687.894a1.794,1.794,0,0,1-.177-.235q.76-.483,1.5-1.01a11.808,11.808,0,0,0,9.522-.99l-.006,0a11.743,11.743,0,0,0,3.1-2.572q.434.609.925,1.175h0l.138.156.082.091c-1.368.742-2.729,1.5-4.092,2.252h0c-.116.064-.23.128-.346.19h0c-1.365.751-2.735,1.491-4.117,2.195q-.481.247-.971.487C1700.619,689.531,1697.791,689.039,1696.769,687.894Z" transform="translate(-1674.496 -654.59)"/><path class="ag" d="M1700.637,689.984q.489-.241.971-.487c1.382-.7,2.752-1.444,4.117-2.195l-.292,1.728a10.741,10.741,0,0,1-3.828.965,8.783,8.783,0,0,1-.968-.011Zm5.3-1.2.132-1.669c1.364-.751,2.724-1.51,4.092-2.252.24.265.49.523.748.77.941.905,2.262,1.737,3.478,1.263a2.009,2.009,0,0,0,.609-.376,2.939,2.939,0,0,0,.878-1.654,7.758,7.758,0,0,0-.125-2.614,26.236,26.236,0,0,0,3.779,6.842c.082.106.17.214.264.319.531.594,1.234,1.1,1.951.848a1.2,1.2,0,0,0,.39-.233,2.486,2.486,0,0,0,.657-1.486,15.9,15.9,0,0,0-.706-6.078q.189.3.4.59h0a15.122,15.122,0,0,0,1.114,1.4,15.567,15.567,0,0,0,2.766,2.448c.067.047.135.092.206.136l-.36,2.462a4.254,4.254,0,0,1-1.756-1.182,4.007,4.007,0,0,1-.637-.952,12.035,12.035,0,0,1-1.189,4.452,2.348,2.348,0,0,1-1.06,1.226,2.32,2.32,0,0,1-2.266-.657,8.971,8.971,0,0,1-.968-.935,9.223,9.223,0,0,1-2.127-4.166,2.965,2.965,0,0,1-2.053,2.552,4.427,4.427,0,0,1-3.37-.358,8.829,8.829,0,0,1-2.544-2.086c-.04-.044-.078-.087-.117-.132a10.6,10.6,0,0,1-2.181,1.514Zm20.418.772c.089.027.181.053.275.074a2.463,2.463,0,0,0,2.351-.538,2.3,2.3,0,0,0,.444-2.062,4.007,4.007,0,0,0-.325-.884,1.614,1.614,0,0,1-.491,1.058,1.114,1.114,0,0,1-.287.187,1.889,1.889,0,0,1-1.734-.332Z" transform="translate(-1672.802 -654.941)"/><path class="ah" d="M1704.223,685.867h0c.116-.062.23-.126.346-.19h0C1704.453,685.741,1704.339,685.8,1704.223,685.867Z" transform="translate(-1671.3 -653.506)"/><path class="ai" d="M1704.017,687.6l.292-1.728c.116-.062.23-.126.346-.19l-.132,1.669C1704.356,687.433,1704.187,687.516,1704.017,687.6Z" transform="translate(-1671.386 -653.506)"/><path class="ai" d="M1718.658,688.089l.36-2.462.024.016-.234,2.5C1718.757,688.123,1718.708,688.106,1718.658,688.089Z" transform="translate(-1665.254 -653.527)"/><path class="aj" d="M1702.508,670.442a11.726,11.726,0,0,0-3.194-4.982,11.313,11.313,0,0,0-8.136-2.429,24.683,24.683,0,0,0-8.337,2.358,4.179,4.179,0,0,0-1.329.806,1.491,1.491,0,0,0-.446,1.423c.2.677.971.989,1.656,1.162a15.565,15.565,0,0,0,6.159.3,15.914,15.914,0,0,0-5.047,3.462,2,2,0,0,0-.608,1.918c.329.833,1.443.958,2.337.9a26.256,26.256,0,0,0,7.639-1.647,7.738,7.738,0,0,0-2.052,1.623,2.63,2.63,0,0,0-.555,2.455c.443,1.227,1.938,1.677,3.238,1.792a15.744,15.744,0,0,0,7.28-1.091c1.195-.485,2.649-1.473,2.607-2.909A18.069,18.069,0,0,0,1702.508,670.442Z" transform="translate(-1681.019 -663.003)"/><path class="ak" d="M1682.812,672.517l0,0h0l0,0,0-.006,0,0,0,0,0,0,0-.006h0v0l-.023-.028h0l-.021-.03h0l0-.006-.018-.026h0l0,0-.01-.016,0-.006,0-.006,0,0v0l0,0-.006-.011,0-.006,0-.006,0,0h0l0-.006-.016-.028h0l0-.006-.013-.023v-.008l0,0v-.007l0-.006,0-.006-.006-.013v0h0l-.01-.025,0-.006,0-.007-.011-.03-.01-.031-.01-.031-.008-.031-.009-.031-.007-.031-.006-.031-.006-.031,0-.033,0-.031,0-.031,0-.031h0v-.1l0-.031v-.033l0-.031,0-.031,0-.033.006-.031.006-.031.006-.031.007-.033h0l.007-.031h0l.009-.031.008-.031.01-.031h0l.01-.031.01-.031h0l.011-.031h0l.011-.031h0l.013-.031.013-.031.013-.03.014-.031.013-.03h0l.016-.03h0l.014-.03.016-.03h0l.016-.031.017-.03h0l.016-.03h0l.017-.028.017-.03.018-.03.018-.028h0l.018-.03.018-.028h0l.018-.028.02-.028h0l.02-.028.02-.027.018-.028.021-.027.02-.028.021-.027h0l.02-.026h0l.021-.026.021-.027h0l.021-.026h0l.021-.026.021-.026.021-.026.011-.014.013-.013.011-.014.013-.014.011-.013,0,0,.009-.01.011-.014.013-.013.024-.027.007-.008.006-.006h0l.023-.026.013-.013.011-.014.01-.011h0l.013-.014.011-.013.013-.013.013-.014.011-.013h0l.011-.011.013-.014.013-.013.013-.013.011-.013.005-.006.007-.007.013-.014.013-.013.013-.013.013-.013.009-.008,0,0,.013-.013.012-.013.013-.013.026-.026h0l.04-.038.013-.013.013-.013,0,0,.01-.01.013-.013.04-.037.006-.007.007-.006.013-.013.014-.013.037-.034,0,0,.013-.011.013-.013.014-.013.013-.011.013-.013h0l.013-.011.013-.013.014-.013.013-.011.014-.013,0,0,.008-.009.019-.016.018-.017.018-.016.009-.007.01-.008.018-.016.018-.017.018-.016.006-.006.013-.01.018-.016.017-.016.02-.016.006-.006.012-.01.019-.016.018-.016.018-.016.006,0,.014-.011.017-.016.02-.014.018-.016,0,0,.014-.011.02-.016.018-.016.019-.014,0,0,.017-.013.018-.016.02-.014.019-.016h0l.018-.014.018-.016.02-.014.018-.016h0l.018-.014.018-.016.02-.014.018-.014h0l.02-.016.018-.014.02-.014.017-.013h0l.02-.016.019-.014.02-.014.016-.011,0,0,0,0,.037-.026.02-.014.014-.011,0,0,.02-.014.021-.014.018-.014.014-.01.006,0,.02-.014.02-.014.021-.014.012-.008.007-.006.02-.013.02-.014.02-.014.011-.008.009-.006.02-.014.021-.013.02-.014.01-.007.01-.006.02-.014a1.2,1.2,0,0,0-.3.976,1.053,1.053,0,0,0,.258.521,2.793,2.793,0,0,0,1.6.694,30.291,30.291,0,0,0,7.272.3,4.712,4.712,0,0,0-.156,5.68c.069.092.143.182.218.267a4.258,4.258,0,0,0,.461.444h-.373l-.088,0h-.461l-.018,0h-.133l-.067,0h-.044l-.043,0h-.132l-.021,0h-.023l-.048,0h-.017l-.057-.006-.024,0-.038,0h-.01l-.049-.006h0l-.047-.006h-.016l-.034-.006-.029,0h-.021l-.04-.007h-.009l-.049-.007h0l-.045-.007-.017,0-.125-.021h-.006l-.05-.01h-.007l-.062-.011-.03-.007-.033-.006-.017,0-.044-.01h-.006l-.048-.011h-.009l-.062-.014-.027-.007-.034-.008-.016,0-.045-.013h0c-.061-.017-.121-.034-.18-.053l-.013,0-.047-.016h0l-.048-.016-.011,0h0l-.115-.04-.01,0-.048-.018-.044-.017-.015-.006-.007,0c-.034-.014-.068-.027-.1-.042l0,0-.008,0-.045-.02h0v0c-.055-.024-.111-.051-.165-.079h0l-.006,0-.042-.021-.006,0-.051-.027-.006,0c-.034-.018-.067-.038-.1-.058l0,0-.04-.024-.007-.006-.01-.006c-.047-.03-.093-.062-.138-.094h0a2.4,2.4,0,0,1-.426-.4h0l-.036-.042h0l-.034-.044v0l-.029-.038,0-.006,0,0-.027-.041,0,0,0-.007-.026-.04h0l-.006-.008-.024-.04h0l-.027-.048h0l-.006-.011-.011-.021-.006-.011,0-.007,0,0-.005-.011-.006-.011-.01-.021,0-.006,0-.006-.02-.045v0l0-.007-.014-.034,0-.013h0l-.022-.057-.013-.04-.013-.038-.011-.04-.011-.038-.01-.04-.01-.04-.007-.04-.009-.04-.006-.04-.006-.04-.006-.04,0-.041,0-.04,0-.04,0-.041v-.16h0l0-.041v-.04h0l0-.04,0-.04.006-.041h0l.006-.04.006-.041.007-.04h0l.007-.04.007-.041.01-.04h0l.009-.04.01-.04.01-.04h0l.011-.04.011-.04h0l.013-.04.013-.04h0l.014-.038.014-.04.014-.038h0l.016-.038h0l.016-.038h0l.017-.038h0l.017-.038h0l.018-.038.017-.037.018-.038.018-.037h0l.018-.037.02-.037.02-.035.021-.037h0l.021-.037.021-.034h0l.021-.035.023-.036.023-.034.023-.035h0l.024-.034.024-.033.024-.034.025-.033.024-.033.026-.033.009-.01.007-.008.007-.008,0-.006,0,0,.009-.008.007-.01.007-.008h0l.009-.01.007-.008.007-.009,0,0,0-.006.016-.017.006-.008h0l.009-.008.007-.009.009-.01h0l.005-.007.009-.009.007-.008.006-.007,0,0,.009-.008.007-.008.008-.009h0l.006-.007.009-.008.008-.008.006-.006,0,0,.007-.008.008-.008.009-.01h0l.007-.008.009-.007.009-.009,0-.006,0,0,.008-.008.007-.009.009-.008h0l.007-.007.009-.009.009-.009,0,0,0,0,.009-.008.009-.007.007-.009h0l.007-.008.009-.008.009-.008,0,0,.006,0,.009-.009.009-.008.007-.007h0l.009-.007.009-.009.008-.008,0,0,.006,0,.009-.008.009-.008.007-.006h0l.009-.009.01-.007.008-.008h0l.006-.006.009-.008.016-.014.007-.006.021-.018,0,0,.019-.017.012-.008.01-.01.02-.017h0l.021-.018.008-.007.014-.013.017-.013.006-.006.022-.018h0l.02-.017.011-.008.012-.009.021-.018h0l.023-.018.008-.006.014-.013.018-.013,0,0,.024-.018,0,0,.018-.014.014-.01.01-.008.023-.017h0l.024-.017.009-.007.014-.01.018-.014.006,0,.024-.017,0,0,.018-.014.014-.01.01-.007.024-.017h0l.024-.017.01-.007.013-.01.021-.014,0,0,.024-.017.006,0,.018-.013.016-.011.009-.006.024-.017h0l.023-.016.011-.007.013-.01.021-.014h0l.024-.017.007,0,.017-.011.017-.011.009,0,.024-.017h0l.022-.014.013-.008.011-.009.023-.014h0l.024-.016.007-.006.018-.01.017-.011.007-.006.026-.016h0l.022-.014.013-.009.011-.007.024-.014h0l.024-.016.009-.006.017-.01.018-.011.006,0,.026-.016,0,0,.02-.013.014-.009.011-.007.024-.016h0l.025-.016.009-.006.016-.01.02-.013.006,0,.024-.016.006,0,.02-.013.014-.009.01-.006.025-.016-.115.043h0l-.115.043h0l-.115.043h0l-.115.041-.116.041-.115.04h0l-.116.041-.116.038-.116.038h0l-.117.038h0l-.116.038h0l-.116.037h0l-.118.037h0l-.116.037h0l-.118.035h0l-.118.034h0l-.118.034h0l-.118.034-.118.034h0l-.118.033h0l-.119.033-.118.031-.118.031h0l-.118.031-.119.03h0l-.119.028-.119.03-.119.028-.119.027-.119.028-.119.026-.12.027-.119.026-.121.024-.12.026-.119.023-.12.024-.121.023-.121.023-.12.021-.121.021-.12.02-.121.02-.122.02-.121.018-.121.018-.122.017-.122.017-.12.017-.122.016-.121.016-.122.016-.122.014-.122.013-.122.014-.122.013-.122.011-.121.011-.123.011-.122.01-.122.01-.122.009-.122.008-.122.008h-.658l-.037,0h0l-.035,0h-.009l-.028,0h-.016l-.021,0-.023,0h-.014l-.028,0h-.013l-.07-.008h-.006l-.03,0h-.014l-.023,0-.02,0-.017,0-.026,0-.01,0-.032-.006h0l-.036-.007h0l-.01,0-.033-.007-.024-.006-.017,0-.018,0-.023-.006-.012,0-.03-.008h0l-.034-.01h0l-.031-.01-.009,0-.038-.013h0l-.018-.006-.021-.008h0c-.026-.009-.051-.018-.075-.028h0c-.051-.021-.1-.044-.148-.068h0l-.007,0-.028-.016h0l-.034-.018-.024-.014-.01-.006-.018-.011-.016-.01,0,0a.605.605,0,0,1-.059-.041h0l-.026-.02h0l-.024-.018-.007-.007,0,0c-.018-.014-.036-.03-.052-.045l0,0-.007-.007-.021-.02,0,0-.023-.024h0l-.021-.024Zm9.763-1.091Z" transform="translate(-1680.391 -660.709)"/><path class="ak" d="M1681.323,667.474l-.006-.006,0,0,0,0-.006-.007-.006-.006,0-.006,0,0,0,0,0-.006-.006-.007-.006-.006v0l0,0-.006-.007,0-.006-.006-.007h0l0-.006,0-.006-.006-.007,0-.006h0l0-.006,0-.007,0-.006,0-.007h0l-.006-.007,0-.006,0-.007,0-.007h0l0-.007,0-.007,0-.006,0-.007h0l0-.009,0-.006,0-.007,0-.006h0l0-.007,0-.007,0-.007,0-.006h0l0-.007,0-.008,0-.007,0,0,0,0,0-.007,0-.007,0-.008v0l0,0,0-.007,0-.007,0-.008v0l0,0-.007-.016,0-.007v0l0-.006,0-.007,0-.008,0-.007h0v-.007l-.006-.016,0-.007h0l0-.007,0-.008,0-.009v-.007l-.007-.024-.006-.023-.006-.024-.006-.024,0-.023h0l0-.024,0-.024,0-.023h0l0-.024,0-.023v-.048h0v-.1h0v-.024l0-.024h0l0-.024,0-.023h0l0-.024,0-.024h0l0-.024h0l0-.023h0l0-.024.006-.024.006-.023.006-.024.007-.023.007-.024.007-.023.007-.023.009-.024.009-.023.008-.023.009-.023.01-.023.01-.023.011-.023.01-.023.01-.021.011-.023.013-.021.011-.021.013-.021h0l.013-.021.013-.021.013-.02h0l.013-.021.014-.021.014-.02.014-.02.014-.02.014-.021.016-.018h0l.016-.018.016-.018.016-.02.016-.018.017-.018.016-.018.017-.018.017-.017.017-.018h.013v0h.006v0h.009v0h.016v0h0l0,0h0l0,0h.026v0h0v0h0v0h.009l0,0,.011-.01.007-.006.01-.009.009-.007.009-.008.01-.007.007-.006.011-.01.006,0,.013-.011,0,0,.016-.013h0l.017-.013h0l.018-.014h0l.016-.013,0,0,.016-.011,0,0,.013-.01.007,0,.011-.008.009-.006.01-.007.01-.007.008-.006.011-.009.007,0,.013-.01,0,0,.017-.011h0l.018-.011h0l.019-.013h0l.018-.011h0l.016-.011.006,0,.013-.008.007,0,.013-.008.009-.006.01-.006.01-.006.01-.006.011-.007.007,0,.016-.008,0,0,.016-.008,0,0,.017-.01h0l.02-.011h0l.018-.011h0l.017-.01,0,0,.014-.007.007,0,.013-.007.009,0,.011-.006.011-.006.009,0,.013-.007.007,0,.014-.007.006,0,.017-.009h0l.018-.01h0l.02-.01h0l.02-.01h0l.018-.009h0l.016-.008.006,0,.014-.007.009,0,.011-.006.011-.006.01,0,.011-.007.008,0,.014-.007.006,0,.017-.007h0l.02-.008h0l.02-.009h0l.02-.008h0l.019-.007,0,0,.016-.007.006,0,.014-.006.008,0,.013-.006.01,0,.01,0,.013-.007.007,0,.016-.006.006,0,.016-.007,0,0,.018-.009h0l.02-.008.013-.006.013-.007.014-.006.013-.006.013-.006.014-.006.013-.006.013-.006.014-.006.006,0,.007,0,.013-.006.014-.007.013-.006.013-.006.013-.006.015-.006.013-.006.014-.006.01-.006h0l.013-.006.014-.006.013-.006.013-.006.014-.006.013-.007.013-.006.014-.006.013-.006h0l.009,0,.014-.006.013-.006.013-.006.013-.006.014-.006.013-.006.014-.006.013-.006.01,0h0l.014-.006.013-.006.013-.006.014-.006.013-.006.013-.006.014-.006.013-.006.014-.006h0l.012,0,.012-.006.015-.006.013-.006.014-.006.013-.006.013-.006.014-.006.013-.006.009,0h0l.014-.006.013-.006.013-.006.014-.006.013-.006.013-.006.014-.006a3.021,3.021,0,0,0-.026,1.625,2.93,2.93,0,0,0,.652,1.183,3.5,3.5,0,0,0,4.2.812,1.509,1.509,0,0,1-.339.534h0l-.062.007h-.023l-.075.007H1688l-.087.007h0l-.085.007h-.011l-.074.007h-.023l-.064,0h-.033l-.052,0-.045,0-.041,0-.055,0h-.03l-.067,0h-.019l-.078,0h-.009l-.085,0h0l-.084,0h-.985l-.1,0h-.034l-.062,0h-.024l-.074,0h-.011l-.085-.006h0l-.085,0h-.01l-.075,0h-.021l-.065,0-.031,0-.054,0-.043,0-.044,0-.054,0-.031,0-.065-.006h-.02l-.077-.007H1685l-.087-.008h0l-.084-.01h-.013l-.073-.008-.024,0-.061-.007-.036,0-.049-.006-.045-.007-.04,0-.057-.008-.028,0-.068-.01-.017,0-.078-.011-.007,0-.085-.013h0l-.079-.013-.016,0-.069-.011-.027,0-.058-.01-.037-.007-.047-.008-.05-.009-.036-.007-.06-.01-.024,0-.071-.014-.014,0-.081-.016h0l-.084-.017h-.008l-.077-.016-.018,0-.065-.014-.084-.018-.041-.01-.043-.01-.051-.011-.033-.007-.062-.016-.021,0-.073-.018-.011,0-.082-.021-.024-.006-.009,0-.016,0-.017,0-.007,0-.024-.006h0l-.023-.007-.009,0-.016,0-.017,0-.007,0-.024-.006h0l-.023-.007h-.01l-.014-.006-.018-.006h-.006l-.025-.007h0l-.023-.007-.01,0-.014,0-.018-.006h-.006l-.024-.009h0l-.021-.007-.011,0-.013,0-.02-.007h0l-.024-.009h0l-.021-.007-.011,0-.011-.006-.021-.007h0l-.024-.008,0,0-.02-.007-.013-.006-.01,0-.021-.008h0l-.024-.01h0l-.019-.009-.012-.006-.01,0-.021-.01h0l-.023-.01-.006,0-.017-.008-.013-.006-.01-.006-.021-.01h0l-.021-.011-.007,0-.016-.009-.014-.007-.009,0-.021-.011h0l-.021-.013-.008,0-.014-.009-.014-.008-.007,0-.021-.013h0l-.021-.013-.007,0-.013-.008-.016-.009-.006,0-.02-.014h0l-.019-.013-.008-.006-.012-.008-.016-.011,0,0-.02-.016h0l-.018-.014-.007-.006-.011-.008-.014-.011,0,0-.018-.016h0l-.016-.014-.009-.007-.01-.009-.014-.013,0,0-.018-.017-.033-.033-.014-.014,0,0-.016-.017,0,0Z" transform="translate(-1681.019 -662.407)"/><path class="aj" d="M1710.342,676.07a11.73,11.73,0,0,1,5.854-.865,11.315,11.315,0,0,1,7.178,4.536,24.712,24.712,0,0,1,3.7,7.832,4.205,4.205,0,0,1,.267,1.534,1.492,1.492,0,0,1-.781,1.27,2.107,2.107,0,0,1-1.964-.484,15.6,15.6,0,0,1-4.276-4.442,15.9,15.9,0,0,1,.706,6.078,2,2,0,0,1-1.047,1.718c-.844.3-1.67-.457-2.214-1.168a26.236,26.236,0,0,1-3.779-6.842,7.758,7.758,0,0,1,.125,2.614,2.631,2.631,0,0,1-1.487,2.03c-1.216.474-2.537-.358-3.478-1.263a15.74,15.74,0,0,1-3.962-6.2c-.419-1.22-.631-2.965.478-3.876A18.1,18.1,0,0,1,1710.342,676.07Z" transform="translate(-1671.038 -657.928)"/><g transform="translate(37.141 25.868)"><path class="ak" d="M1707.333,685.194h0l0,0,0,0h0v-.006h0l0,0v0l0,0h0l0,0v0h0v0l0,0h0l0,0v0h0v0l0,0v0h0l0,0h0l0,0v0l0,0,0,0,0,0v0h0v0l0,0,0,0v0l0,0h0l0,0-.006-.007,0,0,0,0h0l0-.006h0l0,0,0,0,0,0,0,0h0v0l0,0h0l0,0h0v0l0,0a4.218,4.218,0,0,0,.982.044,4.71,4.71,0,0,0,4.18-3.848q.816,1.1,1.731,2.128a30.119,30.119,0,0,0,3.269,3.156c.609.507,1.456,1.007,2.135.6a1.2,1.2,0,0,0,.542-.866l.006.043,0,.043.006.043,0,.043.005.041,0,.017,0,.026,0,.042,0,.027v.016l0,.043,0,.037v.006l0,.041,0,.043v.006l0,.037,0,.043,0,.017v.026l0,.043v.027l0,.016,0,.043v.037l0,0,0,.078v.05l0,.043v.017l0,.068,0,.027v.057l0,.04v.553l0,.043v.043l0,.03v.013l0,.043,0,.04v0l-.005.084v.01l0,.033,0,.043v.02l0,.023,0,.041,0,.031v.011l0,.042,0,.041h0l0,.042,0,.043v.01l0,.031,0,.043,0,.021,0,.021-.006.043,0,.031v.011l-.006.041-.007.043,0,.026,0,.007,0,.018,0,.014v.011l0,.023v0l0,.026,0,0,0,.021v.011l0,.016,0,.018v.007l-.006.026h0l0,.026,0,.008,0,.017,0,.016v.011l-.006.021v0l-.006.026v0l-.006.021,0,.011,0,.014,0,.02,0,.007-.006.026h0l-.007.026,0,.007,0,.018,0,.014,0,.011-.006.023,0,0-.007.026,0,0-.007.021,0,.011,0,.014-.005.018,0,.006-.009.026h0l-.008.026,0,.007-.007.017,0,.014,0,.01-.008.021,0,0-.01.024v0l-.009.02,0,.011-.006.013-.009.018,0,.006-.01.024h0l-.011.024,0,.007-.009.016-.007.014,0,.008-.011.024-.013.023,0,0-.01.018-.006.01-.007.013-.008.016,0,.007-.013.021h0l-.013.023,0,.006-.01.016-.007.013-.006.007-.013.02v0l-.014.02,0,0-.011.017-.007.009-.009.011-.011.016,0,0-.031.04-.006.006-.011.013-.009.011-.007.009-.014.016v0l-.051.052-.014.014,0,0-.018.017h0l-.017.016-.011.01-.006,0,0,0-.006,0,0,0,0,0-.006,0-.006,0-.006,0,0,0h0l0,0-.006,0-.006,0-.006,0,0,0h0l-.006,0-.006,0-.006,0-.012.009-.006,0-.006,0-.018.013-.006,0-.006,0-.006,0h0l-.006,0-.006,0-.006,0-.006,0-.013.008-.006,0-.007,0-.011.006-.007,0-.006,0-.006,0h-.007l-.006,0-.007,0-.007,0-.006,0h0l-.007,0-.006,0-.007,0-.006,0h-.007l-.007,0-.006,0-.007,0-.007,0h0l-.005,0-.007,0-.007,0-.007,0h-.013l-.007,0-.007,0-.007,0-.034.011h-.006l-.027.008h-.006l-.017,0-.021.006-.007,0-.017,0-.023.006h-.01l-.03.006h0l-.033,0h0l-.031,0h0l-.027,0h-.139l-.033,0h-.042l-.024,0h0l-.023,0,0,0-.023,0-.01,0-.028,0h-.009l-.058-.013h-.008l-.027-.007h0l-.023-.006-.013,0-.058-.02-.029-.01h0l-.031-.013h0l-.031-.011-.007,0-.024-.01h0l-.027-.013h0l-.018-.008-.013-.006-.024-.013-.007,0-.03-.014h0l-.031-.017h0l-.027-.016-.01-.006-.021-.013-.014-.008-.016-.01-.02-.011-.01-.007-.026-.017-.006,0-.03-.02h0l-.03-.021-.006,0-.024-.017-.011-.007-.018-.014-.016-.011-.013-.01-.021-.017-.034-.027h0l-.028-.024h0l-.027-.021-.007-.007-.02-.017-.013-.011-.016-.013-.017-.016-.065-.06h0l-.027-.024,0,0-.022-.023-.009-.008-.018-.017-.014-.014-.061-.062,0,0-.027-.027h0l-.024-.026-.006-.006-.03-.033-.016-.017-.014-.016-.03-.033,0,0,0-.006-.044-.05,0,0,0,0,0,0-.013-.014,0-.006,0,0,0-.006h0l-.007-.008,0,0-.009-.011,0,0,0,0h0l-.009-.01,0,0-.008-.01,0-.006h0v0l0,0-.009-.01,0,0,0-.006,0-.006h0l0,0,0-.006,0,0,0-.006,0,0,0-.006,0,0h0l0-.006,0-.006,0,0,0-.006,0,0,0-.006h0l0,0,0-.006,0,0,0-.006,0,0,0-.006,0,0a26.236,26.236,0,0,1-3.779-6.842,7.758,7.758,0,0,1,.125,2.614l-.006.03,0,.011,0,.017-.006.023v.007l-.007.028,0,0-.018.081v0l-.01.037-.006.02-.006.021,0,.008-.009.028v0l-.008.027,0,.013-.011.04v0l-.01.028,0,.007-.007.021-.006.017,0,.013-.01.027h0l-.01.028,0,.011-.031.076-.01.024-.006.016-.033.075-.008.02-.009.018-.017.035h0l-.037.075,0,0-.013.027,0,.006-.01.02-.01.016,0,.011-.016.026h0l-.014.026-.006.01-.01.017-.011.018,0,.006-.016.027,0,0-.014.021-.009.013-.009.013-.014.021v0l-.017.026-.006.006-.011.017-.012.017-.006.007-.018.026h0l-.017.023-.009.01-.01.014-.014.018,0,0-.018.023-.018.023-.011.014-.007.008-.018.023h0l-.02.023-.017.018,0,0-.014.016-.006.006-.02.021,0,0-.017.018-.021.02-.018.018,0,0-.021.02-.042.04-.009.007-.025.021-.009.008-.009.007h0l-.006.006-.009.007-.009.007-.008.007h0l-.01.007-.009.006-.009.008,0,0,0,0-.009.007-.009.007-.01.006h0l-.007.006-.01.007-.009.006-.01.007-.009.007-.009.006-.01.006,0,0-.006,0-.01.007-.009.006-.01.006h0l-.01.006-.009.007-.01.006,0,0-.006,0-.009.006-.01.006-.01.007h0l-.007.006-.01.006-.01.006-.007,0h0l-.01.006-.01.006-.01.006h0l-.007,0-.01.006-.01,0-.01.006h0l-.01,0-.01.006-.01.006-.006,0h0l-.01.006-.012,0-.01.006h0l-.009,0-.01,0-.01.006-.009,0h0l-.01,0-.01,0-.011,0,0,0-.006,0-.011,0-.01,0-.011,0c-1.216.474-2.537-.358-3.478-1.263l-.013-.011-.011-.011-.013-.011-.011-.013L1708.1,686l-.011-.011-.011-.011h0l-.013-.011-.013-.013-.023-.023-.013-.013-.011-.011-.01-.01h0l-.011-.013-.011-.011-.013-.011-.011-.013-.013-.011-.011-.013-.009-.008,0,0-.013-.011-.011-.011-.011-.013-.013-.011-.011-.013-.012-.011-.008-.008,0,0-.011-.011-.011-.013-.011-.011-.011-.013-.013-.011-.011-.013-.007-.007,0,0-.011-.013-.013-.011-.011-.013-.023-.024-.011-.011-.006-.007-.006-.006-.013-.013-.046-.048-.011-.013,0,0-.007-.007-.011-.013-.047-.05-.01-.011,0,0-.064-.07-.011-.013,0,0-.007-.008-.011-.013h-.013l-.007-.008h-.016l0,0h-.011l0,0h0v0h0v0h0l0,0h-.02v0Zm10.9,5.5-.058-.02.058.02ZM1713,682.675" transform="translate(-1707.196 -681.235)"/></g><path class="ak" d="M1717.146,684.4l-.02-.021-.018-.02-.016-.018,0,0-.018-.021-.018-.021-.018-.021-.006-.006-.013-.016-.018-.021-.018-.021-.014-.016,0,0-.019-.021-.041-.048-.014-.017-.036-.043-.013-.014-.006-.007-.017-.021-.04-.047-.014-.017-.018-.023-.017-.021-.013-.014-.006-.007-.017-.021-.036-.044,0,0-.032-.041-.017-.021-.01-.013-.009-.01-.017-.021-.017-.023-.019-.021h0l-.017-.021-.017-.021-.017-.023-.008-.01-.009-.011-.017-.023-.017-.023-.017-.021h0l-.017-.023-.017-.023-.017-.023-.007-.008-.01-.013-.017-.023-.017-.023-.014-.02h0l-.016-.023-.017-.023-.017-.023-.006-.007-.011-.016-.016-.023-.017-.023-.013-.017,0-.006-.016-.023-.017-.023-.017-.023,0-.006-.012-.017-.016-.023-.017-.023-.011-.017,0-.006-.017-.023-.016-.024h0a1.488,1.488,0,0,1,.179-.6,3,3,0,0,0,.72,1.415,3.483,3.483,0,0,0,3.971.929,2.994,2.994,0,0,0,1.207-1.087l0,.014.006.013,0,.014,0,.014,0,.013,0,.014,0,.014,0,0,0,.009,0,.014,0,.014,0,.013,0,.014,0,.014.006.014.025.082.006.013,0,.014,0,.014,0,.013,0,.014,0,.014v0l0,.01,0,.014.006.014,0,.014.006.013,0,.014,0,.014,0,.013,0,.014,0,.01v0l0,.014,0,.013,0,.014,0,.013,0,.014.006.014,0,.014,0,.013,0,.014h0l0,.013,0,.014,0,.013,0,.014,0,.014,0,.013,0,.014,0,.014,0,.014,0,.007v.006l0,.014,0,.013,0,.014,0,.014.006.014,0,.014,0,.013,0,.014,0,.013a4.208,4.208,0,0,1,.267,1.534l0,.018v.038l0,.016v0l0,.018v0l0,.017v.008l0,.01v.02l-.01.057v.01l0,.009,0,.018,0,.018a1.683,1.683,0,0,1-.1.312l-.007.017,0,0a1.644,1.644,0,0,1-.075.15v0a1.433,1.433,0,0,1-.268.333l-.029.024,0,0,0,0-.009.007-.006,0,0,0,0,0h0l0,0,0,0,0,0,0,0h0l0,0,0,0,0,0,0,0,0,0h0l0,0-.006,0,0,0,0,0h0l0,0,0,0,0,0,0,0,0,0h0l0,0-.006,0,0,0,0,0h0l0,0,0,0-.006,0,0,0h0l-.006,0,0,0,0,0,0,0h0l0,0,0,0,0,0-.006,0h-.009l-.005,0,0,0h-.01l0,0h-.006l0,0h-.005l0,0h-.006l0,0h-.006l-.025.011,0,0-.023.008-.007,0-.02.007-.011,0-.014.006h0l-.02.006h0l-.02.006-.007,0-.024.006h0l-.027.007h0l-.026.006h0l-.024,0h-.009l-.018,0h0l-.026,0h-.275l-.025,0h0l-.027,0h0l-.026,0h-.006l-.023,0-.027,0-.014,0h-.014l-.017,0h-.01l-.023,0h-.006l-.025-.006h0l-.027-.006h0l-.025-.006h-.006l-.021-.007-.011,0-.017,0-.014,0-.013,0-.019-.006-.01,0-.023-.007h0l-.027-.01h0l-.027-.01h0l-.025-.008-.006,0-.021-.008-.011,0-.016-.006-.016-.007-.011,0-.02-.008-.007,0-.024-.01,0,0-.025-.011h0l-.027-.013h0l-.023-.011-.007,0-.02-.01-.011-.006-.016-.007-.014-.008-.011-.006-.02-.009-.007,0-.024-.013h0l-.027-.014h0l-.026-.014,0,0-.023-.011-.007,0-.018-.011-.011-.006-.014-.008-.016-.01-.011-.006-.018-.011-.007,0-.023-.014,0,0-.025-.014h0l-.024-.014h-.027l0,0h0l0,0h0l0,0h0l0,0h0l0,0h-.01l0,0h-.007l0,0,0,0h0l0,0h-.007l0,0,0,0h0l0,0h0l-.007,0h0l0,0,0,0h-.006l0,0-.017-.01,0,0,0,0h0l0,0h-.01l0,0h0l0,0h0l0,0h0l0,0h-.01l0,0h0l0,0h0l0,0h0l0,0-.048-.033-.031-.023-.016-.01-.048-.034-.016-.011-.031-.023-.047-.033h0l-.046-.033-.033-.024-.014-.01-.047-.034-.017-.014-.028-.021-.047-.034h0l-.044-.033-.034-.027-.011-.008-.047-.036-.018-.014-.027-.021-.045-.035,0,0-.043-.033-.034-.027-.011-.008-.044-.035-.02-.017-.025-.02-.046-.035-.006,0-.04-.033-.036-.03-.009-.007-.045-.037-.02-.017-.024-.02-.044-.037-.007-.006-.038-.031-.035-.031-.009-.007-.044-.037-.021-.02-.022-.018-.044-.038-.007-.006-.035-.033-.037-.033-.007-.006-.042-.038-.023-.02-.021-.018-.051-.047-.034-.031-.037-.034-.006,0-.042-.04-.024-.021-.018-.017-.042-.04-.01-.01-.031-.03-.038-.037,0,0-.042-.041-.024-.023-.017-.017-.041-.04-.011-.011-.03-.03-.038-.038h0l-.04-.041-.026-.026-.016-.016-.041-.041-.011-.011-.028-.03-.04-.04h0l-.04-.041-.027-.027-.014-.016-.04-.041-.013-.014-.027-.028-.04-.041h0l-.04-.041-.027-.028-.011-.014-.04-.042-.014-.016-.026-.027-.038-.042h0l-.037-.043-.028-.03Z" transform="translate(-1666.354 -654.883)"/><path class="al" d="M1714.078,686.785a11.8,11.8,0,1,1-4.763-15.988A11.8,11.8,0,0,1,1714.078,686.785Z" transform="translate(-1676.46 -660.335)"/><path class="am" d="M1694.608,684.156a11.773,11.773,0,0,1-2.015-3.158,11.746,11.746,0,0,0,5.209,5.68,11.936,11.936,0,0,0,1.966.846h0a11.868,11.868,0,0,1-5.16-3.367Z" transform="translate(-1676.171 -655.466)"/><path class="an" d="M1697.65,685.889h0a11.805,11.805,0,0,0,9.516-.987l.006,0A11.808,11.808,0,0,1,1697.65,685.889Z" transform="translate(-1674.053 -653.832)"/><path class="ao" d="M1694.9,688.8a11.795,11.795,0,0,1,4.682-18.9,11.8,11.8,0,0,0,9.994,21.28,11.805,11.805,0,0,1-9.516.987h0a11.894,11.894,0,0,1-1.968-.846A11.765,11.765,0,0,1,1694.9,688.8Z" transform="translate(-1676.459 -660.113)"/><path class="ap" d="M1711.138,684.854a9.293,9.293,0,1,1-3.753-12.6A9.294,9.294,0,0,1,1711.138,684.854Z" transform="translate(-1675.72 -659.596)"/><path class="aq" d="M1693.671,679.413a9.32,9.32,0,0,1,.248-2.222c2.32-.3,4.633-.735,6.938-1.224a2.888,2.888,0,0,0,.007,1.9c-2.391.565-4.779,1.148-7.193,1.551Zm14.573-3.112a4.335,4.335,0,0,0-.894-1.578c-.061-.068-.124-.135-.189-.2,1.083-.255,2.162-.511,3.243-.759a9.237,9.237,0,0,1,1.09,1.9C1710.408,675.866,1709.324,676.084,1708.244,676.3Z" transform="translate(-1675.72 -658.495)"/><path class="aq" d="M1694.868,683.078a9.351,9.351,0,0,1-1.183-4.067,63.635,63.635,0,0,0,7.48-1.329,6.07,6.07,0,0,0,.635.9l-1.154,2.365a1,1,0,0,1,0-.488,1.32,1.32,0,0,0-.29-1.217,1.3,1.3,0,0,0-.36-.284,1.369,1.369,0,0,0-.291-.115,1.325,1.325,0,0,0-1.616.941,3.662,3.662,0,0,0,.078,2.108c-1.114.365-2.218.756-3.3,1.185Zm10.953-3.323a4.893,4.893,0,0,0-.244-.616,5.272,5.272,0,0,0-.618-1l.664-1.362.219-.04a1.293,1.293,0,0,0,.232.367,1.315,1.315,0,0,0,1.233.42,1.321,1.321,0,0,0,1.074-1.224c1.144-.19,2.29-.38,3.432-.582a9.329,9.329,0,0,1,.427,2.487c-1.314.308-2.626.619-3.937.941Q1707.067,679.446,1705.822,679.755Z" transform="translate(-1675.714 -657.678)"/><path class="aq" d="M1695.395,683.188c-.094-.1-.186-.214-.274-.323a21.192,21.192,0,0,0,3.594-.67l-.011.024a1.314,1.314,0,0,0-.071.983l-.058.017a18.756,18.756,0,0,0-2.439.711,10.135,10.135,0,0,1-.741-.742Zm9.171-1.439a4.143,4.143,0,0,0,.6-1.033q1-.24,2-.477,2.107-.5,4.215-.983a9.072,9.072,0,0,1-.266.871c-1.121.285-2.232.592-3.33.87C1706.73,681.265,1705.652,681.508,1704.566,681.749Z" transform="translate(-1675.112 -656.196)"/><path class="aq" d="M1698.789,677.638a2.888,2.888,0,0,1-.007-1.9c2.107-.448,4.207-.945,6.3-1.442.065.064.128.13.189.2a4.335,4.335,0,0,1,.894,1.578c-.984.2-1.967.4-2.946.586C1701.739,676.95,1700.264,677.291,1698.789,677.638Z" transform="translate(-1673.644 -658.271)"/><path class="aq" d="M1696.905,681.723a3.67,3.67,0,0,1-.078-2.11,1.325,1.325,0,0,1,1.616-.941,1.369,1.369,0,0,1,.291.115,1.3,1.3,0,0,1,.36.284,1.32,1.32,0,0,1,.289,1.217.981.981,0,0,0,0,.488l1.154-2.365a6.061,6.061,0,0,1-.636-.9c1.138-.248,2.274-.5,3.412-.714q.522-.1,1.046-.194l-.664,1.362a5.275,5.275,0,0,1,.619,1,4.91,4.91,0,0,1,.244.616c-2.564.64-5.136,1.318-7.65,2.138Zm7.9-4.793a1.3,1.3,0,0,1-.233-.368q1.266-.226,2.54-.437a1.321,1.321,0,0,1-2.307.8Z" transform="translate(-1674.448 -657.507)"/><path class="aq" d="M1697.615,682.771a1.314,1.314,0,0,1,.071-.983l.011-.024c.265-.062.527-.123.783-.177,1.894-.4,3.781-.851,5.667-1.3a4.144,4.144,0,0,1-.6,1.033C1701.565,681.761,1699.556,682.2,1697.615,682.771Z" transform="translate(-1674.094 -655.764)"/></g><g transform="translate(1580.966 705.771)"><path class="af" d="M1595.813,699.816a1.4,1.4,0,0,0,.132-.176c-.377-.238-.749-.49-1.116-.749a8.79,8.79,0,0,1-7.079-.736h0a8.707,8.707,0,0,1-2.307-1.913c-.216.3-.446.593-.688.874h0l-.1.115-.061.068c1.016.551,2.028,1.115,3.042,1.674h0l.257.14h0c1.016.559,2.034,1.11,3.062,1.633.238.121.478.243.721.36C1592.952,701.033,1595.054,700.667,1595.813,699.816Z" transform="translate(-1570.221 -675.055)"/><path class="ag" d="M1595.921,701.369c-.242-.118-.482-.24-.721-.36-1.029-.525-2.046-1.074-3.062-1.633l.218,1.285a7.963,7.963,0,0,0,2.845.716,6.3,6.3,0,0,0,.719-.008Zm-3.942-.894-.1-1.24c-1.014-.559-2.026-1.124-3.042-1.674q-.268.3-.556.573a2.63,2.63,0,0,1-2.587.938,1.494,1.494,0,0,1-.451-.279,2.176,2.176,0,0,1-.652-1.23,5.745,5.745,0,0,1,.092-1.942,19.483,19.483,0,0,1-2.809,5.085q-.091.121-.2.238a1.428,1.428,0,0,1-1.452.63.875.875,0,0,1-.289-.172,1.843,1.843,0,0,1-.488-1.1,11.809,11.809,0,0,1,.525-4.52c-.094.149-.193.3-.294.44h0a11.608,11.608,0,0,1-2.886,2.863c-.048.034-.1.069-.153.1l.268,1.83a3.162,3.162,0,0,0,1.307-.88,3.053,3.053,0,0,0,.474-.708,8.916,8.916,0,0,0,.884,3.31,1.739,1.739,0,0,0,.787.911,1.721,1.721,0,0,0,1.686-.488,6.755,6.755,0,0,0,.718-.694,6.865,6.865,0,0,0,1.582-3.1,2.2,2.2,0,0,0,1.526,1.9,3.282,3.282,0,0,0,2.5-.267,6.545,6.545,0,0,0,1.891-1.549l.087-.1a7.885,7.885,0,0,0,1.622,1.125Zm-15.179.573q-.1.032-.2.055a1.834,1.834,0,0,1-1.75-.4,1.709,1.709,0,0,1-.329-1.534,2.942,2.942,0,0,1,.241-.657,1.2,1.2,0,0,0,.365.786.829.829,0,0,0,.213.14,1.405,1.405,0,0,0,1.29-.248Z" transform="translate(-1574.465 -675.316)"/><path class="ah" d="M1587,698.308h0l-.257-.141h0Z" transform="translate(-1569.323 -674.249)"/><path class="ai" d="M1587.215,699.594l-.218-1.285-.257-.141.1,1.24C1586.961,699.473,1587.088,699.534,1587.215,699.594Z" transform="translate(-1569.323 -674.249)"/><path class="ai" d="M1576.273,699.961l-.268-1.83-.017.01.174,1.856Z" transform="translate(-1573.827 -674.265)"/><path class="aj" d="M1593.179,686.841a8.713,8.713,0,0,1,2.375-3.7,8.407,8.407,0,0,1,6.048-1.806,18.363,18.363,0,0,1,6.2,1.754,3.112,3.112,0,0,1,.989.6,1.11,1.11,0,0,1,.33,1.059c-.15.5-.721.735-1.23.864a11.62,11.62,0,0,1-4.58.226,11.828,11.828,0,0,1,3.753,2.574,1.49,1.49,0,0,1,.451,1.426c-.244.62-1.073.712-1.737.671a19.478,19.478,0,0,1-5.68-1.226,5.789,5.789,0,0,1,1.525,1.208,1.96,1.96,0,0,1,.411,1.825c-.329.914-1.44,1.247-2.406,1.332a11.7,11.7,0,0,1-5.413-.81c-.888-.362-1.969-1.1-1.938-2.162A13.5,13.5,0,0,1,1593.179,686.841Z" transform="translate(-1567.004 -681.31)"/><path class="ak" d="M1605.493,688.384l0,0h0v0l0,0,0,0,0,0,0,0,0,0h0l.017-.021h0l.016-.021h0l0,0,.013-.018v0h0l.007-.013,0,0,0,0v0h0v0l.006-.009,0,0,0,0,0,0h0v0l.011-.021h0v0l.009-.018,0,0h0v0l0,0v0l0,0,0-.008v0h0l.007-.018,0-.006,0,0,.009-.023.007-.023.007-.024.007-.023.006-.023.006-.023,0-.024,0-.023,0-.024,0-.023v-.048h0v-.14l0-.023,0-.024,0-.024,0-.023,0-.024-.006-.023h0l-.006-.024h0l-.006-.023-.007-.024-.006-.023h0l-.009-.023-.007-.024h0l-.009-.023h0l-.009-.023h0l-.009-.024-.01-.023-.01-.023-.01-.023-.011-.023h0l-.01-.023h0l-.011-.023-.011-.023h0l-.011-.021-.013-.023h0l-.013-.023h0l-.013-.021-.013-.023-.013-.021-.013-.021h0l-.014-.021-.014-.021h0l-.014-.021-.014-.021h0l-.014-.021-.014-.02-.016-.021-.014-.02-.016-.02-.016-.021h0l-.016-.02h0l-.016-.02-.016-.018h0l-.016-.02h0l-.016-.02-.016-.018-.016-.018-.01-.01-.008-.011-.009-.01-.008-.01-.01-.01,0,0-.006-.007-.009-.01-.01-.011-.018-.02,0-.006,0,0h0l-.017-.018-.009-.01-.01-.01-.007-.008h0l-.009-.01-.01-.01-.009-.01-.01-.01-.009-.01h0l-.009-.008-.009-.01-.01-.008-.01-.01-.009-.01,0,0-.006-.006-.009-.01-.01-.01-.01-.008-.009-.01-.007-.007,0,0-.01-.01-.008-.009-.01-.01-.018-.018h0l-.028-.028-.01-.009-.01-.01h0l-.007-.008-.01-.008-.03-.028,0,0-.006,0-.01-.01-.009-.008-.028-.026v0l-.01-.008-.01-.01-.01-.008-.01-.009-.01-.01h0l-.008-.009-.01-.008-.01-.01-.01-.008-.01-.008,0,0-.006-.006-.014-.011-.014-.013-.013-.011-.006-.006-.009-.006-.013-.013-.014-.011L1604.5,686l0-.006-.009-.007-.014-.011-.013-.011-.014-.011,0,0-.01-.007-.014-.013-.013-.011-.014-.011,0,0-.01-.009-.014-.011-.014-.011-.013-.011,0,0-.011-.008-.014-.011-.014-.011-.014-.011h0l-.011-.01-.014-.011-.014-.011-.014-.011h0l-.013-.011-.014-.01-.015-.011-.014-.011h0l-.016-.011-.014-.01-.014-.011-.013-.011h0l-.014-.011-.014-.01-.016-.011-.013-.01h0l-.014-.011-.014-.01-.014-.011-.013-.009,0,0h0l-.028-.02-.014-.01-.011-.008h0l-.016-.011-.014-.011-.014-.01-.011-.007,0,0-.014-.011-.016-.01-.014-.01-.01-.007-.006,0-.014-.011-.016-.01-.014-.01-.009-.007-.007,0-.014-.01-.016-.01-.014-.01-.009-.006-.007,0-.014-.01a.884.884,0,0,1,.218.725.765.765,0,0,1-.191.386,2.06,2.06,0,0,1-1.187.516,22.463,22.463,0,0,1-5.406.22,3.5,3.5,0,0,1,.115,4.224c-.051.068-.1.135-.162.2a3.165,3.165,0,0,1-.343.331h.8l.048,0,.017,0h.016l.033,0h.13l.036,0h.013l.043,0h.017l.028,0h.009l.035,0h0l.034,0h.011l.025,0,.02,0,.017,0,.03,0h.007l.036-.006h0l.033-.006h.013l.094-.016h0l.037-.007h0l.047-.009.023,0,.023-.006.014,0,.033-.007h0l.037-.008.006,0,.047-.011.02-.006.025-.006.011,0,.034-.01h0l.135-.038.009,0,.036-.011h0l.035-.011.01,0h0l.085-.031h.007l.035-.014.033-.013.011,0h0l.076-.033h0l.006,0,.033-.014h0c.041-.018.081-.038.122-.06h0l.031-.017,0,0,.038-.02,0,0c.026-.014.05-.028.074-.044h0l.03-.018.005,0,.007-.006c.036-.023.069-.046.1-.07h0a1.83,1.83,0,0,0,.317-.294h0l.026-.031h0l.024-.033,0,0,.02-.028,0,0,0,0,.02-.03v0l0-.006.018-.03h0v0l0-.006.017-.031h0l.02-.035h0l0-.009.009-.016,0-.008,0-.006v0l0-.009,0-.008.007-.016,0,0v0l.016-.034v-.008l.011-.026,0-.008h0l.016-.042.01-.028.01-.03.009-.028.009-.03.007-.028.005-.03.007-.03.006-.03,0-.028,0-.03,0-.03,0-.03,0-.031,0-.028v-.061l0-.03v-.03l0-.03h0v-.06h0l0-.03,0-.03,0-.03h0l0-.03,0-.03,0-.03h0l-.006-.03-.006-.031-.007-.028h0l-.006-.03-.009-.028-.007-.03h0l-.008-.03-.009-.03h0l-.009-.028-.01-.03h0l-.01-.028-.01-.03-.011-.028h0l-.011-.028h0l-.013-.028h0l-.011-.028h0l-.013-.028h0l-.013-.028-.013-.027-.014-.028-.013-.027h0l-.015-.028-.016-.027-.014-.027-.016-.027h0l-.016-.027-.016-.026h0l-.017-.026-.016-.026-.017-.026-.017-.026h0l-.019-.024-.017-.026-.019-.024-.018-.026-.019-.024-.018-.024-.006-.007-.007-.007,0-.006,0,0,0,0-.006-.007-.006-.007-.006-.006h0l-.006-.007-.006-.007-.006-.007,0,0,0,0-.011-.014,0-.006h0l-.006-.006-.007-.007-.005-.007h0l0,0-.006-.007-.006-.006,0-.006h0l-.006-.007-.006-.006-.007-.007h0l0,0-.006-.007-.006-.006,0-.006h0l-.007-.006-.006-.007-.006-.006h0l0-.006-.007-.006-.006-.007,0,0v0l-.007-.007-.006-.006-.007-.006h0l-.006-.006-.006-.006-.007-.007,0,0,0,0-.006-.006-.007-.007-.006-.006h0l-.007-.006-.006-.007-.006-.006h0l0,0-.007-.006-.005-.007-.006,0h0l-.006-.006-.006-.006-.007-.007h0l0,0-.007-.006-.007-.006,0,0h0l-.007-.006-.006-.006-.007-.007h0l0,0-.007-.006-.011-.01-.006,0-.016-.014h0l-.016-.013-.009-.007-.007-.007-.016-.013h0l-.016-.014-.006,0-.011-.009-.013-.011,0,0-.017-.014h0l-.016-.013-.008-.007-.007-.006-.017-.013h0l-.018-.013-.006,0-.01-.01-.014-.01,0,0-.017-.013,0,0-.014-.01-.01-.008-.007-.006-.017-.013h0l-.018-.013-.006-.006-.011-.007-.014-.01,0,0-.019-.013,0,0-.014-.01-.011-.009-.007,0-.017-.013h0l-.018-.013-.007-.006-.01-.007-.016-.01,0,0-.017-.013,0,0-.014-.01-.011-.009-.007,0-.017-.013h0l-.017-.011-.009-.006-.01-.007-.016-.01h0l-.017-.013-.006,0-.013-.008-.013-.009-.006,0-.018-.011h0l-.017-.011-.008-.006-.01-.006-.016-.011h0l-.018-.011,0,0-.013-.008-.015-.008,0,0-.018-.013h0l-.016-.01-.01-.007-.009-.006-.017-.01h0l-.018-.011-.007,0-.011-.007-.014-.008,0,0-.018-.011,0,0-.016-.01-.01-.006-.009-.006-.019-.011h0l-.018-.011-.007,0-.011-.007-.014-.008,0,0-.018-.011,0,0-.014-.01-.011-.006-.007,0-.018-.013.085.033h0l.085.031h0l.085.031h0l.087.031.085.031.087.03h0l.087.03.085.028.087.03h0l.087.028h0l.088.027h0l.085.027h0l.087.027h0l.087.027h0l.088.027h0l.086.026h0l.088.026h0l.088.026.087.024h0l.087.024h0l.088.024.088.024.088.023h0l.09.023.088.023h0l.088.021.089.023.088.02.089.021.088.02.09.02.089.02.089.018.088.018.089.018.091.018.088.017.091.017.089.016.089.017.089.016.091.016.089.014.09.014.091.014.089.014.091.013.091.013.09.011.091.013.091.011.089.011.091.01.091.011.091.008.09.01.092.008.089.008.091.009.091.007.092.007.091.007.09.006.092.007h.031l.02,0h.41l.023,0h0l.028,0h0l.027,0h.006l.021,0h.055l.021,0h.01l.051-.006h0l.023,0h.01l.017,0,.014,0h.013l.02,0h.007l.024,0h0l.026-.006h0l.007,0,.024,0,.018,0,.013,0,.013,0,.018,0h.009l.021-.007h0l.024-.007h0l.023-.007h.007l.028-.01h0l.013,0,.016-.006h0l.055-.023h0a1.04,1.04,0,0,0,.109-.05h0l.006,0,.021-.011h0l.026-.014.018-.011.007,0,.013-.008.011-.007,0,0,.044-.03h0l.02-.016h0l.017-.013,0-.006h0l.04-.034,0,0,.006,0,.016-.016h0l.016-.018h0l.016-.017Zm-7.258-.813Z" transform="translate(-1565.142 -679.605)"/><path class="ak" d="M1605.592,684.634l0,0h0l0,0,0,0,0,0,0-.006h0v0l0,0,0,0,0-.006h0l0,0,0,0,0-.006,0,0h0l0,0,0-.006,0,0,0-.006h0l0,0,0-.006,0,0,0-.006h0l0,0,0-.006,0,0,0-.006h0l0,0,0-.006,0-.006,0,0h0l0-.006,0-.006,0,0v0h0l0-.006,0,0,0-.006,0,0h0l0-.006,0-.006,0,0v0h0l0-.006,0-.006v-.006l0,0v0l0-.006,0-.006v-.01l0-.013,0-.006h0v0l0-.006,0-.006v-.006h0l0,0,0-.011v-.007h0l0-.006,0-.006V684.3l.006-.018,0-.017,0-.017,0-.018,0-.017h0l0-.018,0-.017,0-.017h0v-.017l0-.018v-.036h0v-.071h0V684l0-.017h0v-.018l0-.017h0l0-.018,0-.017h0l0-.018h0l0-.017h0l0-.018,0-.017,0-.017,0-.017,0-.018-.006-.017-.006-.017-.006-.017-.006-.017-.007-.018-.006-.016-.007-.017-.007-.017-.007-.017-.009-.017-.007-.017-.009-.016-.009-.017-.009-.016-.009-.016-.009-.017h0l-.01-.016-.01-.016-.01-.016h0l-.01-.016-.01-.016-.01-.014-.01-.016-.011-.016-.011-.014-.011-.016h0l-.011-.014-.011-.014-.011-.014-.011-.013-.013-.014-.013-.014-.011-.013-.013-.013-.013-.014h-.037l0,0h-.007l0,0h0v0h-.024l0,0-.008-.009,0,0-.008-.007-.006,0-.007-.006-.007-.007-.006,0-.009-.006,0,0-.01-.009h0l-.011-.01h0l-.011-.01h0l-.013-.01h0l-.012-.01h0l-.01-.008,0,0-.01-.007,0,0-.009-.006-.007,0-.007-.006-.007,0-.006,0-.01-.007,0,0-.01-.007h0l-.011-.008h0l-.013-.009h0l-.014-.008h0l-.013-.009h0l-.011-.008h0l-.01-.007-.006,0-.008-.006-.007,0-.007,0-.008,0-.006,0-.01-.006,0,0-.012-.006,0,0-.013-.006v0l-.014-.007h0l-.014-.009h0l-.014-.009h0l-.013-.007h0l-.011-.007h0l-.01-.006-.006,0-.009,0-.008,0-.007,0-.009-.006h-.006l-.011-.006,0,0-.011-.006h0l-.014-.007h0l-.014-.007h0l-.016-.007h0l-.013-.007,0,0-.013-.006h0l-.01-.006-.007,0-.008,0-.007,0-.007,0-.01,0-.006,0-.01-.006h-.006l-.011-.006h0l-.014-.007h0l-.016-.007h0l-.015-.006h0l-.014-.007h0l-.013-.006,0,0-.01,0-.006,0-.01,0-.007,0-.009,0-.009,0h-.006l-.011-.006h0l-.011-.006h0l-.014-.006h0l-.016-.006-.01-.006-.01,0-.01,0-.008,0-.01,0-.01,0-.01,0-.01,0-.01,0h0l-.005,0-.01,0-.01,0-.01,0-.01,0-.01,0-.009,0-.011,0-.009,0-.008,0h0l-.01,0-.01,0-.01,0-.01,0-.01-.006-.01,0-.01-.006-.01,0-.01,0,0,0-.007,0-.01,0-.01,0-.01-.006-.01,0-.009-.006-.011,0-.009-.006-.01,0-.009,0h0l-.01,0-.01,0-.01-.006-.01,0-.01,0-.01,0-.01,0-.01,0-.01,0h0l-.009,0-.01,0-.01,0-.01,0-.01,0-.01,0-.01,0-.01,0-.01,0-.006,0h0l-.01,0-.01,0-.01,0-.008,0-.01,0-.011,0-.009,0a2.257,2.257,0,0,1,.018,1.209,2.207,2.207,0,0,1-.485.88,2.6,2.6,0,0,1-3.12.6,1.1,1.1,0,0,0,.251.4h0l.048,0h.016l.055.006h.009l.064.006h0l.064.006h.009l.055.006h.016l.047,0h.025l.038,0,.033,0h.1l.05,0h.014l.058,0h.006l.064,0h.074l.054,0h.894l.063,0h0l.064,0h.007l.057,0h.016l.048,0,.024,0,.04,0,.033,0,.031,0,.04,0,.024,0,.048,0h.016l.055-.006h.007l.064-.007h0l.062-.006h.009l.054-.007h.018l.045-.006.025,0,.038-.006.034,0,.03,0,.041-.006.021,0,.05-.007.014,0,.058-.009h0l.064-.01h0l.06-.01h.011l.053-.008.018,0,.044-.007.029,0,.034-.006.037-.007.026-.006.045-.007.018,0,.052-.01.01,0,.06-.011h0l.063-.013h.006l.057-.011.014,0,.048-.01.063-.014.03-.006.033-.008.038-.008.024-.006.046-.011.016,0,.054-.014h.009l.062-.016.017,0h.007l.011,0,.011,0h.006l.019,0h0l.018-.006h.006l.011,0,.013,0h.006l.018-.006h0l.017,0,.009,0,.01,0,.014,0h0l.018-.006h0l.016-.006.009,0,.01,0,.014,0h0l.017-.006h0l.016-.006.009,0,.01,0,.014-.006h0l.018-.007h0l.014-.006.01,0,.009,0,.014-.006h0l.017-.007h0l.014-.006.01,0,.009,0,.014-.006h0l.017-.007h0l.014-.006.008-.006.009,0,.016-.007h0l.017-.008h0l.013-.007.01,0,.007,0,.016-.009h0l.017-.008.006,0,.011-.006.01-.006.006,0,.017-.01h0l.016-.009.006,0,.011-.007.01-.006.006,0,.016-.01h0l.016-.01.006,0,.01-.006.011-.007,0,0,.014-.01h0l.014-.01.005,0,.009-.006.011-.009h0l.014-.011h0l.013-.01.006,0,.009-.007.012-.009,0,0,.014-.011,0,0,.011-.01.006,0,.009-.007.01-.01,0,0,.013-.011.026-.024.01-.011h0l.013-.013,0,0Z" transform="translate(-1563.666 -680.867)"/><path class="aj" d="M1587.31,691.025a8.728,8.728,0,0,0-4.352-.643,8.412,8.412,0,0,0-5.338,3.371,18.39,18.39,0,0,0-2.751,5.824,3.087,3.087,0,0,0-.2,1.139,1.108,1.108,0,0,0,.579.945,1.565,1.565,0,0,0,1.46-.36,11.583,11.583,0,0,0,3.18-3.3,11.811,11.811,0,0,0-.525,4.52,1.486,1.486,0,0,0,.777,1.276c.627.224,1.243-.339,1.647-.868a19.481,19.481,0,0,0,2.809-5.085,5.745,5.745,0,0,0-.092,1.942,1.952,1.952,0,0,0,1.1,1.51,2.63,2.63,0,0,0,2.587-.938,11.7,11.7,0,0,0,2.946-4.613c.311-.907.468-2.2-.356-2.882A13.474,13.474,0,0,0,1587.31,691.025Z" transform="translate(-1574.38 -677.537)"/><g transform="translate(4.921 19.232)"><path class="ak" d="M1587.448,697.809h0v0h0v0h0l0,0v0h0l0,0,0,0h0l0,0v0h.006v0h0l0,0h0l0,0h0v0h0v0h0l0,0h0v0h0l.006-.006h0l0,0h0l0,0h0l0,0h.006v0h0v0h.006a3.147,3.147,0,0,1-.731.033,3.5,3.5,0,0,1-3.107-2.862q-.607.819-1.287,1.583a22.59,22.59,0,0,1-2.431,2.345c-.453.376-1.083.749-1.588.448a.9.9,0,0,1-.4-.643l0,.031,0,.031,0,.031,0,.031,0,.031v.033l0,.031v.031l0,.031,0,.028v0l0,.031,0,.031v0l0,.027,0,.031v.013l0,.018v.064l0,.031v.031l0,.058v.01l0,.027v.257l0,.027v.22l0,.031v.189l0,.03h0l0,.064v.007l0,.024v.031l0,.016v.016l0,.033v.031l0,.031,0,.031h0l0,.031,0,.031v.031l0,.033v.016l0,.016,0,.031,0,.024v.007l.005.031,0,.033,0,.018v.006l0,.013v.02l0,.016v0l0,.018v0l0,.016,0,.009v.011l0,.013v.006l0,.02h0l0,.018v.006l0,.014,0,.01v.008l0,.017v0l0,.018v0l0,.017,0,.009,0,.01,0,.014,0,.006,0,.018h0l.006.02v.006l0,.013,0,.011v.009l.006.016v0l.007.018v0l.006.017,0,.007,0,.011,0,.013v.006l.007.018h0l.007.018,0,.006.006.013,0,.011,0,.007.007.016v0l.009.018v0l.007.016,0,.007,0,.01.006.013,0,.006.007.017h0l.008.018,0,.006.006.011,0,.01,0,.007.008.017.009.017v0l.008.014,0,.009.006.008.007.013,0,0,.009.016h0l.01.016v0l.007.011.007.01,0,.006.008.014h0l.01.016,0,0,.009.013.006.007.006.007.008.011,0,0,.023.03,0,0,.008.01.007.009.006.006.011.011v0l.038.04.01.01,0,0,.014.013v0l.013.011.008.007,0,0,0,0,0,0h0l0,0,0,0,0,0,0,0h0l0,0,0,0,0,0,0,0h0l0,0,0,0,0,0,.008.006,0,0,0,0,.013.009,0,0,0,0,.006,0h0l0,0,0,0,0,0,0,0,.01.006,0,0,0,0,.01,0,0,0,0,0,.006,0h0l0,0,0,0,.006,0,0,0h0l.006,0h0l0,0h.01l.006,0h0l.005,0h.01l0,0,.006,0h.01l.006,0h.014l.026.009,0,0,.021.006h0l.014,0,.014,0h.007l.011,0,.017,0h.007l.023,0h0l.024,0h0l.024,0h.151l.021,0h.009l.016,0h.006l.016,0h0l.016,0h.009l.02,0h.007l.044-.01h.006l.02-.006h0l.017-.006.01,0,.043-.014.023-.007h0l.024-.008h0l.021-.009.007,0,.017-.007h0l.021-.01h0l.014-.006.01,0,.019-.01,0,0,.023-.011h0l.023-.013h0l.02-.011.007,0,.016-.008.011-.007.011-.007.014-.01.008,0,.019-.013,0,0,.023-.014h0l.023-.016,0,0,.017-.013.008-.006.014-.01.012-.009.01-.008.016-.011.026-.02h0l.021-.018h0l.02-.016,0,0,.016-.014.01-.007.011-.011.013-.01.048-.045h0l.02-.019,0,0,.017-.017.007-.006.013-.014.01-.01.047-.047,0,0,.018-.02h0l.019-.02,0,0,.021-.024.013-.013.01-.013.021-.023,0,0,0,0,.033-.037,0,0h0v0l.01-.01,0,0,0,0,0,0h0l.006-.006,0,0,.006-.007,0,0,0,0h0l.006-.009,0,0,.007-.009,0,0,0,0v0l0,0,.006-.007,0,0,0,0,0,0h0l0,0,0,0,0,0,0,0,0,0,0,0,0,0h0l0,0,0,0v0l0,0,0,0,0,0h0v0l0,0,0,0,0,0,0,0,0,0,0,0a19.479,19.479,0,0,0,2.809-5.085,5.745,5.745,0,0,0-.092,1.942l0,.023,0,.009,0,.013,0,.017,0,0,0,.021v0l.013.06h0l.007.028,0,.014,0,.016,0,.007.006.021h0l.006.02,0,.01.01.028v0l.007.021v0l.006.017,0,.013,0,.008.007.02h0l.007.021,0,.007.023.058.007.017,0,.011.024.057.007.014.006.014.014.027h0l.027.055,0,0,.01.02v0l.009.017.007.01,0,.008.01.018v0l.011.018,0,.007.007.013.008.014,0,0,.013.02h0l.01.017.006.009.007.01.01.016,0,0,.013.017,0,.006.01.013.008.013,0,.006.013.017v0l.013.017.006.007.009.01.01.014,0,0,.014.018.014.016.007.01.007.007.013.017h0l.014.016.013.014v0l.011.011,0,0,.014.016,0,0,.013.013.016.016.014.014h0l.016.014.033.03.006.006.018.016.007.006.006.006,0,0,0,0,.006.006.007,0,.006.006h0l.007,0,.007.006.006.006,0,0h0l.007.006.006.006.007,0h0l.007,0,.006,0,.007,0,.007.006.007,0,.006.006.007,0h0l0,0,.007.006.007,0,.006,0h0l.007,0,.007,0,.007,0,0,0,0,0,.009,0,.006,0,.009,0h0l.007,0,.007,0,.007,0,.006,0h0l.007.006.007,0,.007,0h0l0,0,.007,0,.009,0,.007,0h0l.007,0,.007,0,.009,0,0,0h0l.009,0,.007,0,.007,0h0l.006,0,.008,0,.007,0,.006,0h0l.007,0,.009,0,.007,0h0l.006,0,.007,0,.009,0,.007,0a2.63,2.63,0,0,0,2.587-.938l.009-.009.01-.009.009-.01.009-.009.01-.008.009-.009.009-.007h0l.01-.008.009-.009.017-.018.01-.008.008-.009.007-.007h0l.009-.009.009-.01.01-.009.009-.009.009-.008.009-.01.007-.006,0,0,.009-.009.009-.009.008-.008.009-.01.01-.008.009-.009.006-.006,0,0,.009-.01.009-.008.008-.01.009-.008.01-.009.009-.008,0-.006,0,0,.009-.008.009-.009.009-.01.017-.017.008-.01,0,0,0,0,.009-.008.036-.037.009-.009,0,0,.005-.006.007-.009.036-.037.008-.008,0,0,.047-.051.009-.01,0,0,.006-.006.009-.01h.009l.006-.006h.011l0,0h.033Zm-8.1,4.088.043-.014-.043.014Zm3.886-5.961" transform="translate(-1577.933 -694.865)"/></g><path class="ak" d="M1578.769,697.218l.014-.016.014-.016.011-.014h0l.014-.016.014-.016.013-.016,0-.006.01-.011.014-.016.013-.016.011-.011,0,0,.014-.016.03-.036.01-.011.027-.033.01-.011,0,0,.014-.016.028-.036.011-.013.013-.017.014-.016.009-.01,0-.006.013-.017.027-.031h0l.024-.031.013-.017.007-.008.005-.007.013-.017.013-.016.014-.016h0l.013-.016.013-.017.013-.016.006-.008.007-.008.013-.017.013-.016.013-.016h0l.013-.017.013-.016.011-.017.006-.007.007-.008.013-.017.013-.017.011-.014v0l.013-.016.011-.017.013-.017,0-.006.008-.011.013-.017.011-.017.01-.013,0,0,.013-.017.011-.017.013-.017,0,0,.009-.013.013-.017.011-.017.008-.011,0-.006.011-.017.013-.017h0a1.111,1.111,0,0,0-.133-.45,2.219,2.219,0,0,1-.535,1.051,2.589,2.589,0,0,1-2.953.691,2.234,2.234,0,0,1-.9-.807l0,.01,0,.01,0,.01,0,.01,0,.011,0,.01,0,.01v0l0,.006,0,.01,0,.011,0,.01,0,.01,0,.01,0,.011-.02.061,0,.01,0,.01,0,.01,0,.011,0,.01,0,.01v0l0,.007,0,.01,0,.011,0,.01,0,.01,0,.01,0,.01,0,.011,0,.01,0,.007v0l0,.01,0,.01,0,.01,0,.011,0,.01,0,.01,0,.01,0,.01,0,.011h0l0,.009,0,.01,0,.01,0,.011,0,.01,0,.01,0,.01,0,.011,0,.01v.006l0,0,0,.01,0,.011,0,.01,0,.01,0,.01,0,.011,0,.01,0,.01,0,.01a3.087,3.087,0,0,0-.2,1.139v.057l0,.014h0v.037l0,0,.007.043v.014l0,.014,0,.014a1.278,1.278,0,0,0,.075.231l0,.013,0,0c.017.038.037.075.057.111v0a1.026,1.026,0,0,0,.2.247l.021.018,0,0,0,0,.006.006h0l0,0,0,0h0l0,0,0,0h0l0,0h0l0,0,0,0h0l0,0h0l0,0,0,0h0l0,0h0l0,0h0l0,0h.011l0,0h0l0,0h0l0,0h0l0,0h0l0,0h.007l0,0h0l0,0h.019l0,0h.007l0,0,0,0h.014l0,0h0l.02.008h0l.017.007h.005l.014.006.008,0,.011,0h0l.014.006h0l.014,0,.006,0,.017,0h0l.02.006h0l.02,0h0l.016,0h.023l.019,0,.013,0h.275l.02,0h.021l.013,0h.007l.017,0h0l.02,0h0l.02,0h0l.019,0h.006l.016,0,.009,0,.013,0,.01,0,.01,0,.014,0h.007l.017-.006h0l.02-.007h0l.02-.007h0l.017-.006.006,0,.016-.006.009,0,.011-.006.011,0,.01,0,.013-.006h.007l.017-.009h0l.02-.008h0l.021-.01h0l.017-.009.006,0,.016-.007.007,0,.013-.006.011-.006.008,0,.014-.007,0,0,.018-.008v0l.02-.011h0l.019-.01,0,0,.017-.009.005,0,.013-.007.01-.006.01-.006.011-.007.009,0,.014-.009,0,0,.017-.01,0,0,.018-.01h0l.019-.011h.016v0h0l0,0h.044v0h0v0h.007l0,0h0l0,0h.014l.013-.008h.011l0,0h.019l0,0h.014v0h0l.035-.024.024-.017.011-.007.036-.026.013-.009.023-.017.034-.024h0l.034-.024.024-.017.01-.009.036-.025.013-.009.021-.017.034-.026h0l.033-.024.024-.018.01-.007.034-.027.014-.01.02-.016.034-.027h0l.031-.024.025-.021.009-.006.033-.027.016-.011.018-.016.034-.027,0,0,.03-.024.027-.021.007-.006.033-.028.016-.013.018-.014.033-.027,0,0,.028-.024.027-.023.005-.006.033-.027.017-.014.016-.014.033-.028.005,0,.027-.024.027-.024,0,0,.033-.028.017-.016.016-.013.038-.035.026-.023.027-.026,0,0,.031-.03L1578,698l.014-.013.031-.028.007-.007.024-.023.029-.027,0,0,.031-.03.017-.017.014-.013.03-.03.009-.008.023-.021.028-.028,0,0,.03-.03.018-.018.013-.011.03-.031.009-.009.021-.021.03-.031h0l.031-.031.018-.02.011-.011.029-.031.01-.01.02-.021.03-.031h0l.03-.031.02-.021.009-.01.03-.031.01-.011.018-.021.03-.031h0l.029-.031.02-.023Z" transform="translate(-1574.38 -675.273)"/><path class="al" d="M1584.773,698.991a8.77,8.77,0,1,0,3.541-11.887A8.77,8.77,0,0,0,1584.773,698.991Z" transform="translate(-1570.59 -679.326)"/><path class="am" d="M1595.644,697.037a8.775,8.775,0,0,0,1.5-2.348,8.8,8.8,0,0,1-5.335,4.851v0a8.958,8.958,0,0,0,1.461-.629A8.761,8.761,0,0,0,1595.644,697.037Z" transform="translate(-1567.201 -675.706)"/><path class="an" d="M1593.9,698.326h0a8.772,8.772,0,0,1-7.074-.734h0A8.789,8.789,0,0,0,1593.9,698.326Z" transform="translate(-1569.29 -674.491)"/><path class="ao" d="M1597.733,700.491a8.768,8.768,0,0,0-3.48-14.051,8.771,8.771,0,0,1-7.431,15.822,8.773,8.773,0,0,0,7.074.734h0a8.837,8.837,0,0,0,3.837-2.5Z" transform="translate(-1569.289 -679.161)"/><path class="ap" d="M1585.86,697.557a6.91,6.91,0,1,0,2.789-9.366A6.911,6.911,0,0,0,1585.86,697.557Z" transform="translate(-1570.041 -678.777)"/><path class="aq" d="M1598.678,693.51a6.8,6.8,0,0,0-.185-1.651c-1.725-.226-3.443-.546-5.157-.911a2.157,2.157,0,0,1-.006,1.41c1.776.42,3.553.854,5.348,1.152Zm-10.833-2.313a3.182,3.182,0,0,1,.664-1.173c.044-.051.092-.1.14-.148-.806-.19-1.609-.38-2.412-.565a6.852,6.852,0,0,0-.81,1.412C1586.234,690.874,1587.04,691.036,1587.845,691.2Z" transform="translate(-1569.873 -677.958)"/><path class="aq" d="M1597.949,696.234a6.955,6.955,0,0,0,.88-3.022,46.854,46.854,0,0,1-5.56-.989,4.647,4.647,0,0,1-.474.671l.857,1.758a.716.716,0,0,0,0-.363.979.979,0,0,1,.483-1.115,1.04,1.04,0,0,1,.217-.087.984.984,0,0,1,1.2.7,2.717,2.717,0,0,1-.057,1.568c.829.271,1.649.562,2.456.88Zm-8.144-2.47a3.71,3.71,0,0,1,.182-.457,3.951,3.951,0,0,1,.46-.745l-.494-1.014-.162-.028a.986.986,0,0,1-.173.274,1.006,1.006,0,0,1-.267.211.983.983,0,0,1-1.449-.81c-.85-.142-1.7-.282-2.551-.433a6.986,6.986,0,0,0-.318,1.849q1.464.343,2.927.7C1588.573,693.461,1589.189,693.611,1589.8,693.764Z" transform="translate(-1570.038 -677.351)"/><path class="aq" d="M1597.053,696.317c.07-.078.138-.159.2-.24a15.858,15.858,0,0,1-2.672-.5l.009.017a.984.984,0,0,1,.054.732l.043.013a13.828,13.828,0,0,1,1.813.528,7.45,7.45,0,0,0,.55-.552Zm-6.819-1.07a3.077,3.077,0,0,1-.446-.769l-1.485-.353q-1.567-.37-3.135-.731c.053.217.122.433.2.648.833.211,1.66.438,2.476.646C1588.625,694.888,1589.427,695.068,1590.234,695.247Z" transform="translate(-1569.981 -676.249)"/><path class="aq" d="M1592.616,692.192a2.156,2.156,0,0,0,.006-1.41c-1.566-.332-3.128-.7-4.687-1.071-.048.048-.1.1-.14.148a3.181,3.181,0,0,0-.664,1.173c.731.148,1.462.3,2.189.436C1590.423,691.679,1591.52,691.933,1592.616,692.192Z" transform="translate(-1569.16 -677.792)"/><path class="aq" d="M1594.646,695.227a2.717,2.717,0,0,0,.057-1.568.984.984,0,0,0-1.2-.7,1.033,1.033,0,0,0-.217.086.979.979,0,0,0-.483,1.115.731.731,0,0,1,0,.363l-.858-1.758a4.646,4.646,0,0,0,.474-.671c-.847-.184-1.693-.369-2.538-.531q-.387-.075-.778-.145l.494,1.015a3.951,3.951,0,0,0-.46.745,3.711,3.711,0,0,0-.182.457c1.907.477,3.818.982,5.688,1.591Zm-5.875-3.561a.986.986,0,0,0,.173-.274q-.942-.168-1.888-.325a.984.984,0,0,0,1.449.81A1.007,1.007,0,0,0,1588.771,691.666Z" transform="translate(-1569.191 -677.223)"/><path class="aq" d="M1593.282,696.008a.976.976,0,0,0-.052-.732l-.009-.017c-.2-.047-.392-.092-.582-.132-1.409-.3-2.812-.634-4.214-.969a3.074,3.074,0,0,0,.446.769C1590.346,695.256,1591.84,695.581,1593.282,696.008Z" transform="translate(-1568.618 -675.929)"/></g><path class="c" d="M1644.864,676.792a.983.983,0,0,1-.818-.443,1,1,0,0,1-.165-.518c0-.119-.048-2.924,3.07-5.576,1.562-1.328,2.242-2.724,1.915-3.932a2.428,2.428,0,0,0-1.794-1.727,2.223,2.223,0,0,0-.4-.037c-1.89,0-2.638,2.524-2.67,2.638a.986.986,0,0,1-.947.715.987.987,0,0,1-.946-1.247c.417-1.493,1.872-4.076,4.532-4.076a4.324,4.324,0,0,1,.781.072,4.428,4.428,0,0,1,3.347,3.148c.311,1.149.392,3.449-2.541,5.944-2.357,2.005-2.378,3.95-2.376,4.033a.978.978,0,0,1-.956,1Z" transform="translate(34.818 16.619)"/></g></svg>