<svg xmlns="http://www.w3.org/2000/svg" xmlns:xlink="http://www.w3.org/1999/xlink" width="309.33" height="197.89" viewBox="0 0 309.33 197.89"><defs><style>.a{fill:none;clip-rule:evenodd;}.b{fill:#ebf3fa;}.aa,.ab,.ac,.ad,.ae,.af,.ag,.ah,.ai,.b,.c,.e,.f,.g,.h,.i,.j,.k,.l,.m,.n,.o,.p,.q,.r,.s,.t,.u,.v,.w,.x,.y,.z{fill-rule:evenodd;}.c{fill:#f8fbff;}.d{clip-path:url(#a);}.e{fill:#d9e9fc;}.f{fill:#e1efff;}.g{fill:#8cb7ea;}.h{fill:#b4d5ef;}.i{fill:#afd295;}.j{fill:#82b378;}.k{fill:#466eb6;}.l{fill:#f79c8d;}.m{fill:#50bfa5;}.n{fill:#fff3d9;}.o{fill:#fed333;}.p{fill:#f47458;}.q{fill:#96d9c9;}.r{fill:#41395d;}.s{fill:#0f227a;}.t{fill:#342546;}.u{fill:#bfbbc8;}.v{fill:#292b48;}.w{fill:#fdfefe;}.x{fill:#b6b3cf;}.y{fill:#464577;}.z{fill:#8a8db0;}.aa{fill:#a4a1b6;}.ab{fill:#8a9bbc;}.ac{fill:#b9bcbb;}.ad{fill:#403964;}.ae{fill:#fff;}.af{fill:#433b78;}.ag{fill:#fdf7d6;}.ah{fill:#93b0d7;}.ai{fill:#000072;}</style><clipPath id="a"><path class="a" d="M1169.341,613.321a91.923,91.923,0,0,0,.919-14.1,78.982,78.982,0,0,0-1.414-13.983,70.566,70.566,0,0,0-18.164-35.282c-27.993-29.927-53.135-26.014-71.223-22.1-6.772,1.465-12.555,2.928-17.128,2.617a14.6,14.6,0,0,1-8.251-3.631c-4.759-3.849-9.365-10.3-15.79-17.226-9.632-10.379-23.351-21.825-47.8-27.174-30.255-6.618-71.817-4.764-89.8,15.129-10.876,12.033-13.124,30.666.981,58.015q1.285,2.494,2.756,5.087,1.235,2.178,2.158,4.161a32.415,32.415,0,0,1,2.858,8.864c.931,6.276-1.206,10.717-5.038,14.372a31.471,31.471,0,0,1-3.694,2.986c-4.476,3.139-10.132,5.833-15.771,8.992a81.329,81.329,0,0,0-9.124,5.811,42.448,42.448,0,0,0-7.39,6.96,32.968,32.968,0,0,0-3.788,5.717c-.062.117-.122.235-.181.354-33.773,66.871,291.585,89.226,304.884-5.566Z" transform="translate(-862 -479)"/></clipPath></defs><g transform="translate(-862 -479)"><path class="b" d="M1170.01,613.321a92.124,92.124,0,0,0,.919-14.1,78.952,78.952,0,0,0-1.415-13.983,70.576,70.576,0,0,0-18.162-35.282c-27.993-29.927-53.137-26.014-71.225-22.1-6.772,1.465-12.553,2.928-17.128,2.617a14.6,14.6,0,0,1-8.25-3.631c-4.759-3.849-9.365-10.3-15.792-17.226-9.632-10.379-23.35-21.825-47.8-27.174-30.255-6.618-71.817-4.764-89.8,15.129-10.878,12.033-13.124,30.666.979,58.015q1.287,2.494,2.756,5.087,1.238,2.178,2.16,4.161a32.471,32.471,0,0,1,2.858,8.864c.931,6.276-1.208,10.717-5.038,14.372a31.6,31.6,0,0,1-3.694,2.986c-4.476,3.139-10.133,5.833-15.773,8.992a81.154,81.154,0,0,0-9.123,5.811,42.387,42.387,0,0,0-7.39,6.96,32.961,32.961,0,0,0-3.788,5.717c-.062.117-.122.235-.181.354-33.773,66.871,291.585,89.226,304.884-5.566Z" transform="translate(0.393)"/><path class="c" d="M891.316,548.717l169.941,32.058,12.191-16.219L890.336,490.7c-10.878,12.033-13.124,30.666.979,58.015Z" transform="translate(11.415 6.867)"/><path class="c" d="M998.136,531.822c1.647.589,3.938.9,4.222-1.549.417-3.577,9.673,3.346,14.459,4.846s2.08-4.616,2.183-6.347c.063-1.057,4.716,1.335,8.321,3.355-5.5-5.966-11.822-12.567-15.2-14.708,0,0-3.142-3.572-6.552.519-1.747,2.095-4.434,7.447-7.436,13.884Z" transform="translate(79.884 21.697)"/><path class="c" d="M1024.819,532.744c.1-.1,1-.914,2.621.011,1.734.985,4.023,1.525,5.062,1.179s11.334,6.593,11.334,6.593l0,0c-4.965-4.375-8.834-7.791-8.834-7.791s-4.056-4.327-6.707-3.116a11.969,11.969,0,0,0-3.475,3.128Z" transform="translate(95.542 29.576)"/><path class="b" d="M1169.341,613.321a91.923,91.923,0,0,0,.919-14.1,78.982,78.982,0,0,0-1.414-13.983,70.566,70.566,0,0,0-18.164-35.282c-27.993-29.927-53.135-26.014-71.223-22.1-6.772,1.465-12.555,2.928-17.128,2.617a14.6,14.6,0,0,1-8.251-3.631c-4.759-3.849-9.365-10.3-15.79-17.226-9.632-10.379-23.351-21.825-47.8-27.174-30.255-6.618-71.817-4.764-89.8,15.129-10.876,12.033-13.124,30.666.981,58.015q1.285,2.494,2.756,5.087,1.235,2.178,2.158,4.161a32.415,32.415,0,0,1,2.858,8.864c.931,6.276-1.206,10.717-5.038,14.372a31.471,31.471,0,0,1-3.694,2.986c-4.476,3.139-10.132,5.833-15.771,8.992a81.329,81.329,0,0,0-9.124,5.811,42.448,42.448,0,0,0-7.39,6.96,32.968,32.968,0,0,0-3.788,5.717c-.062.117-.122.235-.181.354-33.773,66.871,291.585,89.226,304.884-5.566Z"/><g transform="translate(862 479)"><g class="d"><path class="e" d="M862.484,623.427l297.307-1.014s15.946-29.267,9.767-61.057c-3.661,2.76-7.812,4.759-10.449,2.483-3.327-2.872-12.861-11.26-20.078-17.62v0c-4.965-4.376-8.834-7.791-8.834-7.791s-4.056-4.329-6.708-3.116a11.945,11.945,0,0,0-3.475,3.128l-.011.01c-1.215,1.419-2.242,2.679-2.912,2.4-.6-.252-5.057-5.3-10.232-10.909-5.5-5.965-11.822-12.567-15.2-14.706,0,0-3.142-3.573-6.552.519-1.747,2.093-4.434,7.447-7.434,13.885-6.927,14.848-15.53,35.468-18.142,35.192-3.743-.393-9.568-9.624-13.105-10.547s-19.64,31.369-26.5,32.755c-3.182.643-7.7-1.541-12.7-3.726-5.781-2.528-12.193-5.056-17.886-3.2-10.611,3.464-27.775,22.851-43.693,19.389-12.737-2.772-41.538-18.393-60-23.337-14.21,7.961-28.313,18.873-23.167,47.264Z" transform="translate(-862.351 -458.587)"/><path class="f" d="M862.484,603.913l81.12-.276,50.284-.171,1.53,0,3.54-.013c32.331-19.9,42.185-40.773,42.185-40.773-1.157-.322-83.9-19.238-139.719-15.019-4.476,3.139-10.133,5.833-15.773,8.992a80.848,80.848,0,0,0-9.123,5.811c-10.344,7.771-18.064,19.283-14.045,41.453Z" transform="translate(-862.351 -439.073)"/><path class="g" d="M862.062,581.68l.554-.211a5.327,5.327,0,0,1,2.409-.274c.93.154,2.5,1.425,3.45,2.268a8.043,8.043,0,0,1-.954-3.018c-.248-2.764.728-5.885,2.288-3.824,1.131,1.495.624,5.436.257,7.494.6.263,1.211.549,1.818.858a66.46,66.46,0,0,1,3.281-9.776c.7-1.615,14.638,1.287,20.549,5.13,9.414,6.123,38.7-.044,47.856,1.571s26.717,9.164,43.775,4.086,73.227-8.309,89.66-11.539c14.464-2.844,66.571-19.552,93.965-21.868a91.906,91.906,0,0,1-.917,14.1,107.106,107.106,0,0,1-10.263,32.977l-216.188.738-38.624-.406-42.69-.446a52.267,52.267,0,0,1-.227-17.856Z" transform="translate(-862.351 -435.825)"/><path class="h" d="M862.332,594.628l42.639.141,38.624.406L993.88,595l1.53,0,3.54-.014,46-.157,114.832-.39a107.106,107.106,0,0,0,10.263-32.977c-21.823,2.1-65.049,6.642-116.741,13.87-74.273,10.387-112.982,17.237-153.34,3.377-7.445-2.558-13.9-4.864-19.548-6.868q-2.754-.978-5.26-1.857-2.483-.869-4.74-1.638c-1.711-.579-3.5-1.255-5.036-1.744-.108.2-.143.275-.221.427a34.1,34.1,0,0,0-3.107,9.438,54.2,54.2,0,0,0,.278,18.161Z" transform="translate(-862.342 -430.612)"/><path class="i" d="M873.642,602.724,895.59,610l33.458,8.262c41.265,5.308,213.941,12.737,232.7-31.925-12.25-4.746-35.807-20.447-56.749-13-31.209,11.093-154.862,18.9-177.02,14.4s-42.291-10.073-50.32-1.8c-1.006,1.035-32.794,2-4.019,16.793Z" transform="translate(-862.222 -424.799)"/><path class="j" d="M1059.636,599.517c.068-.135.146-.287.232-.462.5-1,1.277-2.647,2.2-4.837q.359-.85.74-1.807.3-.762.619-1.588c.07-.184.141-.37.211-.559s.144-.387.217-.585c-5.286-13.74-17.177-41.12-28.289-37.705-10.954,3.366,11.873,32.875,24.075,47.544Z" transform="translate(-761.851 -436.351)"/><path class="j" d="M1057.9,582.216q.45-1.642.868-3.383c.265-1.109.521-2.245.759-3.411-2.188-12.315-5.757-27.347-10.063-26.795-5.1.652,3.112,21.358,8.437,33.589Z" transform="translate(-752.939 -438.152)"/><path class="j" d="M1029.48,577.246c3.7,2.188,14.376,7.663,23.462,12.26h0l4.8-.014h0l3.326-.013c-7.75-8-21.306-19.692-33.205-19.56a2.433,2.433,0,0,0-2.307,2.16c-.189,1.312.482,3.132,3.923,5.168Z" transform="translate(-766.041 -425.65)"/></g></g><path class="c" d="M926.513,490.112a4.32,4.32,0,1,1-4.321,4.319,4.32,4.32,0,0,1,4.321-4.319Z" transform="translate(35.321 6.521)"/><path class="k" d="M1001.1,537.317l.494-2.215-1.546-1.658a.311.311,0,0,1,.2-.522l2.255-.217,1.1-1.982a.313.313,0,0,1,.56.027l.9,2.08,2.225.435a.311.311,0,0,1,.148.539l-1.7,1.5.273,2.25a.312.312,0,0,1-.468.308l-1.952-1.152-2.057.955a.312.312,0,0,1-.436-.349Z" transform="translate(80.959 30.257)"/><path class="l" d="M957.487,497.63l1.458-2.461-1.2-2.6a.393.393,0,0,1,.441-.549l2.793.627,2.1-1.945a.393.393,0,0,1,.659.251L964,493.8l2.5,1.395a.394.394,0,0,1-.036.7l-2.626,1.135-.554,2.807a.393.393,0,0,1-.681.184l-1.891-2.147-2.839.34a.394.394,0,0,1-.387-.59Z" transform="translate(56 6.806)"/><path class="m" d="M940.511,508.347l-2.8.285-.957-4.461-4.151-.09-1.261-3.221-1.631.638,1.688,4.309,3.934.084.995,4.641,4.219-.428-.031-1.757Z" transform="translate(39.731 12.828)"/><path class="m" d="M916.6,547.325l-1.05,2.616-4.4-1.224-2.005,3.635-3.439-.378-.191,1.741,4.6.505,1.9-3.445,4.573,1.273,1.578-3.936-1.57-.788Z" transform="translate(25.538 40.093)"/><path class="n" d="M925.509,532.971a7.806,7.806,0,1,1-11.036.23,7.806,7.806,0,0,1,11.036-.23Z" transform="translate(29.516 30.396)"/><path class="o" d="M924.5,538.66l-3.323,1.02L920.14,543a.339.339,0,0,1-.6.094l-2-2.844-3.475.033a.338.338,0,0,1-.275-.541l2.088-2.779-1.106-3.294a.339.339,0,0,1,.43-.428l3.288,1.127,2.791-2.069a.339.339,0,0,1,.541.278l-.056,3.474,2.831,2.015a.339.339,0,0,1-.1.6Z" transform="translate(30.352 31.233)"/><path class="p" d="M992.842,525.092l2,1.731a.345.345,0,0,0,.571-.24l.157-2.642,2.264-1.369a.345.345,0,0,0-.054-.617l-2.463-.965-.6-2.577a.347.347,0,0,0-.6-.141l-1.677,2.045-2.637-.224a.346.346,0,0,0-.321.532l1.425,2.228-1.027,2.439a.345.345,0,0,0,.406.468l2.56-.668Z" transform="translate(74.771 22.971)"/><path class="m" d="M996.162,542.7a1.582,1.582,0,1,1-1.993-1.009,1.584,1.584,0,0,1,1.993,1.009Z" transform="translate(76.916 36.742)"/><path class="m" d="M914.736,520.179a1.718,1.718,0,1,1-1.714-1.582,1.652,1.652,0,0,1,1.714,1.582Z" transform="translate(28.935 23.235)"/><path class="q" d="M982.931,492.6l2.077.409s3.034-1.417,3.266-2.1.125-2.258.57-2.356a1.372,1.372,0,0,1,1.673.984c.247.757-.611,3.145-.4,3.361a10.892,10.892,0,0,0,2.187.589,1.565,1.565,0,0,1,1.184,1.127l0,0a.864.864,0,0,1-.421.985l-.547.292.257.571a.861.861,0,0,1-.409,1.128l-.425.2.187.343a.861.861,0,0,1-.413,1.2l-.373.162.029.1a.861.861,0,0,1-.5,1.033l-.373.149-5.528-1.093a3.817,3.817,0,0,1-1.442-.614l-1.88-.713a.441.441,0,0,1-.271-.506l1.051-4.913a.44.44,0,0,1,.511-.344Z" transform="translate(70.04 5.586)"/><path class="r" d="M977.45,563.12a4.8,4.8,0,0,1-2.734,6.273,4.98,4.98,0,0,1-6.593-2.2,4.8,4.8,0,0,1,2.737-6.274,4.975,4.975,0,0,1,6.59,2.2Z" transform="translate(62.048 47.795)"/><path class="s" d="M973.114,560.65a5.355,5.355,0,0,0-2.144.452,5.1,5.1,0,0,0-2.737,2.8,4.22,4.22,0,0,0,.076,3.283,4.838,4.838,0,0,0,6.4,2.13,5.1,5.1,0,0,0,2.736-2.8,4.22,4.22,0,0,0-.075-3.283,4.6,4.6,0,0,0-4.257-2.582Zm-.546,9.4a4.889,4.889,0,0,1-4.524-2.752,4.5,4.5,0,0,1-.081-3.505,5.392,5.392,0,0,1,2.891-2.961,5.128,5.128,0,0,1,6.78,2.277,4.5,4.5,0,0,1,.083,3.505,5.392,5.392,0,0,1-2.891,2.961,5.641,5.641,0,0,1-2.258.474Z" transform="translate(61.994 47.742)"/><path class="t" d="M973.448,561.867a4.5,4.5,0,0,0-1.793.378,4.21,4.21,0,0,0-2.261,2.3,3.337,3.337,0,0,0,.054,2.6,3.952,3.952,0,0,0,5.236,1.684,4.214,4.214,0,0,0,2.263-2.3,3.345,3.345,0,0,0-.056-2.6,3.7,3.7,0,0,0-3.443-2.061Zm-.546,9.4A5.78,5.78,0,0,1,967.564,568a5.394,5.394,0,0,1-.1-4.192,6.289,6.289,0,0,1,3.367-3.458,6.021,6.021,0,0,1,7.947,2.724,5.394,5.394,0,0,1,.1,4.192,6.294,6.294,0,0,1-3.367,3.458,6.526,6.526,0,0,1-2.609.547Z" transform="translate(61.665 47.414)"/><path class="s" d="M968.829,593.414c-.065,0-.13,0-.194,0-4.183-.221-4.917-6.9-5-7.824-8.5-3.083-6.539-18.454-6.518-18.61l.289.04c-.022.154-1.961,15.4,6.414,18.328l.09.032.006.1c.006.075.59,7.433,4.732,7.652,1.446.079,2.923-.776,4.17-2.4,1.855-2.417,3.147-6.668,2.028-10.119-.136-.419-.251-.77-.349-1.066l-.135.028c-.5-1.726-.493-1.728-.325-1.78.054-.016.092-.027.141.036-.3-3.343-.7-10.522,1.176-12.537l.211.2c-1.993,2.142-1.255,10.835-.995,13.343.133.4.309.944.551,1.687,1.152,3.546-.172,7.909-2.074,10.385a5.549,5.549,0,0,1-4.219,2.515Z" transform="translate(55.693 50.632)"/><path class="t" d="M969.85,594.69q-.464,0-.973-.049c-4.308-.424-5.455-6.108-5.724-8.08-8.57-3.71-6.666-18.707-6.579-19.357a1.034,1.034,0,1,1,2.05.275c-.019.146-1.861,14.681,5.827,17.371a1.034,1.034,0,0,1,.69.9c0,.064.606,6.508,3.938,6.836a4.807,4.807,0,0,0,4.5-1.593c1.922-2.388,1.737-6.736.754-9.765-.068-.213-.132-.406-.19-.586a1.025,1.025,0,0,1-.3-.479s-.117-.4-.23-.808c-.176-.64-.357-1.3-.048-1.719-.319-3.785-.551-10.435,1.473-12.609a1.035,1.035,0,1,1,1.514,1.411c-1.349,1.45-1.274,7.95-.778,12.545.14.416.316.954.528,1.6,1.187,3.661,1.3,8.7-1.112,11.7a6.54,6.54,0,0,1-5.344,2.4Z" transform="translate(55.356 50.286)"/><path class="r" d="M953.885,549.859a20.121,20.121,0,0,1-12.263-1.544c-3.228-1.58-7.109-4.676-9.844-2-4.073,3.991-1.644,15.741,12.926,15.186s11.176-.887,11.176-.887l-1.995-10.758Z" transform="translate(39.908 38.885)"/><path class="s" d="M943.748,561.722c-9.057,0-12.141-4.827-13.059-6.961-1.333-3.094-.9-6.587,1.041-8.492,2.314-2.266,5.435-.533,8.188,1,.635.352,1.233.684,1.822.973a20.106,20.106,0,0,0,12.166,1.531l.067.283a20.457,20.457,0,0,1-12.361-1.553c-.593-.292-1.2-.625-1.833-.979-2.8-1.552-5.687-3.158-7.847-1.043-1.86,1.823-2.263,5.183-.977,8.17.93,2.156,4.135,7.133,13.8,6.766,8.07-.308,10.481-.543,11.173-.671l.022-.216c.344.033.478.1.473.246-.006.217-.014.486-11.657.931-.346.011-.685.019-1.016.019Z" transform="translate(39.855 38.833)"/><path class="u" d="M947.347,551.469c-5.436,0-9.391-4.307-13.07-4.608-.073,0-.146-.008-.219-.008a5.6,5.6,0,0,0-3.091,1.293,4.437,4.437,0,0,1,.974-1.471,2.518,2.518,0,0,1,1.841-.755c1.314,0,2.929.819,4.951,1.941.619.343,1.258.7,1.874,1a20.42,20.42,0,0,0,8.765,2l.078.389a10.4,10.4,0,0,1-2.1.216Z" transform="translate(40.469 39.269)"/><path class="v" d="M943.214,558.312c-8.366,0-11.16-4.33-11.985-6.247a8.347,8.347,0,0,1-.387-1.119,15.911,15.911,0,0,0,12.661,6.125,20.064,20.064,0,0,0,3.27-.278,3.138,3.138,0,0,0,2.588-2.655,17.85,17.85,0,0,1,1.5-5.1c.3-.016.578-.037.835-.062.328.135.66.265,1,.393-.078.232-.154.466-.229.7a55.846,55.846,0,0,0-1.982,7.942c-1.555.084-3.605.179-6.307.282q-.493.017-.962.017Z" transform="translate(40.397 41.062)"/><path class="t" d="M956.243,562.045h0Zm-12.172.9c-9.579,0-12.883-5.2-13.872-7.5-1.476-3.424-.966-7.323,1.235-9.481,2.788-2.729,6.368-.741,9.245.855.624.346,1.212.673,1.779.951a19.275,19.275,0,0,0,11.574,1.466,1.034,1.034,0,0,1,.473,2.014,21.013,21.013,0,0,1-12.956-1.622c-.616-.3-1.255-.657-1.874-1-3.085-1.712-5.224-2.72-6.792-1.185s-1.909,4.568-.784,7.183c.857,1.988,3.831,6.576,12.947,6.23,9.394-.359,10.906-.612,11.147-.682a.979.979,0,0,0-.624.955,1,1,0,0,0,.592.889l.2-2.045c1.212.119,1.284.917,1.276,1.157-.027.911-.962,1.066-1.269,1.119-.371.062-.933.124-1.719.187-1.926.157-5.13.321-9.524.489-.359.013-.711.019-1.054.019Z" transform="translate(39.527 38.501)"/><path class="w" d="M990.813,541.188s6.728,24.037-3.274,36.872c-3.532,4.533-25.519,14.862-42.418-5.743-5.43-6.623,5.724-29.757,5.724-29.757l39.968-1.373Z" transform="translate(47.901 36.492)"/><path class="x" d="M968.874,575.027a27.547,27.547,0,0,1-14.7-4.259c.016-.213.024-.433.024-.66,0-4.735-4.142-8.845-4.181-8.886l-.014-.011a25.461,25.461,0,0,0-5.727-3.156c.006-.686.056-1.411.138-2.163a15.887,15.887,0,0,1,7.915,4.419c3.448,3.716,4.138,10.809,4.138,10.809a32.259,32.259,0,0,0,13.027,2.858,23.6,23.6,0,0,0,19.64-10.027,21.109,21.109,0,0,1-2.791,4.844c-1.6,2.053-8.478,6.122-17.136,6.231-.11,0-.222,0-.335,0Z" transform="translate(48.28 45.12)"/><path class="r" d="M956.988,542.76a50.421,50.421,0,0,0-8.654,4.929,89.987,89.987,0,0,0-3.948,11.566,65.245,65.245,0,0,1,14.432-.36c11.726,1.093,24.356,9.492,32.4,11.039,3.5-12.766-.847-28.32-.847-28.32l-33.381,1.146Z" transform="translate(48.344 36.742)"/><path class="y" d="M973.639,559.258a8.352,8.352,0,0,1-.535-2.864c.343.133.685.26,1.025.381-.135.835-.3,1.666-.49,2.483Z" transform="translate(65.189 45.415)"/><path class="t" d="M969.624,586.109c-6.688,0-16.317-2.26-24.922-12.751-2.488-3.036-2.274-9.2.639-18.334a109.759,109.759,0,0,1,4.953-12.529,1.035,1.035,0,0,1,1.865.9c-3.023,6.271-9.967,23.642-5.855,28.653,8.245,10.052,17.412,12.068,23.666,11.993,8.657-.109,15.536-4.178,17.136-6.231,9.56-12.271,3.158-35.722,3.093-35.957a1.034,1.034,0,0,1,1.991-.559c.281,1,6.752,24.691-3.451,37.788-2.156,2.766-9.6,6.912-18.742,7.026-.122,0-.248,0-.371,0Z" transform="translate(47.521 36.109)"/><path class="r" d="M974.215,547.866a13.475,13.475,0,0,0,12.62-.087c6.757-3.588,9.487-5.136,12.415-.4,4.483,7.248-5.312,23.269-26.209,14.9l1.174-14.408Z" transform="translate(65.159 38.385)"/><path class="s" d="M984.137,564.844a30.121,30.121,0,0,1-11.131-2.375l.108-.268c14.86,5.951,22.217-.965,24.118-3.228,3.055-3.634,3.842-8.347,1.915-11.461-2.81-4.544-5.289-3.228-11.912.289l-.311.165a13.733,13.733,0,0,1-12.763.086l.148-.249a13.441,13.441,0,0,0,12.478-.092l.311-.165c6.607-3.51,9.341-4.96,12.294-.187,1.993,3.221,1.195,8.074-1.939,11.8a15.887,15.887,0,0,1-9.321,5.3,20.707,20.707,0,0,1-4,.379Z" transform="translate(65.138 38.327)"/><path class="u" d="M978.5,551.164c-2.472,0-3.562-.838-4-1.346q.281-.243.535-.489a14.722,14.722,0,0,0,4.561.731,14.5,14.5,0,0,0,6.863-1.747l.311-.167c3.743-1.988,5.911-3.088,7.475-3.088.043,0,.087,0,.13,0-1.856.528-3.248,2.9-10.127,5.056a19.608,19.608,0,0,1-5.752,1.047Z" transform="translate(66.017 38.764)"/><path class="v" d="M966.512,554.534q-2.433,0-5.1-.167c-7.029-.443-11.523-1.728-14.391-3.251a70.551,70.551,0,0,0,19.564,2.6,43.781,43.781,0,0,0,5.892-.4,44.872,44.872,0,0,0,16.8-5.133l-.074.919c-4.323,3-11.72,5.438-22.691,5.438Z" transform="translate(49.89 40.593)"/><path class="y" d="M973.6,549.323l.074-.919q.555-.3,1.1-.616l0,.051a1.556,1.556,0,0,0,.252.378,16.548,16.548,0,0,1-1.428,1.106Z" transform="translate(65.489 40.365)"/><path class="z" d="M974.6,548.295a1.557,1.557,0,0,1-.252-.378l0-.051.357-.209c.138.051.284.1.435.149q-.255.245-.535.489Z" transform="translate(65.922 40.288)"/><path class="v" d="M983.382,561.6a27.429,27.429,0,0,1-9.064-1.69l-.063-.2a34.129,34.129,0,0,0,5.954.5c6.549,0,16.39-1.815,18.212-12.368a10.381,10.381,0,0,1-2.6,8.491c-1.281,1.522-5.175,5.265-12.436,5.265Z" transform="translate(65.871 40.396)"/><path class="t" d="M984.5,566.055a30.974,30.974,0,0,1-11.461-2.437,1.035,1.035,0,0,1,.77-1.922c14.3,5.73,21.3-.827,23.105-2.972,2.81-3.345,3.567-7.631,1.839-10.422-2.291-3.707-3.832-3.061-10.738.606l-.311.165a14.414,14.414,0,0,1-13.637.064,1.035,1.035,0,0,1,1.058-1.779,12.33,12.33,0,0,0,11.607-.113l.313-.165c6.5-3.45,10.076-5.351,13.467.133,2.191,3.542,1.361,8.823-2.015,12.84a16.768,16.768,0,0,1-9.829,5.608,21.636,21.636,0,0,1-4.169.393Z" transform="translate(64.776 38.004)"/><path class="r" d="M961.606,521.764c0,8-5.662,14.492-12.647,14.492s-12.647-6.489-12.647-14.492,5.662-14.492,12.647-14.492,12.647,6.488,12.647,14.492Z" transform="translate(43.606 16.59)"/><path class="s" d="M949.012,507.471c-6.893,0-12.5,6.436-12.5,14.346s5.608,14.348,12.5,14.348,12.5-6.436,12.5-14.348-5.608-14.346-12.5-14.346Zm0,28.984c-7.053,0-12.791-6.568-12.791-14.638s5.738-14.637,12.791-14.637,12.793,6.566,12.793,14.637-5.74,14.638-12.793,14.638Z" transform="translate(43.553 16.537)"/><path class="aa" d="M939.223,513.1a5.634,5.634,0,0,1-.557.5,15.575,15.575,0,0,0-2.031,5.557c0-.006,4.057-11.7,18.567-9.74,0,0-7.813-5.927-15.979,3.683Z" transform="translate(43.796 16.789)"/><path class="v" d="M937.24,522.675a16.129,16.129,0,0,1-.836-5.162,16.427,16.427,0,0,1,.232-2.761l.214-.092c-.029.149-.056.3-.079.447,0,0,.063-.184.2-.5l.214-.092a40.121,40.121,0,0,0,1.592,5.7q-.824,1.2-1.539,2.463Z" transform="translate(43.66 20.841)"/><path class="s" d="M937.2,522.761a16.3,16.3,0,0,1-.885-5.335,16.657,16.657,0,0,1,.222-2.694l.155-.067a16.428,16.428,0,0,0-.232,2.761,16.122,16.122,0,0,0,.836,5.162l-.1.173Z" transform="translate(43.606 20.928)"/><path class="ab" d="M936.635,515.074c.025-.149.051-.3.079-.448l.124-.052c-.14.316-.2.5-.2.5Z" transform="translate(43.796 20.875)"/><path class="t" d="M949.341,508.689c-6.4,0-11.612,6.038-11.612,13.458s5.209,13.458,11.612,13.458,11.612-6.036,11.612-13.458-5.209-13.458-11.612-13.458Zm0,28.984c-7.544,0-13.68-6.964-13.68-15.527s6.136-15.527,13.68-15.527,13.681,6.966,13.681,15.527-6.138,15.527-13.681,15.527Z" transform="translate(43.224 16.207)"/><path class="r" d="M992.585,517.268c.916,7.953-4.254,15.052-11.546,15.855s-13.94-4.992-14.854-12.947,4.254-15.051,11.546-15.855,13.942,4.994,14.854,12.947Z" transform="translate(61.075 14.815)"/><path class="s" d="M979.129,504.447a12.11,12.11,0,0,0-1.33.073,12.441,12.441,0,0,0-8.381,4.708,14.954,14.954,0,0,0-3.036,10.987c.9,7.861,7.5,13.612,14.694,12.818a12.445,12.445,0,0,0,8.383-4.708,14.954,14.954,0,0,0,3.035-10.987c-.847-7.375-6.7-12.891-13.365-12.891Zm.619,28.95c-6.811,0-12.79-5.627-13.653-13.148a15.25,15.25,0,0,1,3.1-11.2,12.737,12.737,0,0,1,8.577-4.816c7.355-.812,14.094,5.054,15.014,13.074a15.249,15.249,0,0,1-3.1,11.2,12.741,12.741,0,0,1-8.578,4.816,12.3,12.3,0,0,1-1.36.075Z" transform="translate(61.022 14.761)"/><path class="v" d="M988.9,522.045a40.778,40.778,0,0,0-20.546-13.513c.057-.09.117-.181.181-.273,4.134.3,12.566,2.163,19.453,11.509a26.813,26.813,0,0,0,1.415-8.535,14.762,14.762,0,0,1,.963,3.81,14.606,14.606,0,0,1-.208,4.635,12.624,12.624,0,0,0-1.258,2.368Zm-20.724-13.567-.076-.021c.048-.073.1-.146.143-.217l.04,0c-.036.081-.073.16-.106.236Z" transform="translate(62.262 17.158)"/><path class="t" d="M979.458,505.666a11.148,11.148,0,0,0-1.233.067,11.561,11.561,0,0,0-7.783,4.38,14.062,14.062,0,0,0-2.847,10.33c.847,7.377,7,12.775,13.713,12.036a11.564,11.564,0,0,0,7.785-4.38,14.062,14.062,0,0,0,2.847-10.33c-.8-6.921-6.263-12.1-12.482-12.1Zm.619,28.949c-7.256,0-13.621-5.962-14.537-13.937a16.135,16.135,0,0,1,3.285-11.857A13.614,13.614,0,0,1,978,503.676c7.844-.866,15.019,5.351,16,13.856a16.136,16.136,0,0,1-3.285,11.856,13.617,13.617,0,0,1-9.175,5.146,13.294,13.294,0,0,1-1.458.081Z" transform="translate(60.693 14.432)"/><path class="w" d="M1010.558,558.16a22.422,22.422,0,0,0,3.743-8.637,29.666,29.666,0,0,0,.963-7.495c0-18.851-17.772-34.132-39.7-34.132-21.271,0-38.634,14.386-39.649,32.46a18.228,18.228,0,0,0-2.423,10.625c.689,17.226,19.8,25.333,41.038,25.333a42.64,42.64,0,0,0,5.77-.4c13.115-1.341,24.268-8.178,30.255-17.758Z" transform="translate(41.94 16.957)"/><path class="ac" d="M974.437,532.519c.287,4.841-4.646,9.737-11.492,10.125s-12.626-3.223-12.912-8.064,5.03-9.083,11.875-9.472,12.242,2.567,12.528,7.41Z" transform="translate(51.652 27.036)"/><path class="x" d="M974.1,559.573c-9.51,0-18.592-1.625-25.785-4.967-7.6-3.615-13.226-9.346-14.115-17.8,2.744,6.636,11.593,20.411,37.794,20.409.24,0,.484,0,.725,0,13.14-.125,22.266-3.867,28.564-8.834h0s5.044-3.205,11.428-13.922a21.9,21.9,0,0,1-3.442,7.542l-.024.035a36.122,36.122,0,0,1-14.284,12.833,44,44,0,0,1-15.094,4.316,42.919,42.919,0,0,1-5.77.4Z" transform="translate(42.369 32.539)"/><path class="t" d="M975.954,509.314c-23.316,0-41.877,21.058-41.039,42.009.719,17.966,22,24.34,40,24.34a41.725,41.725,0,0,0,5.63-.387l.035,0c12.5-1.277,23.521-7.737,29.483-17.279l.024-.035a21.264,21.264,0,0,0,3.578-8.234.75.75,0,0,1,.019-.081,28.737,28.737,0,0,0,.928-7.233c0-18.25-17.344-33.1-38.662-33.1Zm-1.035,68.418c-11.174,0-21.376-2.25-28.727-6.338-8.393-4.667-13.009-11.579-13.345-19.989-.965-24.119,19.135-44.159,43.107-44.159,22.46,0,40.732,15.774,40.732,35.165a30.761,30.761,0,0,1-.985,7.713,23.324,23.324,0,0,1-3.889,8.984c-6.3,10.063-17.885,16.874-31,18.22a43.781,43.781,0,0,1-5.892.4Z" transform="translate(41.554 16.575)"/><path class="ad" d="M981.881,523.772c3.3,5.762,1.995,12.629-2.927,15.338s-11.592.232-14.9-5.53-2-12.631,2.926-15.34,11.593-.232,14.9,5.532Z" transform="translate(58.816 22.382)"/><path class="ad" d="M941.841,526.5c-2.125,6.274.5,12.772,5.855,14.513s11.425-1.936,13.55-8.208-.5-12.772-5.857-14.513-11.425,1.936-13.548,8.208Z" transform="translate(46.418 22.803)"/><path class="t" d="M954.922,527.439c.117,2.761-1.39,5.065-3.369,5.148s-3.68-2.09-3.8-4.851,1.388-5.065,3.369-5.148,3.68,2.092,3.8,4.851Z" transform="translate(50.317 25.576)"/><path class="ae" d="M953.148,525.834c.057,1.328-.628,2.434-1.533,2.472s-1.682-1.008-1.739-2.336.628-2.434,1.533-2.472,1.682,1.009,1.739,2.336Z" transform="translate(51.564 26.111)"/><path class="t" d="M965.484,526.735c-.119-2.761,1.39-5.067,3.369-5.148s3.68,2.09,3.8,4.851-1.388,5.065-3.369,5.146-3.68-2.09-3.8-4.849Z" transform="translate(60.721 24.989)"/><path class="ae" d="M967.045,524.664c-.057-1.328.63-2.434,1.531-2.472s1.684,1.009,1.741,2.337-.63,2.434-1.533,2.471-1.682-1.008-1.739-2.336Z" transform="translate(61.638 25.344)"/><path class="w" d="M974.061,532.9c.213,4.941-5.013,9.169-11.671,9.443s-12.229-3.505-12.442-8.447,5.014-9.169,11.672-9.443,12.228,3.507,12.441,8.447Z" transform="translate(51.604 26.667)"/><path class="t" d="M963.514,526.815c.111,2.585-2.069,4.057-4.833,4.172s-5.063-1.174-5.176-3.757c-.083-1.939,9.927-2.353,10.01-.414Z" transform="translate(53.694 27.316)"/><path class="t" d="M956.831,534.368a.688.688,0,0,1-.687-.66l-.287-6.549a.69.69,0,0,1,1.379-.06l.286,6.549a.69.69,0,0,1-.659.719l-.032,0Z" transform="translate(55.074 27.837)"/><path class="r" d="M954.649,560.836s-11.38-8.783-16.552-.674c-2.209,3.461-3.794,14.524,3.1,17.9,0,0,.346,6.755,4.484,7.431s9.656-7.095,9.656-9.8c0,0,3.448-1.35,3.448-6.079s-4.138-8.783-4.138-8.783Z" transform="translate(43.546 45.609)"/><path class="s" d="M944.343,556.924a8.068,8.068,0,0,0-1.385.116,6.821,6.821,0,0,0-4.684,3.253c-1.377,2.156-2.607,7.558-1.336,12.085a8.417,8.417,0,0,0,4.381,5.609l.076.036,0,.086c0,.067.387,6.647,4.36,7.295,1.625.266,3.342-.847,4.5-1.828,2.766-2.352,4.994-6.2,4.994-7.824v-.1l.09-.036c.035-.013,3.358-1.376,3.358-5.944,0-4.53-3.91-8.494-4.088-8.673-.224-.168-5.425-4.075-10.266-4.075Zm1.91,28.81a3.362,3.362,0,0,1-.54-.043c-4-.652-4.543-6.655-4.6-7.482a8.706,8.706,0,0,1-4.457-5.752c-1.295-4.61-.035-10.117,1.371-12.321a7.1,7.1,0,0,1,4.879-3.381c5.381-.938,11.82,3.972,11.884,4.021l.014.011c.04.041,4.181,4.151,4.181,8.886a6.505,6.505,0,0,1-3.451,6.174c-.078,1.763-2.276,5.555-5.094,7.95a6.838,6.838,0,0,1-4.189,1.937Z" transform="translate(43.492 45.556)"/><path class="af" d="M936.708,570.631c-.065-.027-.122-.063-.182-.094-.508-4,.524-8.271,1.752-10.194a6.978,6.978,0,0,1,6.2-3.435,13.848,13.848,0,0,1,5.133,1.154q-.585-.031-1.135-.032a12.176,12.176,0,0,0-7.647,2.241.781.781,0,0,1,.386.152c.525.416.339,1.5-.419,2.417a2.63,2.63,0,0,1-1.809,1.074.807.807,0,0,1-.514-.163.752.752,0,0,1-.252-.389,14.391,14.391,0,0,0-1.515,7.269Z" transform="translate(43.654 45.716)"/><path class="v" d="M943.108,581.692a3.317,3.317,0,0,1-.519-.041,3.823,3.823,0,0,1-1.249-.435A6.906,6.906,0,0,1,940,579.021a5.177,5.177,0,0,0,1.89.357c1.622,0,3.764-.749,6.215-3.47,5.173-5.743.806-12.448.806-12.448s1.377,2,2.936,2c1.017,0,2.112-.852,2.952-3.664a10.1,10.1,0,0,1,.893,3.98c0,4.729-3.448,6.079-3.448,6.079,0,2.591-5.071,9.838-9.137,9.838Z" transform="translate(45.771 48.584)"/><path class="t" d="M946.392,558.048a10.054,10.054,0,0,0-7.026,3.289c-1.4,1.371-2.466,5.144-1.831,9.088.319,1.972,1.347,5.522,4.665,7.147a1.038,1.038,0,0,1,.579.876c0,.059.4,5.939,3.616,6.463,1.008.165,2.345-.414,3.775-1.628,2.715-2.307,4.679-5.871,4.679-7.145a1.035,1.035,0,0,1,.657-.965c.106-.043,2.793-1.2,2.793-5.116,0-4.226-3.791-8.007-3.829-8.045-.019-.017-.038-.038-.056-.057-.045-.051-3.328-3.734-7.713-3.9q-.155,0-.309,0Zm.349,28.961a4.179,4.179,0,0,1-.679-.056c-4.145-.676-5.094-5.984-5.3-7.8-2.788-1.591-4.651-4.549-5.271-8.4-.687-4.264.333-8.846,2.425-10.9,2.753-2.7,5.744-4,8.881-3.873,5.116.2,8.767,4.149,9.15,4.576.416.416,4.419,4.549,4.419,9.494a7.413,7.413,0,0,1-3.513,6.742c-.411,2.283-2.732,5.839-5.344,8.059a7.679,7.679,0,0,1-4.768,2.15Z" transform="translate(43.001 45.171)"/><path class="t" d="M958.84,532.806a8.907,8.907,0,0,1-5.412-1.714.689.689,0,0,1,.874-1.065c.164.132,4.037,3.18,9.917-.17a.69.69,0,0,1,.684,1.2,12.177,12.177,0,0,1-6.063,1.75Z" transform="translate(53.502 29.79)"/><path class="t" d="M945.561,562.432a7.527,7.527,0,0,1,2.488,1.619,9.761,9.761,0,0,1,1.842,2.418c.127.224.224.462.336.693l.163.352c.044.119.086.241.129.363.084.243.168.487.241.735l.162.754c.024.125.054.251.076.378l.035.382c.025.254.043.51.057.763a11.234,11.234,0,0,1-.087,1.517,1.032,1.032,0,0,1-2.049.03l-.017-.13c-.062-.439-.067-.874-.1-1.3-.065-.425-.052-.862-.135-1.279l-.086-.636-.124-.625-.059-.317-.083-.309c-.059-.206-.1-.419-.175-.622a11.158,11.158,0,0,0-1.085-2.383,10.519,10.519,0,0,0-1.679-2.141l-.013-.013a.149.149,0,0,1,.157-.246Z" transform="translate(48.915 48.952)"/><path class="ag" d="M930.221,521.015a4.057,4.057,0,0,1,.516-1.345,3.464,3.464,0,0,1,1.461-1.439,15.626,15.626,0,0,0-1.977,2.785Z" transform="translate(40.032 23.02)"/><path class="j" d="M972.448,600.374c-20.893,0-37.831-1.8-37.831-4.018s16.938-4.016,37.831-4.016,37.831,1.8,37.831,4.016-16.937,4.018-37.831,4.018Z" transform="translate(42.612 66.508)"/><path class="r" d="M957.194,568.89s-2.049,13.286,6.538,16.289c0,0,.551,7.558,4.87,7.786s8.045-7.46,6.341-12.707-.481-1.033-.481-1.033-1.753-10.852.647-13.429c-5.2,2.745-10.448,3.854-17.915,3.094Z" transform="translate(55.734 50.932)"/><path class="v" d="M966.921,586.555a10.463,10.463,0,0,1-2.1-.24,16.11,16.11,0,0,1-.447-2.409,1.034,1.034,0,0,0-.69-.9c-5.016-1.755-5.976-8.554-6.031-13.109a29.449,29.449,0,0,0,3.369.192c.124,0,.249,0,.371,0a31.894,31.894,0,0,0,11.357-2.258c-.04.368-.072.744-.094,1.124a23.2,23.2,0,0,1-10.278,2.207,29.69,29.69,0,0,1-4.1-.29s-1.044,11.379,8.791,11.379a15.529,15.529,0,0,0,2.59-.232,4.626,4.626,0,0,1,.524-.029c.743,0,1.939.173,1.2,1.379-.809,1.322-1.442,3.186-4.46,3.186Z" transform="translate(56.127 52.126)"/><path class="aa" d="M944.67,509.626c.44.66-.36,1.934-1.788,2.845s-2.94,1.112-3.38.452.362-1.934,1.788-2.845,2.94-1.114,3.38-.452Z" transform="translate(45.407 17.743)"/><path class="aa" d="M967.742,512.674s2.563-9.365,17.245-5.547c0,0-5.355-4.448-10.531-2.488s-6.714,8.036-6.714,8.036Z" transform="translate(62.049 14.752)"/><path class="ab" d="M968.331,508.531l-.178-.054c.033-.076.07-.156.106-.236l.252.018c-.064.092-.124.182-.181.273Z" transform="translate(62.29 17.159)"/><path class="ah" d="M940.692,574.251a6.577,6.577,0,0,1-1.223-1.866c.127.078.276.162.446.246a8.585,8.585,0,0,0,.777,1.62Z" transform="translate(45.459 54.798)"/><path class="s" d="M941.488,574.911a4.24,4.24,0,0,1-.96-.751,8.587,8.587,0,0,1-.777-1.62c.122.06.255.119.4.176a6.906,6.906,0,0,0,1.339,2.195Z" transform="translate(45.624 54.889)"/><path class="t" d="M969.588,577.128a6.536,6.536,0,0,1-1.73,1.92,6.453,6.453,0,0,1-2.468,1.134l-.346.076c-.114.019-.233.027-.351.04a5.116,5.116,0,0,1-.713.043c-.238-.011-.478-.029-.716-.049a1.965,1.965,0,0,1-.351-.06l-.348-.082a3.439,3.439,0,0,1-.674-.213c-.216-.086-.43-.182-.641-.281a4.1,4.1,0,0,1-.59-.355c-.187-.13-.375-.26-.552-.4a1.031,1.031,0,0,1,.989-1.777l.168.062c.343.122.649.3.963.443a10.1,10.1,0,0,0,.951.36,5.9,5.9,0,0,0,1.972.346,6.364,6.364,0,0,0,2.115-.367,9.836,9.836,0,0,0,2.1-1.03l.013-.008a.151.151,0,0,1,.208.044.145.145,0,0,1,0,.155Z" transform="translate(57.343 57.45)"/><path class="ae" d="M954.72,511.5c1.511-9.9,11.095-6.48,6.768-.447l-6.768.447Z" transform="translate(54.408 15.404)"/><path class="ai" d="M954.861,511.554l-.2-.032c.522-3.435,2.149-5.773,4.348-6.255a3.059,3.059,0,0,1,3.264,1.209c.819,1.246.579,2.95-.658,4.676l-.168-.122c1.185-1.652,1.423-3.27.654-4.44a2.85,2.85,0,0,0-3.045-1.12c-2.114.462-3.68,2.737-4.189,6.084Z" transform="translate(54.37 15.366)"/><path class="ae" d="M959.507,508.5c4.6-4.288,8.55,2.018,1.8,3.416l-1.8-3.416Z" transform="translate(57.217 16.445)"/><path class="ai" d="M961.355,512.056l-.043-.2c2.034-.422,3.347-1.382,3.512-2.572a1.807,1.807,0,0,0-1.012-1.845c-1.185-.616-2.758-.174-4.208,1.179l-.141-.152c1.517-1.415,3.18-1.868,4.445-1.211a2.008,2.008,0,0,1,1.122,2.058c-.176,1.281-1.55,2.307-3.673,2.747Z" transform="translate(57.191 16.404)"/><path class="ae" d="M962.383,509.712c5.181,1.687,1.745,6.664-1.53,2.974l1.53-2.974Z" transform="translate(58.007 18.022)"/><path class="ai" d="M963.308,514.159a3.522,3.522,0,0,1-2.5-1.368l.155-.136c.973,1.1,2.1,1.534,3.01,1.173a1.559,1.559,0,0,0,.995-1.507c-.033-1.031-1-1.957-2.585-2.472l.063-.2c1.673.546,2.691,1.541,2.728,2.664a1.761,1.761,0,0,1-1.124,1.706,1.962,1.962,0,0,1-.739.14Z" transform="translate(57.978 17.985)"/><path class="t" d="M955.006,512.556a.75.75,0,0,1-.118-.009.769.769,0,0,1-.644-.878c.567-3.719,2.385-6.263,4.865-6.8a3.717,3.717,0,0,1,3.962,1.492c.965,1.466.712,3.5-.674,5.43a.769.769,0,0,1-1.25-.9c1.016-1.417,1.247-2.759.638-3.686a2.191,2.191,0,0,0-2.347-.836c-1.833.4-3.205,2.469-3.672,5.533a.771.771,0,0,1-.76.655Z" transform="translate(54.124 15.119)"/><path class="t" d="M961.591,512.971a.77.77,0,0,1-.156-1.523c2.057-.427,2.891-1.319,2.986-2.01a1.136,1.136,0,0,0-.66-1.165c-.712-.37-1.991-.281-3.445,1.076a.77.77,0,1,1-1.05-1.127c1.733-1.615,3.678-2.107,5.2-1.315a2.671,2.671,0,0,1,1.476,2.74c-.1.755-.722,2.588-4.2,3.307a.727.727,0,0,1-.156.018Z" transform="translate(56.933 16.158)"/><path class="t" d="M963.562,515.075a4.162,4.162,0,0,1-3-1.593.77.77,0,0,1,1.152-1.022c.779.879,1.627,1.25,2.266,1a.9.9,0,0,0,.574-.866c-.019-.571-.587-1.36-2.126-1.861a.77.77,0,0,1,.478-1.465c1.95.636,3.142,1.86,3.188,3.275a2.426,2.426,0,0,1-1.544,2.349,2.675,2.675,0,0,1-.987.187Z" transform="translate(57.722 17.737)"/></g></svg>