<svg xmlns="http://www.w3.org/2000/svg" xmlns:xlink="http://www.w3.org/1999/xlink" width="50" zoomAndPan="magnify" viewBox="0 0 37.5 37.499999" height="50" preserveAspectRatio="xMidYMid meet" version="1.0"><path fill="#1976d2" d="M 35.15625 27.34375 C 35.15625 29.070312 33.757812 30.46875 32.03125 30.46875 L 5.46875 30.46875 C 3.742188 30.46875 2.34375 29.070312 2.34375 27.34375 L 2.34375 10.15625 C 2.34375 8.429688 3.742188 7.03125 5.46875 7.03125 L 32.03125 7.03125 C 33.757812 7.03125 35.15625 8.429688 35.15625 10.15625 Z M 35.15625 27.34375 " fill-opacity="1" fill-rule="nonzero"/><path fill="#ffffff" d="M 17.386719 15.625 L 15.734375 19.285156 L 14.09375 15.625 L 11.988281 15.625 L 11.988281 20.878906 L 9.640625 15.625 L 7.863281 15.625 L 5.46875 21.078125 L 6.886719 21.078125 L 7.410156 19.863281 L 10.09375 19.863281 L 10.625 21.078125 L 13.332031 21.078125 L 13.332031 17.027344 L 15.128906 21.078125 L 16.347656 21.078125 L 18.1875 17.097656 L 18.1875 21.078125 L 19.53125 21.078125 L 19.53125 15.625 Z M 7.917969 18.683594 L 8.71875 16.777344 L 9.550781 18.683594 Z M 7.917969 18.683594 " fill-opacity="1" fill-rule="nonzero"/><path fill="#ffffff" d="M 29.597656 18.292969 L 32.03125 15.640625 L 30.300781 15.640625 L 28.742188 17.328125 L 27.234375 15.625 L 21.875 15.625 L 21.875 21.078125 L 27.058594 21.078125 L 28.691406 19.273438 L 30.285156 21.09375 L 32.011719 21.09375 Z M 26.351562 19.933594 L 23.214844 19.933594 L 23.214844 18.855469 L 26.214844 18.855469 L 26.214844 17.820312 L 23.214844 17.820312 L 23.214844 16.800781 L 26.523438 16.808594 L 27.847656 18.292969 Z M 26.351562 19.933594 " fill-opacity="1" fill-rule="nonzero"/></svg>