<svg xmlns="http://www.w3.org/2000/svg" xmlns:xlink="http://www.w3.org/1999/xlink" width="50" zoomAndPan="magnify" viewBox="0 0 37.5 37.499999" height="50" preserveAspectRatio="xMidYMid meet" version="1.0"><defs><clipPath id="016d98fe30"><path d="M 3.179688 6.832031 L 34 6.832031 L 34 30.832031 L 3.179688 30.832031 Z M 3.179688 6.832031 " clip-rule="nonzero"/></clipPath></defs><g clip-path="url(#016d98fe30)"><path fill="#006095" d="M 20.90625 30.789062 C 27.414062 30.824219 33.351562 25.449219 33.351562 18.914062 C 33.351562 11.769531 27.414062 6.828125 20.90625 6.832031 L 15.304688 6.832031 C 8.71875 6.828125 3.300781 11.769531 3.300781 18.914062 C 3.300781 25.453125 8.71875 30.824219 15.304688 30.789062 L 20.90625 30.789062 " fill-opacity="1" fill-rule="nonzero"/></g><path fill="#ffffff" d="M 17.804688 25.277344 L 17.804688 12.300781 C 20.394531 13.300781 22.234375 15.828125 22.238281 18.789062 C 22.234375 21.753906 20.394531 24.277344 17.804688 25.277344 M 8.425781 18.789062 C 8.429688 15.828125 10.269531 13.304688 12.859375 12.300781 L 12.859375 25.273438 C 10.269531 24.273438 8.429688 21.75 8.425781 18.789062 M 15.332031 7.820312 C 9.3125 7.824219 4.4375 12.730469 4.4375 18.789062 C 4.4375 24.847656 9.3125 29.753906 15.332031 29.753906 C 21.351562 29.753906 26.226562 24.847656 26.230469 18.789062 C 26.226562 12.730469 21.351562 7.824219 15.332031 7.820312 " fill-opacity="1" fill-rule="nonzero"/></svg>