<svg xmlns="http://www.w3.org/2000/svg" xmlns:xlink="http://www.w3.org/1999/xlink" width="50" zoomAndPan="magnify" viewBox="0 0 37.5 37.499999" height="50" preserveAspectRatio="xMidYMid meet" version="1.0"><path fill="#f44336" d="M 35.9375 18.75 C 35.9375 19.417969 35.871094 20.078125 35.742188 20.730469 C 35.613281 21.386719 35.417969 22.019531 35.164062 22.636719 C 34.910156 23.253906 34.597656 23.839844 34.226562 24.390625 C 33.855469 24.945312 33.433594 25.460938 32.960938 25.929688 C 32.492188 26.402344 31.976562 26.824219 31.421875 27.195312 C 30.871094 27.566406 30.285156 27.878906 29.667969 28.132812 C 29.050781 28.386719 28.417969 28.582031 27.761719 28.710938 C 27.109375 28.839844 26.449219 28.90625 25.78125 28.90625 C 25.113281 28.90625 24.453125 28.839844 23.800781 28.710938 C 23.144531 28.582031 22.511719 28.386719 21.894531 28.132812 C 21.277344 27.878906 20.691406 27.566406 20.140625 27.195312 C 19.585938 26.824219 19.070312 26.402344 18.601562 25.929688 C 18.128906 25.460938 17.707031 24.945312 17.335938 24.390625 C 16.964844 23.839844 16.652344 23.253906 16.398438 22.636719 C 16.144531 22.019531 15.949219 21.386719 15.820312 20.730469 C 15.691406 20.078125 15.625 19.417969 15.625 18.75 C 15.625 18.082031 15.691406 17.421875 15.820312 16.769531 C 15.949219 16.113281 16.144531 15.480469 16.398438 14.863281 C 16.652344 14.246094 16.964844 13.660156 17.335938 13.109375 C 17.707031 12.554688 18.128906 12.039062 18.601562 11.570312 C 19.070312 11.097656 19.585938 10.675781 20.140625 10.304688 C 20.691406 9.933594 21.277344 9.621094 21.894531 9.367188 C 22.511719 9.113281 23.144531 8.917969 23.800781 8.789062 C 24.453125 8.660156 25.113281 8.59375 25.78125 8.59375 C 26.449219 8.59375 27.109375 8.660156 27.761719 8.789062 C 28.417969 8.917969 29.050781 9.113281 29.667969 9.367188 C 30.285156 9.621094 30.871094 9.933594 31.421875 10.304688 C 31.976562 10.675781 32.492188 11.097656 32.960938 11.570312 C 33.433594 12.039062 33.855469 12.554688 34.226562 13.109375 C 34.597656 13.660156 34.910156 14.246094 35.164062 14.863281 C 35.417969 15.480469 35.613281 16.113281 35.742188 16.769531 C 35.871094 17.421875 35.9375 18.082031 35.9375 18.75 Z M 35.9375 18.75 " fill-opacity="1" fill-rule="nonzero"/><path fill="#2196f3" d="M 21.875 18.75 L 15.625 18.75 C 15.625 18.21875 15.679688 17.699219 15.757812 17.1875 L 21.742188 17.1875 C 21.660156 16.652344 21.542969 16.128906 21.378906 15.625 L 16.121094 15.625 C 16.296875 15.082031 16.515625 14.5625 16.777344 14.0625 L 20.722656 14.0625 C 20.433594 13.507812 20.09375 12.988281 19.710938 12.5 L 17.785156 12.5 C 18.082031 12.121094 18.402344 11.765625 18.75 11.433594 C 18.574219 11.261719 18.394531 11.09375 18.207031 10.9375 C 16.445312 9.476562 14.1875 8.59375 11.71875 8.59375 C 6.109375 8.59375 1.5625 13.140625 1.5625 18.75 C 1.5625 24.359375 6.109375 28.90625 11.71875 28.90625 C 14.449219 28.90625 16.925781 27.820312 18.75 26.066406 C 19.097656 25.734375 19.417969 25.378906 19.710938 25 L 17.785156 25 C 17.40625 24.511719 17.066406 23.992188 16.777344 23.4375 L 20.722656 23.4375 C 20.984375 22.9375 21.203125 22.417969 21.378906 21.875 L 16.121094 21.875 C 15.957031 21.371094 15.839844 20.847656 15.757812 20.3125 L 21.742188 20.3125 C 21.820312 19.800781 21.875 19.28125 21.875 18.75 Z M 21.875 18.75 " fill-opacity="1" fill-rule="nonzero"/></svg>