<svg xmlns="http://www.w3.org/2000/svg" width="34.307" height="21.44" viewBox="0 0 34.307 21.44"><defs><style>.a{fill:red;}.b{fill:#ff9b00;}</style></defs><g transform="translate(0 -54.719)"><path class="a" d="M21.433,65.439a10.717,10.717,0,1,1-10.717-10.72A10.717,10.717,0,0,1,21.433,65.439Z"/><path class="b" d="M120.151,54.719a10.657,10.657,0,0,0-6.4,2.138h.009a9.185,9.185,0,0,1,1.039.97l-2.23.035A11.023,11.023,0,0,0,111.6,59h3.932a9.961,9.961,0,0,1,.827,1.068h-5.471a10.681,10.681,0,0,0-.548,1.069h6.642a9.13,9.13,0,0,1,.461,1.035h-7.5a10.324,10.324,0,0,0-.3,1.134h8.109c.079.371.14.714.182,1.063h-8.452c-.035.353-.054.711-.054,1.072H118a9.418,9.418,0,0,1-.065,1.072h-8.447q.055.545.161,1.072h8.1c-.084.347-.18.7-.3,1.059h-7.521a10.406,10.406,0,0,0,.4,1.07h6.657a9.766,9.766,0,0,1-.624,1.068h-5.49a10.433,10.433,0,0,0,.715,1.076l3.949.059a10.434,10.434,0,0,1-1.162,1c.021.017-.629,0-1.91-.022a10.717,10.717,0,1,0,7.695-18.174Z" transform="translate(-96.564)"/></g></svg>