<svg xmlns="http://www.w3.org/2000/svg" xmlns:xlink="http://www.w3.org/1999/xlink" width="50" zoomAndPan="magnify" viewBox="0 0 37.5 37.499999" height="50" preserveAspectRatio="xMidYMid meet" version="1.0"><defs><clipPath id="db7eb21059"><path d="M 13 13.242188 L 19 13.242188 L 19 24.492188 L 13 24.492188 Z M 13 13.242188 " clip-rule="nonzero"/></clipPath><clipPath id="9fc20aeaa3"><path d="M 25 13.242188 L 36 13.242188 L 36 24.492188 L 25 24.492188 Z M 25 13.242188 " clip-rule="nonzero"/></clipPath><clipPath id="055ae6c449"><path d="M 18 13.242188 L 27 13.242188 L 27 24.492188 L 18 24.492188 Z M 18 13.242188 " clip-rule="nonzero"/></clipPath><clipPath id="450e7c549f"><path d="M 1.136719 13.242188 L 15 13.242188 L 15 24.492188 L 1.136719 24.492188 Z M 1.136719 13.242188 " clip-rule="nonzero"/></clipPath></defs><g clip-path="url(#db7eb21059)"><path fill="#0072ff" d="M 18.167969 13.441406 L 15.414062 13.441406 L 13.691406 24.320312 L 16.441406 24.320312 Z M 18.167969 13.441406 " fill-opacity="1" fill-rule="nonzero"/></g><g clip-path="url(#9fc20aeaa3)"><path fill="#0072ff" d="M 29.300781 22.6875 L 32.84375 22.6875 C 32.929688 23.066406 33.179688 24.3125 33.179688 24.3125 L 35.730469 24.3125 L 33.515625 13.453125 L 31.355469 13.453125 C 31.042969 13.410156 30.746094 13.476562 30.476562 13.644531 C 30.207031 13.816406 30.015625 14.054688 29.910156 14.359375 L 25.832031 24.355469 L 28.722656 24.355469 C 28.722656 24.355469 29.191406 22.980469 29.300781 22.6875 Z M 31.1875 17.417969 C 31.1875 17.417969 31.417969 16.789062 31.550781 16.382812 L 31.734375 17.324219 L 32.40625 20.464844 L 30.121094 20.464844 C 30.320312 19.839844 31.1875 17.417969 31.1875 17.417969 Z M 31.1875 17.417969 " fill-opacity="1" fill-rule="nonzero"/></g><g clip-path="url(#055ae6c449)"><path fill="#0072ff" d="M 26.027344 20.765625 C 26.027344 19.523438 25.300781 18.585938 23.714844 17.808594 C 22.753906 17.308594 22.160156 16.972656 22.167969 16.4375 C 22.175781 15.902344 22.664062 15.503906 23.746094 15.503906 C 24.464844 15.488281 25.148438 15.628906 25.804688 15.921875 L 26.054688 16.046875 L 26.429688 13.6875 C 25.636719 13.375 24.8125 13.222656 23.964844 13.226562 C 21.273438 13.226562 19.332031 14.703125 19.3125 16.816406 C 19.3125 18.378906 20.65625 19.25 21.71875 19.773438 C 22.78125 20.292969 23.148438 20.644531 23.148438 21.144531 C 23.148438 21.871094 22.289062 22.207031 21.503906 22.207031 C 20.589844 22.226562 19.726562 22.027344 18.910156 21.609375 L 18.550781 21.4375 L 18.167969 23.875 C 19.15625 24.265625 20.175781 24.457031 21.234375 24.449219 C 24.105469 24.476562 26.007812 23.015625 26.027344 20.765625 Z M 26.027344 20.765625 " fill-opacity="1" fill-rule="nonzero"/></g><g clip-path="url(#450e7c549f)"><path fill="#0072ff" d="M 7.050781 24.304688 L 9.988281 24.304688 L 14.316406 13.453125 L 11.386719 13.453125 L 8.699219 20.871094 L 8.410156 19.359375 L 7.449219 14.367188 C 7.386719 14.074219 7.234375 13.839844 7 13.664062 C 6.761719 13.492188 6.496094 13.417969 6.207031 13.449219 L 1.851562 13.449219 C 1.796875 13.460938 1.769531 13.496094 1.769531 13.554688 C 1.769531 13.609375 1.796875 13.644531 1.851562 13.660156 C 2.480469 13.835938 3.09375 14.0625 3.683594 14.347656 C 4.304688 14.636719 4.703125 15.121094 4.875 15.792969 Z M 7.050781 24.304688 " fill-opacity="1" fill-rule="nonzero"/></g></svg>