<svg width="20" height="20" viewBox="0 0 20 20" fill="none" xmlns="http://www.w3.org/2000/svg">
<path d="M3.33325 9.16602V15.4993C3.33325 16.6039 4.22868 17.4993 5.33325 17.4993H14.6666C15.7712 17.4993 16.6666 16.6039 16.6666 15.4993V9.16602" stroke="#01C159" stroke-width="1.5" stroke-linecap="round" stroke-linejoin="round"/>
<path d="M5 3.74935C5 2.59876 5.93274 1.66602 7.08333 1.66602V1.66602C8.69416 1.66602 10 2.97185 10 4.58268V5.83268H7.08333C5.93274 5.83268 5 4.89994 5 3.74935V3.74935Z" stroke="#01C159" stroke-width="1.5" stroke-linejoin="round"/>
<path d="M15 3.74935C15 2.59876 14.0673 1.66602 12.9167 1.66602V1.66602C11.3058 1.66602 10 2.97185 10 4.58268V5.83268H12.9167C14.0673 5.83268 15 4.89994 15 3.74935V3.74935Z" stroke="#01C159" stroke-width="1.5" stroke-linejoin="round"/>
<path d="M2.5 5.83398H17.5V9.16732H2.5V5.83398Z" stroke="#01C159" stroke-width="1.5" stroke-linecap="round" stroke-linejoin="round"/>
<path d="M10 9.16602V17.4993" stroke="#01C159" stroke-width="1.5" stroke-linecap="round" stroke-linejoin="round"/>
</svg>
