<svg width="24" height="24" viewBox="0 0 24 24" fill="none" xmlns="http://www.w3.org/2000/svg">
<path d="M21.3 10.8401C21.69 10.8401 22 10.5301 22 10.1401V9.21011C22 5.11011 20.75 3.86011 16.65 3.86011H7.35C3.25 3.86011 2 5.11011 2 9.21011V9.68011C2 10.0701 2.31 10.3801 2.7 10.3801C3.6 10.3801 4.33 11.1101 4.33 12.0101C4.33 12.9101 3.6 13.6301 2.7 13.6301C2.31 13.6301 2 13.9401 2 14.3301V14.8001C2 18.9001 3.25 20.1501 7.35 20.1501H16.65C20.75 20.1501 22 18.9001 22 14.8001C22 14.4101 21.69 14.1001 21.3 14.1001C20.4 14.1001 19.67 13.3701 19.67 12.4701C19.67 11.5701 20.4 10.8401 21.3 10.8401Z" fill="#01C159"/>
<path d="M15.0022 15.8799C14.4422 15.8799 13.9922 15.4299 13.9922 14.8799C13.9922 14.3299 14.4422 13.8799 14.9922 13.8799C15.5422 13.8799 15.9922 14.3299 15.9922 14.8799C15.9922 15.4299 15.5622 15.8799 15.0022 15.8799Z" fill="white"/>
<path d="M9.00219 10.8799C8.44219 10.8799 7.99219 10.4299 7.99219 9.87988C7.99219 9.32988 8.44219 8.87988 8.99219 8.87988C9.54219 8.87988 9.99219 9.32988 9.99219 9.87988C9.99219 10.4299 9.56219 10.8799 9.00219 10.8799Z" fill="white"/>
<path d="M8.63031 16.4299C8.44031 16.4299 8.25031 16.3599 8.10031 16.2099C7.81031 15.9199 7.81031 15.4399 8.10031 15.1499L14.8303 8.41989C15.1203 8.12989 15.6003 8.12989 15.8903 8.41989C16.1803 8.70989 16.1803 9.18989 15.8903 9.47989L9.16031 16.2099C9.02031 16.3599 8.82031 16.4299 8.63031 16.4299Z" fill="white"/>
</svg>
