<svg width="16" height="16" viewBox="0 0 16 16" fill="none" xmlns="http://www.w3.org/2000/svg">
<path d="M7.3067 1.37322L3.64003 2.74656C2.94003 3.01322 2.3667 3.83989 2.3667 4.59322V9.99322C2.3667 10.5332 2.72003 11.2466 3.15337 11.5666L6.82003 14.3066C7.4667 14.7932 8.5267 14.7932 9.17337 14.3066L12.84 11.5666C13.2734 11.2399 13.6267 10.5332 13.6267 9.99322V4.59322C13.6267 3.84656 13.0534 3.01322 12.3534 2.75322L8.6867 1.37989C8.31337 1.23322 7.6867 1.23322 7.3067 1.37322Z" fill="#23D087"/>
<path d="M7.1067 9.48658C6.98003 9.48658 6.85337 9.43992 6.75337 9.33992L5.68003 8.26658C5.4867 8.07325 5.4867 7.75325 5.68003 7.55992C5.87337 7.36658 6.19337 7.36658 6.3867 7.55992L7.1067 8.27992L9.62003 5.76658C9.81337 5.57325 10.1334 5.57325 10.3267 5.76658C10.52 5.95992 10.52 6.27992 10.3267 6.47325L7.46003 9.33992C7.36003 9.43992 7.23337 9.48658 7.1067 9.48658Z" fill="white"/>
</svg>
