<svg width="61" height="43" viewBox="0 0 61 43" fill="none" xmlns="http://www.w3.org/2000/svg">
<rect width="61" height="43" rx="8" fill="white"/>
<path d="M9.24128 21.143C8.72062 21.143 8.23112 21.0403 7.77278 20.835C7.31445 20.626 6.91112 20.3382 6.56278 19.9715C6.21812 19.6048 5.94678 19.1813 5.74878 18.701C5.55445 18.217 5.45728 17.7 5.45728 17.15C5.45728 16.5963 5.55445 16.0793 5.74878 15.599C5.94678 15.115 6.21812 14.6915 6.56278 14.3285C6.91112 13.9618 7.31445 13.6758 7.77278 13.4705C8.23112 13.2615 8.72062 13.157 9.24128 13.157C9.86462 13.157 10.4385 13.3018 10.9628 13.5915C11.4871 13.8775 11.9216 14.2607 12.2663 14.741L11.0673 15.3845C10.851 15.1168 10.5815 14.9023 10.2588 14.741C9.93978 14.5797 9.60062 14.499 9.24128 14.499C8.90395 14.499 8.58678 14.5687 8.28978 14.708C7.99278 14.8437 7.73245 15.0343 7.50878 15.28C7.28512 15.522 7.11095 15.8043 6.98628 16.127C6.86162 16.446 6.79928 16.787 6.79928 17.15C6.79928 17.5167 6.86162 17.8595 6.98628 18.1785C7.11462 18.4975 7.29062 18.7798 7.51428 19.0255C7.73795 19.2675 7.99645 19.4582 8.28978 19.5975C8.58678 19.7332 8.90395 19.801 9.24128 19.801C9.60795 19.801 9.94895 19.7203 10.2643 19.559C10.5833 19.394 10.851 19.1777 11.0673 18.91L12.2663 19.559C11.9216 20.0357 11.4871 20.4188 10.9628 20.7085C10.4385 20.9982 9.86462 21.143 9.24128 21.143ZM13.7042 21V13.3H16.6577C17.0757 13.3 17.4534 13.4045 17.7907 13.6135C18.1281 13.8225 18.3957 14.103 18.5937 14.455C18.7917 14.8033 18.8907 15.1902 18.8907 15.6155C18.8907 15.9638 18.8266 16.2847 18.6982 16.578C18.5736 16.8677 18.3976 17.1188 18.1702 17.3315C17.9466 17.5442 17.6881 17.7055 17.3947 17.8155L19.2372 21H17.6917L15.9097 17.9365H15.0462V21H13.7042ZM15.0462 16.5945H16.5037C16.6944 16.5945 16.8686 16.5468 17.0262 16.4515C17.1839 16.3562 17.3104 16.2278 17.4057 16.0665C17.5011 15.9052 17.5487 15.7255 17.5487 15.5275C17.5487 15.3258 17.5011 15.1443 17.4057 14.983C17.3104 14.8217 17.1839 14.6933 17.0262 14.598C16.8686 14.5027 16.6944 14.455 16.5037 14.455H15.0462V16.5945ZM20.6892 21V13.3H25.5182V14.642H22.0312V16.204H24.7977V17.546H22.0312V19.658H25.5182V21H20.6892ZM29.5284 13.3H31.0739L33.8734 21H32.4489L31.9539 19.636H28.6539L28.1589 21H26.7344L29.5284 13.3ZM29.1434 18.294H31.4589L30.2984 15.1205L29.1434 18.294ZM40.1454 13.3V14.642H37.7914V21H36.4494V14.642H34.0954V13.3H40.1454ZM44.7787 21.143C44.258 21.143 43.7685 21.0403 43.3102 20.835C42.8518 20.626 42.4485 20.3382 42.1002 19.9715C41.7518 19.6048 41.4787 19.1813 41.2807 18.701C41.0827 18.217 40.9837 17.7 40.9837 17.15C40.9837 16.6 41.0827 16.0848 41.2807 15.6045C41.4787 15.1205 41.7518 14.6952 42.1002 14.3285C42.4485 13.9618 42.8518 13.6758 43.3102 13.4705C43.7685 13.2615 44.258 13.157 44.7787 13.157C45.303 13.157 45.7943 13.2615 46.2527 13.4705C46.711 13.6758 47.1143 13.9618 47.4627 14.3285C47.811 14.6952 48.0823 15.1205 48.2767 15.6045C48.4747 16.0848 48.5737 16.6 48.5737 17.15C48.5737 17.7 48.4747 18.217 48.2767 18.701C48.0823 19.1813 47.811 19.6048 47.4627 19.9715C47.1143 20.3382 46.711 20.626 46.2527 20.835C45.7943 21.0403 45.303 21.143 44.7787 21.143ZM44.7787 19.801C45.116 19.801 45.4332 19.7313 45.7302 19.592C46.0272 19.4527 46.2875 19.262 46.5112 19.02C46.7385 18.7743 46.9145 18.492 47.0392 18.173C47.1675 17.854 47.2317 17.513 47.2317 17.15C47.2317 16.787 47.1675 16.446 47.0392 16.127C46.9108 15.8043 46.733 15.522 46.5057 15.28C46.282 15.038 46.0217 14.8473 45.7247 14.708C45.4313 14.5687 45.116 14.499 44.7787 14.499C44.4413 14.499 44.1242 14.5687 43.8272 14.708C43.5302 14.8473 43.268 15.0398 43.0407 15.2855C42.817 15.5275 42.641 15.808 42.5127 16.127C42.388 16.446 42.3257 16.787 42.3257 17.15C42.3257 17.5167 42.3898 17.8595 42.5182 18.1785C42.6465 18.4975 42.8225 18.7798 43.0462 19.0255C43.2735 19.2675 43.5338 19.4582 43.8272 19.5975C44.1242 19.7332 44.4413 19.801 44.7787 19.801ZM49.9718 21V13.3H52.9253C53.3433 13.3 53.721 13.4045 54.0583 13.6135C54.3957 13.8225 54.6633 14.103 54.8613 14.455C55.0593 14.8033 55.1583 15.1902 55.1583 15.6155C55.1583 15.9638 55.0942 16.2847 54.9658 16.578C54.8412 16.8677 54.6652 17.1188 54.4378 17.3315C54.2142 17.5442 53.9557 17.7055 53.6623 17.8155L55.5048 21H53.9593L52.1773 17.9365H51.3138V21H49.9718ZM51.3138 16.5945H52.7713C52.962 16.5945 53.1362 16.5468 53.2938 16.4515C53.4515 16.3562 53.578 16.2278 53.6733 16.0665C53.7687 15.9052 53.8163 15.7255 53.8163 15.5275C53.8163 15.3258 53.7687 15.1443 53.6733 14.983C53.578 14.8217 53.4515 14.6933 53.2938 14.598C53.1362 14.5027 52.962 14.455 52.7713 14.455H51.3138V16.5945ZM19.0556 35.143C18.6303 35.143 18.2215 35.077 17.8291 34.945C17.4405 34.8093 17.0995 34.6168 16.8061 34.3675C16.5128 34.1145 16.302 33.812 16.1736 33.46L17.4331 32.998C17.4845 33.1447 17.589 33.2785 17.7466 33.3995C17.9043 33.5205 18.0968 33.6177 18.3241 33.691C18.5515 33.7643 18.7953 33.801 19.0556 33.801C19.3233 33.801 19.5726 33.7607 19.8036 33.68C20.0383 33.5957 20.2271 33.4802 20.3701 33.3335C20.5131 33.1832 20.5846 33.009 20.5846 32.811C20.5846 32.6093 20.5095 32.4443 20.3591 32.316C20.2088 32.184 20.0163 32.0795 19.7816 32.0025C19.547 31.9255 19.305 31.8668 19.0556 31.8265C18.5093 31.7422 18.0198 31.612 17.5871 31.436C17.1545 31.26 16.8116 31.0162 16.5586 30.7045C16.3093 30.3928 16.1846 29.9895 16.1846 29.4945C16.1846 29.0288 16.3185 28.6218 16.5861 28.2735C16.8538 27.9252 17.2058 27.6538 17.6421 27.4595C18.0785 27.2652 18.5496 27.168 19.0556 27.168C19.4773 27.168 19.8843 27.234 20.2766 27.366C20.669 27.498 21.0118 27.6905 21.3051 27.9435C21.6021 28.1965 21.8148 28.5008 21.9431 28.8565L20.6781 29.313C20.6268 29.1663 20.5223 29.0325 20.3646 28.9115C20.207 28.7905 20.0145 28.6952 19.7871 28.6255C19.5598 28.5522 19.316 28.5155 19.0556 28.5155C18.7953 28.5118 18.5478 28.554 18.3131 28.642C18.0821 28.7263 17.8933 28.8418 17.7466 28.9885C17.6 29.1352 17.5266 29.3038 17.5266 29.4945C17.5266 29.7402 17.5945 29.9253 17.7301 30.05C17.8695 30.1747 18.0546 30.2663 18.2856 30.325C18.5166 30.38 18.7733 30.4313 19.0556 30.479C19.569 30.5597 20.0438 30.6953 20.4801 30.886C20.9165 31.0767 21.2666 31.3315 21.5306 31.6505C21.7946 31.9658 21.9266 32.3527 21.9266 32.811C21.9266 33.2767 21.7946 33.6855 21.5306 34.0375C21.2666 34.3858 20.9165 34.6572 20.4801 34.8515C20.0438 35.0458 19.569 35.143 19.0556 35.143ZM28.1121 27.3H29.4541V35H28.1121V31.546H24.9221V35H23.5801V27.3H24.9221V30.204H28.1121V27.3ZM34.7524 35.143C34.2317 35.143 33.7422 35.0403 33.2839 34.835C32.8256 34.626 32.4222 34.3382 32.0739 33.9715C31.7256 33.6048 31.4524 33.1813 31.2544 32.701C31.0564 32.217 30.9574 31.7 30.9574 31.15C30.9574 30.6 31.0564 30.0848 31.2544 29.6045C31.4524 29.1205 31.7256 28.6952 32.0739 28.3285C32.4222 27.9618 32.8256 27.6758 33.2839 27.4705C33.7422 27.2615 34.2317 27.157 34.7524 27.157C35.2767 27.157 35.7681 27.2615 36.2264 27.4705C36.6847 27.6758 37.0881 27.9618 37.4364 28.3285C37.7847 28.6952 38.0561 29.1205 38.2504 29.6045C38.4484 30.0848 38.5474 30.6 38.5474 31.15C38.5474 31.7 38.4484 32.217 38.2504 32.701C38.0561 33.1813 37.7847 33.6048 37.4364 33.9715C37.0881 34.3382 36.6847 34.626 36.2264 34.835C35.7681 35.0403 35.2767 35.143 34.7524 35.143ZM34.7524 33.801C35.0897 33.801 35.4069 33.7313 35.7039 33.592C36.0009 33.4527 36.2612 33.262 36.4849 33.02C36.7122 32.7743 36.8882 32.492 37.0129 32.173C37.1412 31.854 37.2054 31.513 37.2054 31.15C37.2054 30.787 37.1412 30.446 37.0129 30.127C36.8846 29.8043 36.7067 29.522 36.4794 29.28C36.2557 29.038 35.9954 28.8473 35.6984 28.708C35.4051 28.5687 35.0897 28.499 34.7524 28.499C34.4151 28.499 34.0979 28.5687 33.8009 28.708C33.5039 28.8473 33.2417 29.0398 33.0144 29.2855C32.7907 29.5275 32.6147 29.808 32.4864 30.127C32.3617 30.446 32.2994 30.787 32.2994 31.15C32.2994 31.5167 32.3636 31.8595 32.4919 32.1785C32.6202 32.4975 32.7962 32.7798 33.0199 33.0255C33.2472 33.2675 33.5076 33.4582 33.8009 33.5975C34.0979 33.7332 34.4151 33.801 34.7524 33.801ZM39.9455 35V27.3H42.6955C43.1135 27.3 43.4912 27.4045 43.8285 27.6135C44.1695 27.8225 44.439 28.103 44.637 28.455C44.835 28.807 44.934 29.1938 44.934 29.6155C44.934 30.0482 44.8314 30.4405 44.626 30.7925C44.4244 31.1408 44.153 31.4195 43.812 31.6285C43.471 31.8338 43.0989 31.9365 42.6955 31.9365H41.2875V35H39.9455ZM41.2875 30.5945H42.5525C42.7432 30.5945 42.9174 30.5468 43.075 30.4515C43.2327 30.3562 43.3574 30.2278 43.449 30.0665C43.5444 29.9052 43.592 29.7255 43.592 29.5275C43.592 29.3258 43.5444 29.1443 43.449 28.983C43.3574 28.8217 43.2327 28.6933 43.075 28.598C42.9174 28.5027 42.7432 28.455 42.5525 28.455H41.2875V30.5945Z" fill="#FEBEA9"/>
</svg>
