<svg width="122" height="122" viewBox="0 0 114 114" fill="none" xmlns="http://www.w3.org/2000/svg">
<path d="M52.6979 2.5256C54.9974 -0.0284171 59.0026 -0.0284173 61.3021 2.5256C63.447 4.90791 66.9659 5.46526 69.742 3.86235C72.7181 2.14391 76.5274 3.3816 77.925 6.52118C79.2288 9.4497 82.4033 11.0672 85.5388 10.4006C88.9003 9.68593 92.1406 12.0402 92.4997 15.458C92.8347 18.646 95.354 21.1653 98.542 21.5003C101.96 21.8594 104.314 25.0997 103.599 28.4612C102.933 31.5967 104.55 34.7712 107.479 36.075C110.618 37.4726 111.856 41.2819 110.138 44.258C108.535 47.0341 109.092 50.553 111.474 52.6979C114.028 54.9974 114.028 59.0026 111.474 61.3021C109.092 63.447 108.535 66.9659 110.138 69.742C111.856 72.7181 110.618 76.5274 107.479 77.925C104.55 79.2288 102.933 82.4033 103.599 85.5388C104.314 88.9003 101.96 92.1406 98.542 92.4997C95.354 92.8347 92.8347 95.354 92.4997 98.542C92.1406 101.96 88.9003 104.314 85.5388 103.599C82.4033 102.933 79.2288 104.55 77.925 107.479C76.5274 110.618 72.7181 111.856 69.742 110.138C66.9659 108.535 63.447 109.092 61.3021 111.474C59.0026 114.028 54.9974 114.028 52.6979 111.474C50.553 109.092 47.0341 108.535 44.258 110.138C41.2819 111.856 37.4726 110.618 36.075 107.479C34.7712 104.55 31.5967 102.933 28.4612 103.599C25.0997 104.314 21.8594 101.96 21.5003 98.542C21.1653 95.354 18.646 92.8347 15.458 92.4997C12.0402 92.1406 9.68593 88.9003 10.4006 85.5388C11.0672 82.4033 9.4497 79.2288 6.52118 77.925C3.3816 76.5274 2.14391 72.7181 3.86235 69.742C5.46526 66.9659 4.90791 63.447 2.5256 61.3021C-0.0284173 59.0026 -0.0284173 54.9974 2.5256 52.6979C4.90791 50.553 5.46526 47.0341 3.86235 44.258C2.14391 41.2819 3.38159 37.4726 6.52118 36.075C9.4497 34.7712 11.0672 31.5967 10.4006 28.4612C9.68593 25.0997 12.0402 21.8594 15.458 21.5003C18.646 21.1653 21.1653 18.646 21.5003 15.458C21.8594 12.0402 25.0997 9.68593 28.4612 10.4006C31.5967 11.0672 34.7712 9.4497 36.075 6.52119C37.4726 3.38159 41.2819 2.14391 44.258 3.86235C47.0341 5.46526 50.553 4.90791 52.6979 2.5256Z" stroke="#FEBEA9"/>
</svg>
