<svg width="106" height="106" viewBox="0 0 106 106" fill="none" xmlns="http://www.w3.org/2000/svg">
<path d="M49.0874 3.09301C51.1787 0.770213 54.8213 0.770213 56.9126 3.09301C58.8919 5.29142 62.1392 5.80574 64.701 4.32657C67.4077 2.7637 70.8721 3.88934 72.1432 6.7447C73.3463 9.44714 76.2757 10.9398 79.1692 10.3246C82.2264 9.67467 85.1734 11.8158 85.5 14.9242C85.8091 17.8661 88.1339 20.1909 91.0758 20.5C94.1842 20.8266 96.3253 23.7736 95.6754 26.8308C95.0602 29.7243 96.5529 32.6537 99.2553 33.8568C102.111 35.1279 103.236 38.5923 101.673 41.299C100.194 43.8608 100.709 47.1081 102.907 49.0874C105.23 51.1787 105.23 54.8213 102.907 56.9126C100.709 58.8919 100.194 62.1392 101.673 64.701C103.236 67.4077 102.111 70.8721 99.2553 72.1432C96.5529 73.3463 95.0602 76.2757 95.6754 79.1692C96.3253 82.2264 94.1842 85.1734 91.0758 85.5C88.1339 85.8091 85.8091 88.1339 85.5 91.0758C85.1734 94.1842 82.2264 96.3253 79.1692 95.6754C76.2757 95.0602 73.3463 96.5529 72.1432 99.2553C70.8721 102.111 67.4077 103.236 64.701 101.673C62.1392 100.194 58.8919 100.709 56.9126 102.907C54.8213 105.23 51.1787 105.23 49.0874 102.907C47.1081 100.709 43.8608 100.194 41.299 101.673C38.5923 103.236 35.1279 102.111 33.8568 99.2553C32.6537 96.5529 29.7243 95.0602 26.8308 95.6754C23.7736 96.3253 20.8266 94.1842 20.5 91.0758C20.1909 88.1339 17.8661 85.8091 14.9242 85.5C11.8158 85.1734 9.67467 82.2264 10.3246 79.1692C10.9398 76.2757 9.44714 73.3463 6.7447 72.1432C3.88934 70.8721 2.7637 67.4077 4.32657 64.701C5.80574 62.1392 5.29142 58.8919 3.09301 56.9126C0.770213 54.8213 0.770213 51.1787 3.09301 49.0874C5.29142 47.1081 5.80574 43.8608 4.32657 41.299C2.7637 38.5923 3.88934 35.1279 6.7447 33.8568C9.44714 32.6537 10.9398 29.7243 10.3246 26.8308C9.67467 23.7736 11.8158 20.8266 14.9242 20.5C17.8661 20.1909 20.1909 17.8661 20.5 14.9242C20.8266 11.8158 23.7736 9.67467 26.8308 10.3246C29.7243 10.9398 32.6537 9.44714 33.8568 6.7447C35.1279 3.88934 38.5923 2.7637 41.299 4.32657C43.8608 5.80574 47.1081 5.29142 49.0874 3.09301Z" fill="#FEBEA9" stroke="#FEBEA9"/>
</svg>
