<svg id="instagram_1_" data-name="instagram (1)" xmlns="http://www.w3.org/2000/svg" width="19.919" height="19.918" viewBox="0 0 19.919 19.918">
  <path id="Path_74" data-name="Path 74" d="M13.985,0H5.934A5.941,5.941,0,0,0,0,5.934v8.051a5.941,5.941,0,0,0,5.934,5.934h8.051a5.941,5.941,0,0,0,5.934-5.934V5.934A5.941,5.941,0,0,0,13.985,0Zm3.93,13.985a3.93,3.93,0,0,1-3.93,3.93H5.934A3.93,3.93,0,0,1,2,13.985V5.934A3.93,3.93,0,0,1,5.934,2h8.051a3.93,3.93,0,0,1,3.93,3.93v8.051Z" fill="#c5c5c5"/>
  <path id="Path_75" data-name="Path 75" d="M138.152,133a5.152,5.152,0,1,0,5.152,5.152A5.157,5.157,0,0,0,138.152,133Zm0,8.3a3.148,3.148,0,1,1,3.148-3.148A3.148,3.148,0,0,1,138.152,141.3Z" transform="translate(-128.192 -128.192)" fill="#c5c5c5"/>
  <ellipse id="Ellipse_5" data-name="Ellipse 5" cx="1.234" cy="1.234" rx="1.234" ry="1.234" transform="translate(13.886 3.612)" fill="#c5c5c5"/>
</svg>
