<svg id="_004-linkedin-logo" data-name="004-linkedin-logo" xmlns="http://www.w3.org/2000/svg" width="17.743" height="16.955" viewBox="0 0 17.743 16.955">
  <path id="LinkedIn" d="M17.743,19.953v6.56h-3.8v-6.12c0-1.538-.55-2.587-1.927-2.587A2.081,2.081,0,0,0,10.062,19.2a2.6,2.6,0,0,0-.126.927v6.389h-3.8s.051-10.366,0-11.44h3.8v1.622c-.008.012-.018.025-.025.037h.025v-.037a3.777,3.777,0,0,1,3.428-1.89C15.867,14.8,17.743,16.439,17.743,19.953ZM2.153,9.558a1.982,1.982,0,1,0-.05,3.954h.025a1.983,1.983,0,1,0,.025-3.954ZM.226,26.513h3.8V15.073H.226Z" transform="translate(0 -9.558)" fill="#c5c5c5"/>
</svg>
