<svg id="_001-twitter-logo-silhouette" data-name="001-twitter-logo-silhouette" xmlns="http://www.w3.org/2000/svg" width="21.061" height="17.108" viewBox="0 0 21.061 17.108">
  <g id="Group_25" data-name="Group 25" transform="translate(0 0)">
    <path id="Path_69" data-name="Path 69" d="M21.062,59.465a8.628,8.628,0,0,1-2.481.68,4.338,4.338,0,0,0,1.9-2.389,8.71,8.71,0,0,1-2.745,1.049,4.324,4.324,0,0,0-7.362,3.939,12.266,12.266,0,0,1-8.9-4.514A4.326,4.326,0,0,0,2.806,64a4.321,4.321,0,0,1-1.957-.542v.054a4.325,4.325,0,0,0,3.465,4.236,4.376,4.376,0,0,1-1.138.151,4.146,4.146,0,0,1-.813-.08,4.323,4.323,0,0,0,4.035,3,8.668,8.668,0,0,1-5.366,1.846A9.181,9.181,0,0,1,0,72.6a12.213,12.213,0,0,0,6.623,1.944A12.208,12.208,0,0,0,18.916,62.257L18.9,61.7A8.627,8.627,0,0,0,21.062,59.465Z" transform="translate(-0.001 -57.441)" fill="#c5c5c5"/>
  </g>
</svg>
