<svg id="_002-facebook-logo" data-name="002-facebook-logo" xmlns="http://www.w3.org/2000/svg" width="10.662" height="19.721" viewBox="0 0 10.662 19.721">
  <path id="Path_70" data-name="Path 70" d="M32.338,0,29.78,0a4.491,4.491,0,0,0-4.73,4.853V7.091H22.479a.4.4,0,0,0-.4.4v3.242a.4.4,0,0,0,.4.4H25.05v8.181a.4.4,0,0,0,.4.4h3.355a.4.4,0,0,0,.4-.4V11.138h3.006a.4.4,0,0,0,.4-.4V7.493a.4.4,0,0,0-.4-.4H29.21v-1.9c0-.912.217-1.375,1.4-1.375h1.723a.4.4,0,0,0,.4-.4V.406A.4.4,0,0,0,32.338,0Z" transform="translate(-22.077)" fill="#c5c5c5"/>
</svg>
