<svg id="_005-youtube" data-name="005-youtube" xmlns="http://www.w3.org/2000/svg" width="22.217" height="15.274" viewBox="0 0 22.217 15.274">
  <g id="Group_32" data-name="Group 32" transform="translate(0 0)">
    <path id="Path_73" data-name="Path 73" d="M21.273,81.472c-.6-1.072-1.257-1.269-2.588-1.344-1.33-.09-4.675-.128-7.573-.128s-6.25.038-7.579.126S1.548,80.4.94,81.472,0,84.386,0,87.633v.011c0,3.233.319,5.09.94,6.15S2.2,95.06,3.531,95.15s4.677.124,7.58.124,6.243-.046,7.575-.122,1.986-.285,2.588-1.357c.626-1.059.943-2.917.943-6.15v-.011C22.217,84.386,21.9,82.542,21.273,81.472ZM8.331,91.8V83.471l6.943,4.166Z" transform="translate(0 -80)" fill="#c5c5c5"/>
  </g>
</svg>
