<svg xmlns="http://www.w3.org/2000/svg" width="48" height="48" viewBox="0 0 48 48"><defs><style>.a{fill:#342546;}.b{fill:#fff;stroke:#fff;stroke-width:0.2px;}</style></defs><g transform="translate(-20 -20)"><rect class="a" width="48" height="48" rx="15" transform="translate(20 20)"/><g transform="translate(31.5 30.475)"><path class="b" d="M17.7,18.477H11.85a.767.767,0,0,1-.764-.764V14.082a1.643,1.643,0,0,0-3.287,0v3.631a.767.767,0,0,1-.764.764H1.264A.767.767,0,0,1,.5,17.713V7.929a2.135,2.135,0,0,1,.879-1.72L9.061.668a.746.746,0,0,1,.879,0L17.621,6.21a2.135,2.135,0,0,1,.879,1.72v9.822a.824.824,0,0,1-.8.726Zm-5.083-1.49h4.357V7.929a.653.653,0,0,0-.268-.5L9.481,2.2l-7.223,5.2a.653.653,0,0,0-.268.5v9.057H6.347V14.082a3.134,3.134,0,1,1,6.268,0Z" transform="translate(3 3)"/></g></g></svg>